G75*
%MOIN*%
%OFA0B0*%
%FSLAX25Y25*%
%IPPOS*%
%LPD*%
%AMOC8*
5,1,8,0,0,1.08239X$1,22.5*
%
%ADD10C,0.08200*%
%ADD11C,0.06000*%
%ADD12R,0.03950X0.05524*%
%ADD13R,0.05524X0.03950*%
%ADD14R,0.09600X0.05600*%
%ADD15R,0.09461X0.14973*%
%ADD16R,0.06800X0.06800*%
%ADD17OC8,0.06800*%
%ADD18R,0.08200X0.08200*%
%ADD19OC8,0.08200*%
%ADD20R,0.02375X0.06312*%
%ADD21R,0.08674X0.08280*%
%ADD22R,0.09461X0.08280*%
%ADD23C,0.05156*%
%ADD24C,0.04800*%
%ADD25C,0.20800*%
D10*
X0026800Y0148472D03*
X0036800Y0148472D03*
X0046800Y0148472D03*
X0056800Y0148472D03*
X0066800Y0148472D03*
X0076800Y0148472D03*
X0061800Y0168472D03*
X0051800Y0168472D03*
X0041800Y0168472D03*
X0156800Y0153472D03*
X0156800Y0143472D03*
X0156800Y0128472D03*
X0156800Y0118472D03*
D11*
X0129400Y0113472D02*
X0124200Y0113472D01*
X0124200Y0103472D02*
X0129400Y0103472D01*
X0129400Y0093472D02*
X0124200Y0093472D01*
X0124200Y0083472D02*
X0129400Y0083472D01*
X0129400Y0073472D02*
X0124200Y0073472D01*
X0124200Y0063472D02*
X0129400Y0063472D01*
X0129400Y0053472D02*
X0124200Y0053472D01*
X0124200Y0043472D02*
X0129400Y0043472D01*
X0129400Y0033472D02*
X0124200Y0033472D01*
X0124200Y0023472D02*
X0129400Y0023472D01*
X0099400Y0023472D02*
X0094200Y0023472D01*
X0094200Y0033472D02*
X0099400Y0033472D01*
X0099400Y0043472D02*
X0094200Y0043472D01*
X0094200Y0053472D02*
X0099400Y0053472D01*
X0099400Y0063472D02*
X0094200Y0063472D01*
X0094200Y0073472D02*
X0099400Y0073472D01*
X0099400Y0083472D02*
X0094200Y0083472D01*
X0094200Y0093472D02*
X0099400Y0093472D01*
X0099400Y0103472D02*
X0094200Y0103472D01*
X0094200Y0113472D02*
X0099400Y0113472D01*
X0099400Y0123472D02*
X0094200Y0123472D01*
X0094200Y0133472D02*
X0099400Y0133472D01*
X0099400Y0143472D02*
X0094200Y0143472D01*
X0094200Y0153472D02*
X0099400Y0153472D01*
X0124200Y0153472D02*
X0129400Y0153472D01*
X0129400Y0143472D02*
X0124200Y0143472D01*
X0124200Y0133472D02*
X0129400Y0133472D01*
X0129400Y0123472D02*
X0124200Y0123472D01*
D12*
X0115343Y0143472D03*
X0108257Y0143472D03*
X0108257Y0083472D03*
X0115343Y0083472D03*
X0075343Y0058472D03*
X0068257Y0058472D03*
X0068257Y0048472D03*
X0075343Y0048472D03*
X0075343Y0038472D03*
X0068257Y0038472D03*
X0068257Y0028472D03*
X0075343Y0028472D03*
X0025343Y0078472D03*
X0018257Y0078472D03*
X0018257Y0088472D03*
X0025343Y0088472D03*
D13*
X0076800Y0114929D03*
X0076800Y0122016D03*
X0026800Y0164929D03*
X0026800Y0172016D03*
X0016800Y0172016D03*
X0016800Y0164929D03*
D14*
X0054000Y0062572D03*
X0054000Y0053472D03*
X0054000Y0044372D03*
D15*
X0029599Y0053472D03*
D16*
X0036800Y0078472D03*
D17*
X0036800Y0088472D03*
X0046800Y0088472D03*
X0046800Y0078472D03*
X0056800Y0078472D03*
X0056800Y0088472D03*
X0066800Y0088472D03*
X0066800Y0078472D03*
D18*
X0041800Y0113472D03*
D19*
X0041800Y0123472D03*
X0051800Y0123472D03*
X0051800Y0113472D03*
X0061800Y0113472D03*
X0061800Y0123472D03*
X0146800Y0098472D03*
X0146800Y0088472D03*
X0146800Y0078472D03*
X0156800Y0078472D03*
X0156800Y0088472D03*
X0156800Y0098472D03*
X0156800Y0068472D03*
X0156800Y0058472D03*
X0156800Y0048472D03*
X0146800Y0048472D03*
X0146800Y0058472D03*
X0146800Y0068472D03*
D20*
X0046918Y0034693D03*
X0044359Y0034693D03*
X0041800Y0034693D03*
X0039241Y0034693D03*
X0036682Y0034693D03*
D21*
X0036879Y0023472D03*
X0046721Y0023472D03*
D22*
X0026052Y0023472D03*
X0057548Y0023472D03*
D23*
X0141800Y0028472D03*
X0086800Y0158472D03*
X0126800Y0163472D03*
X0016800Y0128472D03*
D24*
X0063050Y0102222D03*
X0063050Y0070972D03*
X0063050Y0038472D03*
X0116800Y0068472D03*
X0135550Y0064722D03*
X0161800Y0093472D03*
D25*
X0159300Y0025972D03*
M02*
