G75*
%MOIN*%
%OFA0B0*%
%FSLAX25Y25*%
%IPPOS*%
%LPD*%
%AMOC8*
5,1,8,0,0,1.08239X$1,22.5*
%
%ADD10C,0.00800*%
%ADD11C,0.00600*%
%ADD12C,0.00100*%
%ADD13C,0.01000*%
%ADD14C,0.00700*%
%ADD15C,0.00500*%
D10*
X0035300Y0040572D02*
X0035300Y0066372D01*
X0048300Y0066372D01*
X0048300Y0040572D01*
X0035300Y0040572D01*
X0099800Y0019472D02*
X0099800Y0018472D01*
X0123800Y0018472D01*
X0123800Y0019472D01*
X0144300Y0043472D02*
X0141800Y0045972D01*
X0141800Y0050972D01*
X0144300Y0053472D01*
X0159300Y0053472D01*
X0161800Y0055972D01*
X0161800Y0060972D01*
X0159300Y0063472D01*
X0144300Y0063472D01*
X0141800Y0065972D01*
X0141800Y0070972D01*
X0144300Y0073472D01*
X0159300Y0073472D01*
X0161800Y0075972D01*
X0161800Y0080972D01*
X0159300Y0083472D01*
X0144300Y0083472D01*
X0141800Y0085972D01*
X0141800Y0090972D01*
X0144300Y0093472D01*
X0159300Y0093472D01*
X0161800Y0095972D01*
X0161800Y0100972D01*
X0159300Y0103472D01*
X0144300Y0103472D01*
X0141800Y0100972D01*
X0141800Y0095972D01*
X0144300Y0093472D01*
X0144300Y0083472D02*
X0141800Y0080972D01*
X0141800Y0075972D01*
X0144300Y0073472D01*
X0144300Y0063472D02*
X0141800Y0060972D01*
X0141800Y0055972D01*
X0144300Y0053472D01*
X0144300Y0043472D02*
X0159300Y0043472D01*
X0161800Y0045972D01*
X0161800Y0050972D01*
X0159300Y0053472D01*
X0159300Y0063472D02*
X0161800Y0065972D01*
X0161800Y0070972D01*
X0159300Y0073472D01*
X0159300Y0083472D02*
X0161800Y0085972D01*
X0161800Y0090972D01*
X0159300Y0093472D01*
X0159300Y0113472D02*
X0154300Y0113472D01*
X0151800Y0115972D01*
X0151800Y0120972D01*
X0154300Y0123472D01*
X0151800Y0125972D01*
X0151800Y0130972D01*
X0154300Y0133472D01*
X0159300Y0133472D01*
X0161800Y0130972D01*
X0161800Y0125972D01*
X0159300Y0123472D01*
X0161800Y0120972D01*
X0161800Y0115972D01*
X0159300Y0113472D01*
X0159300Y0138472D02*
X0154300Y0138472D01*
X0151800Y0140972D01*
X0151800Y0145972D01*
X0154300Y0148472D01*
X0151800Y0150972D01*
X0151800Y0155972D01*
X0154300Y0158472D01*
X0159300Y0158472D01*
X0161800Y0155972D01*
X0161800Y0150972D01*
X0159300Y0148472D01*
X0161800Y0145972D01*
X0161800Y0140972D01*
X0159300Y0138472D01*
X0123800Y0157472D02*
X0123800Y0158472D01*
X0116800Y0158472D01*
X0116798Y0158332D01*
X0116792Y0158192D01*
X0116782Y0158052D01*
X0116769Y0157912D01*
X0116751Y0157773D01*
X0116729Y0157634D01*
X0116704Y0157497D01*
X0116675Y0157359D01*
X0116642Y0157223D01*
X0116605Y0157088D01*
X0116564Y0156954D01*
X0116519Y0156821D01*
X0116471Y0156689D01*
X0116419Y0156559D01*
X0116364Y0156430D01*
X0116305Y0156303D01*
X0116242Y0156177D01*
X0116176Y0156053D01*
X0116107Y0155932D01*
X0116034Y0155812D01*
X0115957Y0155694D01*
X0115878Y0155579D01*
X0115795Y0155465D01*
X0115709Y0155355D01*
X0115620Y0155246D01*
X0115528Y0155140D01*
X0115433Y0155037D01*
X0115336Y0154936D01*
X0115235Y0154839D01*
X0115132Y0154744D01*
X0115026Y0154652D01*
X0114917Y0154563D01*
X0114807Y0154477D01*
X0114693Y0154394D01*
X0114578Y0154315D01*
X0114460Y0154238D01*
X0114340Y0154165D01*
X0114219Y0154096D01*
X0114095Y0154030D01*
X0113969Y0153967D01*
X0113842Y0153908D01*
X0113713Y0153853D01*
X0113583Y0153801D01*
X0113451Y0153753D01*
X0113318Y0153708D01*
X0113184Y0153667D01*
X0113049Y0153630D01*
X0112913Y0153597D01*
X0112775Y0153568D01*
X0112638Y0153543D01*
X0112499Y0153521D01*
X0112360Y0153503D01*
X0112220Y0153490D01*
X0112080Y0153480D01*
X0111940Y0153474D01*
X0111800Y0153472D01*
X0111660Y0153474D01*
X0111520Y0153480D01*
X0111380Y0153490D01*
X0111240Y0153503D01*
X0111101Y0153521D01*
X0110962Y0153543D01*
X0110825Y0153568D01*
X0110687Y0153597D01*
X0110551Y0153630D01*
X0110416Y0153667D01*
X0110282Y0153708D01*
X0110149Y0153753D01*
X0110017Y0153801D01*
X0109887Y0153853D01*
X0109758Y0153908D01*
X0109631Y0153967D01*
X0109505Y0154030D01*
X0109381Y0154096D01*
X0109260Y0154165D01*
X0109140Y0154238D01*
X0109022Y0154315D01*
X0108907Y0154394D01*
X0108793Y0154477D01*
X0108683Y0154563D01*
X0108574Y0154652D01*
X0108468Y0154744D01*
X0108365Y0154839D01*
X0108264Y0154936D01*
X0108167Y0155037D01*
X0108072Y0155140D01*
X0107980Y0155246D01*
X0107891Y0155355D01*
X0107805Y0155465D01*
X0107722Y0155579D01*
X0107643Y0155694D01*
X0107566Y0155812D01*
X0107493Y0155932D01*
X0107424Y0156053D01*
X0107358Y0156177D01*
X0107295Y0156303D01*
X0107236Y0156430D01*
X0107181Y0156559D01*
X0107129Y0156689D01*
X0107081Y0156821D01*
X0107036Y0156954D01*
X0106995Y0157088D01*
X0106958Y0157223D01*
X0106925Y0157359D01*
X0106896Y0157497D01*
X0106871Y0157634D01*
X0106849Y0157773D01*
X0106831Y0157912D01*
X0106818Y0158052D01*
X0106808Y0158192D01*
X0106802Y0158332D01*
X0106800Y0158472D01*
X0099800Y0158472D01*
X0099800Y0157472D01*
X0081800Y0150972D02*
X0081800Y0145972D01*
X0079300Y0143472D01*
X0074300Y0143472D01*
X0071800Y0145972D01*
X0069300Y0143472D01*
X0064300Y0143472D01*
X0061800Y0145972D01*
X0059300Y0143472D01*
X0054300Y0143472D01*
X0051800Y0145972D01*
X0049300Y0143472D01*
X0044300Y0143472D01*
X0041800Y0145972D01*
X0039300Y0143472D01*
X0034300Y0143472D01*
X0031800Y0145972D01*
X0029300Y0143472D01*
X0024300Y0143472D01*
X0021800Y0145972D01*
X0021800Y0150972D01*
X0024300Y0153472D01*
X0029300Y0153472D01*
X0031800Y0150972D01*
X0034300Y0153472D01*
X0039300Y0153472D01*
X0041800Y0150972D01*
X0044300Y0153472D01*
X0049300Y0153472D01*
X0051800Y0150972D01*
X0054300Y0153472D01*
X0059300Y0153472D01*
X0061800Y0150972D01*
X0064300Y0153472D01*
X0069300Y0153472D01*
X0071800Y0150972D01*
X0074300Y0153472D01*
X0079300Y0153472D01*
X0081800Y0150972D01*
D11*
X0110619Y0145835D02*
X0112981Y0145835D01*
X0112981Y0141110D02*
X0110619Y0141110D01*
X0079162Y0119654D02*
X0079162Y0117291D01*
X0074438Y0117291D02*
X0074438Y0119654D01*
X0110619Y0085835D02*
X0112981Y0085835D01*
X0112981Y0081110D02*
X0110619Y0081110D01*
X0072981Y0060835D02*
X0070619Y0060835D01*
X0070619Y0056110D02*
X0072981Y0056110D01*
X0072981Y0050835D02*
X0070619Y0050835D01*
X0070619Y0046110D02*
X0072981Y0046110D01*
X0072981Y0040835D02*
X0070619Y0040835D01*
X0070619Y0036110D02*
X0072981Y0036110D01*
X0072981Y0030835D02*
X0070619Y0030835D01*
X0070619Y0026110D02*
X0072981Y0026110D01*
X0022981Y0076110D02*
X0020619Y0076110D01*
X0020619Y0080835D02*
X0022981Y0080835D01*
X0022981Y0086110D02*
X0020619Y0086110D01*
X0020619Y0090835D02*
X0022981Y0090835D01*
X0024438Y0167291D02*
X0024438Y0169654D01*
X0029162Y0169654D02*
X0029162Y0167291D01*
X0019162Y0167291D02*
X0019162Y0169654D01*
X0014438Y0169654D02*
X0014438Y0167291D01*
D12*
X0016749Y0018522D02*
X0018000Y0018522D01*
X0018250Y0018773D01*
X0018250Y0019273D01*
X0018000Y0019523D01*
X0016749Y0019523D01*
X0017249Y0019996D02*
X0016749Y0020496D01*
X0018250Y0020496D01*
X0018250Y0019996D02*
X0018250Y0020997D01*
X0022499Y0050272D02*
X0024000Y0050272D01*
X0024000Y0051273D01*
X0024000Y0051746D02*
X0022499Y0051746D01*
X0022999Y0052246D01*
X0022499Y0052747D01*
X0024000Y0052747D01*
X0024000Y0053219D02*
X0024000Y0054220D01*
X0024000Y0054692D02*
X0024000Y0055693D01*
X0024000Y0056165D02*
X0024000Y0057166D01*
X0024000Y0057639D02*
X0023750Y0057639D01*
X0022749Y0058640D01*
X0022499Y0058640D01*
X0022499Y0057639D01*
X0022499Y0056666D02*
X0024000Y0056666D01*
X0022999Y0056165D02*
X0022499Y0056666D01*
X0022499Y0055193D02*
X0024000Y0055193D01*
X0022999Y0054692D02*
X0022499Y0055193D01*
X0022499Y0053719D02*
X0024000Y0053719D01*
X0022999Y0053219D02*
X0022499Y0053719D01*
X0022520Y0073022D02*
X0022520Y0074273D01*
X0022770Y0074524D01*
X0022770Y0073773D02*
X0022270Y0073773D01*
X0021797Y0074023D02*
X0021797Y0073022D01*
X0021047Y0073022D01*
X0020797Y0073273D01*
X0020797Y0074023D01*
X0020324Y0074273D02*
X0020324Y0073273D01*
X0020074Y0073022D01*
X0019573Y0073022D01*
X0019323Y0073273D01*
X0020324Y0074273D01*
X0020074Y0074524D01*
X0019573Y0074524D01*
X0019323Y0074273D01*
X0019323Y0073273D01*
X0018851Y0073022D02*
X0017850Y0073022D01*
X0018350Y0073022D02*
X0018350Y0074524D01*
X0017850Y0074023D01*
X0019100Y0081772D02*
X0019601Y0081772D01*
X0019851Y0082023D01*
X0020323Y0082023D02*
X0020573Y0081772D01*
X0021074Y0081772D01*
X0021324Y0082023D01*
X0021324Y0082273D01*
X0021074Y0082523D01*
X0020323Y0082523D01*
X0020323Y0082023D01*
X0020323Y0082523D02*
X0020824Y0083023D01*
X0021324Y0083274D01*
X0021533Y0083273D02*
X0021533Y0084023D01*
X0021533Y0083273D02*
X0021783Y0083022D01*
X0022534Y0083022D01*
X0022534Y0084023D01*
X0023006Y0083773D02*
X0023507Y0083773D01*
X0023257Y0084273D02*
X0023507Y0084524D01*
X0023257Y0084273D02*
X0023257Y0083022D01*
X0021061Y0083022D02*
X0020060Y0083022D01*
X0019851Y0083023D02*
X0019601Y0083274D01*
X0019100Y0083274D01*
X0018850Y0083023D01*
X0018850Y0082023D01*
X0019100Y0081772D01*
X0019323Y0083022D02*
X0019573Y0083022D01*
X0019573Y0083273D01*
X0019323Y0083273D01*
X0019323Y0083022D01*
X0018851Y0083273D02*
X0018601Y0083022D01*
X0018100Y0083022D01*
X0017850Y0083273D01*
X0018851Y0084273D01*
X0018851Y0083273D01*
X0018851Y0084273D02*
X0018601Y0084524D01*
X0018100Y0084524D01*
X0017850Y0084273D01*
X0017850Y0083273D01*
X0020060Y0084023D02*
X0020560Y0084524D01*
X0020560Y0083022D01*
X0021074Y0091772D02*
X0021074Y0093274D01*
X0020323Y0092523D01*
X0021324Y0092523D01*
X0019851Y0092023D02*
X0019601Y0091772D01*
X0019100Y0091772D01*
X0018850Y0092023D01*
X0018850Y0093023D01*
X0019100Y0093274D01*
X0019601Y0093274D01*
X0019851Y0093023D01*
X0067850Y0054023D02*
X0068350Y0054524D01*
X0068350Y0053022D01*
X0068850Y0053023D02*
X0068850Y0052023D01*
X0069100Y0051772D01*
X0069601Y0051772D01*
X0069851Y0052023D01*
X0070323Y0051772D02*
X0071324Y0052773D01*
X0071324Y0053023D01*
X0071074Y0053274D01*
X0070573Y0053274D01*
X0070323Y0053023D01*
X0070074Y0053022D02*
X0069573Y0053022D01*
X0069323Y0053273D01*
X0070324Y0054273D01*
X0070324Y0053273D01*
X0070074Y0053022D01*
X0069851Y0053023D02*
X0069601Y0053274D01*
X0069100Y0053274D01*
X0068850Y0053023D01*
X0068851Y0053022D02*
X0067850Y0053022D01*
X0069323Y0053273D02*
X0069323Y0054273D01*
X0069573Y0054524D01*
X0070074Y0054524D01*
X0070324Y0054273D01*
X0070797Y0054023D02*
X0070797Y0053273D01*
X0071047Y0053022D01*
X0071797Y0053022D01*
X0071797Y0054023D01*
X0071324Y0051772D02*
X0070323Y0051772D01*
X0070560Y0044524D02*
X0070560Y0043022D01*
X0070323Y0043023D02*
X0070573Y0043274D01*
X0071074Y0043274D01*
X0071324Y0043023D01*
X0071324Y0042773D01*
X0071074Y0042523D01*
X0071324Y0042273D01*
X0071324Y0042023D01*
X0071074Y0041772D01*
X0070573Y0041772D01*
X0070323Y0042023D01*
X0069851Y0042023D02*
X0069601Y0041772D01*
X0069100Y0041772D01*
X0068850Y0042023D01*
X0068850Y0043023D01*
X0069100Y0043274D01*
X0069601Y0043274D01*
X0069851Y0043023D01*
X0070060Y0043022D02*
X0071061Y0043022D01*
X0071074Y0042523D02*
X0070824Y0042523D01*
X0071533Y0043273D02*
X0071533Y0044023D01*
X0071533Y0043273D02*
X0071783Y0043022D01*
X0072534Y0043022D01*
X0072534Y0044023D01*
X0070560Y0044524D02*
X0070060Y0044023D01*
X0069573Y0043273D02*
X0069573Y0043022D01*
X0069323Y0043022D01*
X0069323Y0043273D01*
X0069573Y0043273D01*
X0068851Y0043273D02*
X0068601Y0043022D01*
X0068100Y0043022D01*
X0067850Y0043273D01*
X0068851Y0044273D01*
X0068851Y0043273D01*
X0068851Y0044273D02*
X0068601Y0044524D01*
X0068100Y0044524D01*
X0067850Y0044273D01*
X0067850Y0043273D01*
X0068100Y0034524D02*
X0067850Y0034273D01*
X0067850Y0033273D01*
X0068851Y0034273D01*
X0068851Y0033273D01*
X0068601Y0033022D01*
X0068100Y0033022D01*
X0067850Y0033273D01*
X0068850Y0033023D02*
X0068850Y0032023D01*
X0069100Y0031772D01*
X0069601Y0031772D01*
X0069851Y0032023D01*
X0070323Y0032023D02*
X0070573Y0031772D01*
X0071074Y0031772D01*
X0071324Y0032023D01*
X0071324Y0032523D01*
X0071074Y0032773D01*
X0070824Y0032773D01*
X0070323Y0032523D01*
X0070323Y0033274D01*
X0071324Y0033274D01*
X0071533Y0033273D02*
X0071783Y0033022D01*
X0072534Y0033022D01*
X0072534Y0034023D01*
X0071533Y0034023D02*
X0071533Y0033273D01*
X0071061Y0033022D02*
X0070060Y0033022D01*
X0069851Y0033023D02*
X0069601Y0033274D01*
X0069100Y0033274D01*
X0068850Y0033023D01*
X0069323Y0033022D02*
X0069573Y0033022D01*
X0069573Y0033273D01*
X0069323Y0033273D01*
X0069323Y0033022D01*
X0070560Y0033022D02*
X0070560Y0034524D01*
X0070060Y0034023D01*
X0068851Y0034273D02*
X0068601Y0034524D01*
X0068100Y0034524D01*
X0068350Y0024524D02*
X0067850Y0024023D01*
X0068350Y0024524D02*
X0068350Y0023022D01*
X0067850Y0023022D02*
X0068851Y0023022D01*
X0069323Y0023273D02*
X0070324Y0024273D01*
X0070324Y0023273D01*
X0070074Y0023022D01*
X0069573Y0023022D01*
X0069323Y0023273D01*
X0069323Y0024273D01*
X0069573Y0024524D01*
X0070074Y0024524D01*
X0070324Y0024273D01*
X0070797Y0024023D02*
X0070797Y0023273D01*
X0071047Y0023022D01*
X0071797Y0023022D01*
X0071797Y0024023D01*
X0071324Y0061772D02*
X0070323Y0061772D01*
X0070824Y0061772D02*
X0070824Y0063274D01*
X0070323Y0062773D01*
X0069851Y0063023D02*
X0069601Y0063274D01*
X0069100Y0063274D01*
X0068850Y0063023D01*
X0068850Y0062023D01*
X0069100Y0061772D01*
X0069601Y0061772D01*
X0069851Y0062023D01*
X0107850Y0078273D02*
X0108851Y0079273D01*
X0108851Y0078273D01*
X0108601Y0078022D01*
X0108100Y0078022D01*
X0107850Y0078273D01*
X0107850Y0079273D01*
X0108100Y0079524D01*
X0108601Y0079524D01*
X0108851Y0079273D01*
X0109323Y0078273D02*
X0109573Y0078273D01*
X0109573Y0078022D01*
X0109323Y0078022D01*
X0109323Y0078273D01*
X0110060Y0078022D02*
X0111061Y0078022D01*
X0110560Y0078022D02*
X0110560Y0079524D01*
X0110060Y0079023D01*
X0111533Y0079023D02*
X0111533Y0078273D01*
X0111783Y0078022D01*
X0112534Y0078022D01*
X0112534Y0079023D01*
X0111074Y0086772D02*
X0110573Y0086772D01*
X0110323Y0087023D01*
X0110323Y0087273D01*
X0110573Y0087523D01*
X0111074Y0087523D01*
X0111324Y0087273D01*
X0111324Y0087023D01*
X0111074Y0086772D01*
X0111074Y0087523D02*
X0111324Y0087773D01*
X0111324Y0088023D01*
X0111074Y0088274D01*
X0110573Y0088274D01*
X0110323Y0088023D01*
X0110323Y0087773D01*
X0110573Y0087523D01*
X0109851Y0087023D02*
X0109601Y0086772D01*
X0109100Y0086772D01*
X0108850Y0087023D01*
X0108850Y0088023D01*
X0109100Y0088274D01*
X0109601Y0088274D01*
X0109851Y0088023D01*
X0081350Y0118576D02*
X0081600Y0118826D01*
X0081600Y0119327D01*
X0081350Y0119577D01*
X0081350Y0120049D02*
X0080349Y0121050D01*
X0080099Y0121050D01*
X0080099Y0120049D01*
X0080349Y0119577D02*
X0080099Y0119327D01*
X0080099Y0118826D01*
X0080349Y0118576D01*
X0081350Y0118576D01*
X0081350Y0120049D02*
X0081600Y0120049D01*
X0072850Y0120076D02*
X0071349Y0120076D01*
X0071849Y0119576D01*
X0072600Y0119090D02*
X0072850Y0119090D01*
X0072850Y0118839D01*
X0072600Y0118839D01*
X0072600Y0119090D01*
X0072850Y0119576D02*
X0072850Y0120577D01*
X0072600Y0121049D02*
X0072850Y0121299D01*
X0072850Y0122050D01*
X0071849Y0122050D01*
X0071849Y0121049D02*
X0072600Y0121049D01*
X0072600Y0118367D02*
X0072850Y0118117D01*
X0072850Y0117616D01*
X0072600Y0117366D01*
X0071599Y0118367D01*
X0072600Y0118367D01*
X0072600Y0117366D02*
X0071599Y0117366D01*
X0071349Y0117616D01*
X0071349Y0118117D01*
X0071599Y0118367D01*
X0107850Y0138022D02*
X0108851Y0138022D01*
X0108350Y0138022D02*
X0108350Y0139524D01*
X0107850Y0139023D01*
X0109323Y0139273D02*
X0109323Y0138273D01*
X0110324Y0139273D01*
X0110324Y0138273D01*
X0110074Y0138022D01*
X0109573Y0138022D01*
X0109323Y0138273D01*
X0109323Y0139273D02*
X0109573Y0139524D01*
X0110074Y0139524D01*
X0110324Y0139273D01*
X0110797Y0139524D02*
X0110797Y0138022D01*
X0110797Y0138523D02*
X0111797Y0139524D01*
X0111047Y0138773D02*
X0111797Y0138022D01*
X0111324Y0146772D02*
X0110323Y0146772D01*
X0109851Y0146772D02*
X0109350Y0147273D01*
X0109601Y0147273D02*
X0108850Y0147273D01*
X0108850Y0146772D02*
X0108850Y0148274D01*
X0109601Y0148274D01*
X0109851Y0148023D01*
X0109851Y0147523D01*
X0109601Y0147273D01*
X0110323Y0147773D02*
X0110824Y0148274D01*
X0110824Y0146772D01*
X0023500Y0170522D02*
X0021999Y0170522D01*
X0021999Y0171273D01*
X0022249Y0171523D01*
X0022749Y0171523D01*
X0023000Y0171273D01*
X0023000Y0170522D01*
X0023000Y0171023D02*
X0023500Y0171523D01*
X0022749Y0171996D02*
X0022749Y0172997D01*
X0021999Y0172746D02*
X0022749Y0171996D01*
X0021999Y0172746D02*
X0023500Y0172746D01*
X0022600Y0167050D02*
X0022850Y0166800D01*
X0022850Y0166299D01*
X0022600Y0166049D01*
X0021599Y0167050D01*
X0022600Y0167050D01*
X0022600Y0166049D02*
X0021599Y0166049D01*
X0021349Y0166299D01*
X0021349Y0166800D01*
X0021599Y0167050D01*
X0021599Y0165577D02*
X0021349Y0165327D01*
X0021349Y0164826D01*
X0021599Y0164576D01*
X0021599Y0164104D02*
X0021349Y0163853D01*
X0021349Y0163353D01*
X0021599Y0163103D01*
X0021599Y0164104D02*
X0021849Y0164104D01*
X0022850Y0163103D01*
X0022850Y0164104D01*
X0022850Y0164576D02*
X0021849Y0165577D01*
X0021599Y0165577D01*
X0022850Y0165577D02*
X0022850Y0164576D01*
X0012850Y0164576D02*
X0011849Y0165577D01*
X0011599Y0165577D01*
X0011349Y0165327D01*
X0011349Y0164826D01*
X0011599Y0164576D01*
X0012600Y0164090D02*
X0012850Y0164090D01*
X0012850Y0163839D01*
X0012600Y0163839D01*
X0012600Y0164090D01*
X0012850Y0164576D02*
X0012850Y0165577D01*
X0012600Y0166049D02*
X0012850Y0166299D01*
X0012850Y0167050D01*
X0011849Y0167050D01*
X0011849Y0166049D02*
X0012600Y0166049D01*
X0012850Y0163367D02*
X0012850Y0162366D01*
X0011849Y0163367D01*
X0011599Y0163367D01*
X0011349Y0163117D01*
X0011349Y0162616D01*
X0011599Y0162366D01*
X0012249Y0170522D02*
X0013250Y0170522D01*
X0013500Y0170773D01*
X0013500Y0171273D01*
X0013250Y0171523D01*
X0013250Y0171996D02*
X0013500Y0172246D01*
X0013500Y0172746D01*
X0013250Y0172997D01*
X0012249Y0172997D01*
X0011999Y0172746D01*
X0011999Y0172246D01*
X0012249Y0171996D01*
X0012499Y0171996D01*
X0012749Y0172246D01*
X0012749Y0172997D01*
X0012249Y0171523D02*
X0011999Y0171273D01*
X0011999Y0170773D01*
X0012249Y0170522D01*
D13*
X0031800Y0093472D02*
X0071800Y0093472D01*
X0071800Y0073472D01*
X0041800Y0073472D01*
X0041800Y0083472D01*
X0031800Y0083472D01*
X0031800Y0093472D01*
X0031800Y0083472D02*
X0031800Y0073472D01*
X0041800Y0073472D01*
X0034713Y0035283D02*
X0025658Y0035283D01*
X0025658Y0028197D01*
X0025658Y0018748D02*
X0025658Y0015992D01*
X0048887Y0035283D02*
X0057942Y0035283D01*
X0057942Y0028197D01*
X0057942Y0018748D02*
X0057942Y0015992D01*
D14*
X0058302Y0097322D02*
X0056101Y0097322D01*
X0056101Y0100625D01*
X0054069Y0100625D02*
X0054069Y0097322D01*
X0054619Y0098974D02*
X0052417Y0098974D01*
X0054069Y0100625D01*
X0050936Y0100075D02*
X0050386Y0100625D01*
X0049285Y0100625D01*
X0048734Y0100075D01*
X0047253Y0100625D02*
X0045051Y0100625D01*
X0045051Y0097322D01*
X0043570Y0097322D02*
X0042469Y0098423D01*
X0043019Y0098423D02*
X0041368Y0098423D01*
X0041368Y0097322D02*
X0041368Y0100625D01*
X0043019Y0100625D01*
X0043570Y0100075D01*
X0043570Y0098974D01*
X0043019Y0098423D01*
X0045051Y0098974D02*
X0046152Y0098974D01*
X0048734Y0097322D02*
X0050936Y0099524D01*
X0050936Y0100075D01*
X0050936Y0097322D02*
X0048734Y0097322D01*
X0039887Y0097322D02*
X0039887Y0100625D01*
X0037685Y0100625D02*
X0037685Y0097322D01*
X0039887Y0097322D02*
X0037685Y0100625D01*
X0059784Y0100075D02*
X0059784Y0097873D01*
X0061986Y0100075D01*
X0061986Y0097873D01*
X0061435Y0097322D01*
X0060334Y0097322D01*
X0059784Y0097873D01*
X0059784Y0100075D02*
X0060334Y0100625D01*
X0061435Y0100625D01*
X0061986Y0100075D01*
X0063467Y0099524D02*
X0064568Y0100625D01*
X0064568Y0097322D01*
X0063467Y0097322D02*
X0065669Y0097322D01*
D15*
X0034050Y0099473D02*
X0033299Y0098722D01*
X0034050Y0099473D02*
X0034050Y0100974D01*
X0033299Y0101725D01*
X0032549Y0101725D01*
X0031798Y0100974D01*
X0031798Y0099473D01*
X0031047Y0098722D01*
X0030297Y0098722D01*
X0029546Y0099473D01*
X0029546Y0100974D01*
X0030297Y0101725D01*
X0029546Y0103326D02*
X0029546Y0105578D01*
X0030297Y0106329D01*
X0031798Y0106329D01*
X0032549Y0105578D01*
X0032549Y0103326D01*
X0034050Y0103326D02*
X0029546Y0103326D01*
X0029546Y0107930D02*
X0029546Y0109432D01*
X0029546Y0108681D02*
X0034050Y0108681D01*
X0034050Y0107930D02*
X0034050Y0109432D01*
X0034801Y0111000D02*
X0034801Y0114002D01*
X0034050Y0115603D02*
X0029546Y0115603D01*
X0029546Y0117855D01*
X0030297Y0118606D01*
X0031798Y0118606D01*
X0032549Y0117855D01*
X0032549Y0115603D01*
X0032549Y0120207D02*
X0032549Y0122459D01*
X0031798Y0123210D01*
X0030297Y0123210D01*
X0029546Y0122459D01*
X0029546Y0120207D01*
X0034050Y0120207D01*
X0032549Y0121709D02*
X0034050Y0123210D01*
X0033299Y0124811D02*
X0034050Y0125562D01*
X0034050Y0127063D01*
X0033299Y0127814D01*
X0030297Y0127814D01*
X0029546Y0127063D01*
X0029546Y0125562D01*
X0030297Y0124811D01*
X0033299Y0124811D01*
X0033299Y0129415D02*
X0030297Y0129415D01*
X0029546Y0130166D01*
X0029546Y0131667D01*
X0030297Y0132418D01*
X0031798Y0132418D02*
X0031798Y0130917D01*
X0031798Y0132418D02*
X0033299Y0132418D01*
X0034050Y0131667D01*
X0034050Y0130166D01*
X0033299Y0129415D01*
X0134546Y0054432D02*
X0139050Y0054432D01*
X0139050Y0055933D02*
X0139050Y0052930D01*
X0136798Y0051329D02*
X0137549Y0050578D01*
X0137549Y0048326D01*
X0139050Y0048326D02*
X0134546Y0048326D01*
X0134546Y0050578D01*
X0135297Y0051329D01*
X0136798Y0051329D01*
X0136047Y0052930D02*
X0134546Y0054432D01*
X0134546Y0046725D02*
X0134546Y0045224D01*
X0134546Y0045974D02*
X0138299Y0045974D01*
X0139050Y0045224D01*
X0139050Y0044473D01*
X0138299Y0043722D01*
M02*
