G75*
%MOIN*%
%OFA0B0*%
%FSLAX25Y25*%
%IPPOS*%
%LPD*%
%AMOC8*
5,1,8,0,0,1.08239X$1,22.5*
%
%ADD10C,0.07400*%
%ADD11C,0.05200*%
%ADD12R,0.06000X0.06000*%
%ADD13OC8,0.06000*%
%ADD14R,0.07400X0.07400*%
%ADD15OC8,0.07400*%
%ADD16R,0.04724X0.04724*%
%ADD17R,0.03150X0.04724*%
%ADD18R,0.09055X0.06299*%
%ADD19C,0.01600*%
%ADD20C,0.04356*%
%ADD21C,0.01000*%
%ADD22C,0.04000*%
%ADD23C,0.20000*%
D10*
X0026800Y0148472D03*
X0036800Y0148472D03*
X0046800Y0148472D03*
X0056800Y0148472D03*
X0066800Y0148472D03*
X0076800Y0148472D03*
X0061800Y0168472D03*
X0051800Y0168472D03*
X0041800Y0168472D03*
X0156800Y0153472D03*
X0156800Y0143472D03*
X0156800Y0128472D03*
X0156800Y0118472D03*
D11*
X0129400Y0113472D02*
X0124200Y0113472D01*
X0124200Y0103472D02*
X0129400Y0103472D01*
X0129400Y0093472D02*
X0124200Y0093472D01*
X0124200Y0083472D02*
X0129400Y0083472D01*
X0129400Y0073472D02*
X0124200Y0073472D01*
X0124200Y0063472D02*
X0129400Y0063472D01*
X0129400Y0053472D02*
X0124200Y0053472D01*
X0124200Y0043472D02*
X0129400Y0043472D01*
X0129400Y0033472D02*
X0124200Y0033472D01*
X0124200Y0023472D02*
X0129400Y0023472D01*
X0099400Y0023472D02*
X0094200Y0023472D01*
X0094200Y0033472D02*
X0099400Y0033472D01*
X0099400Y0043472D02*
X0094200Y0043472D01*
X0094200Y0053472D02*
X0099400Y0053472D01*
X0099400Y0063472D02*
X0094200Y0063472D01*
X0094200Y0073472D02*
X0099400Y0073472D01*
X0099400Y0083472D02*
X0094200Y0083472D01*
X0094200Y0093472D02*
X0099400Y0093472D01*
X0099400Y0103472D02*
X0094200Y0103472D01*
X0094200Y0113472D02*
X0099400Y0113472D01*
X0099400Y0123472D02*
X0094200Y0123472D01*
X0094200Y0133472D02*
X0099400Y0133472D01*
X0099400Y0143472D02*
X0094200Y0143472D01*
X0094200Y0153472D02*
X0099400Y0153472D01*
X0124200Y0153472D02*
X0129400Y0153472D01*
X0129400Y0143472D02*
X0124200Y0143472D01*
X0124200Y0133472D02*
X0129400Y0133472D01*
X0129400Y0123472D02*
X0124200Y0123472D01*
D12*
X0036800Y0078472D03*
D13*
X0036800Y0088472D03*
X0046800Y0088472D03*
X0046800Y0078472D03*
X0056800Y0078472D03*
X0056800Y0088472D03*
X0066800Y0088472D03*
X0066800Y0078472D03*
D14*
X0041800Y0113472D03*
D15*
X0041800Y0123472D03*
X0051800Y0123472D03*
X0051800Y0113472D03*
X0061800Y0113472D03*
X0061800Y0123472D03*
X0146800Y0098472D03*
X0146800Y0088472D03*
X0146800Y0078472D03*
X0156800Y0078472D03*
X0156800Y0088472D03*
X0156800Y0098472D03*
X0156800Y0068472D03*
X0156800Y0058472D03*
X0156800Y0048472D03*
X0146800Y0048472D03*
X0146800Y0058472D03*
X0146800Y0068472D03*
D16*
X0105934Y0165972D03*
X0105934Y0173472D03*
X0097666Y0173472D03*
X0097666Y0165972D03*
D17*
X0090343Y0165972D03*
X0083257Y0165972D03*
X0083257Y0173472D03*
X0090343Y0173472D03*
D18*
X0134398Y0173472D03*
X0159202Y0173472D03*
D19*
X0011600Y0178633D02*
X0011600Y0018272D01*
X0075280Y0018272D01*
X0028430Y0065122D01*
X0027200Y0066353D01*
X0027200Y0117603D01*
X0027200Y0119342D01*
X0028430Y0120572D01*
X0037205Y0120572D01*
X0036500Y0121277D01*
X0036500Y0125668D01*
X0039605Y0128772D01*
X0039700Y0128772D01*
X0039700Y0143937D01*
X0037854Y0143172D01*
X0035746Y0143172D01*
X0033798Y0143979D01*
X0032307Y0145470D01*
X0031915Y0146416D01*
X0031897Y0146361D01*
X0031504Y0145590D01*
X0030995Y0144889D01*
X0030383Y0144277D01*
X0029683Y0143768D01*
X0028911Y0143375D01*
X0028088Y0143108D01*
X0027233Y0142972D01*
X0027000Y0142972D01*
X0027000Y0148272D01*
X0026600Y0148272D01*
X0026600Y0142972D01*
X0026367Y0142972D01*
X0025512Y0143108D01*
X0024689Y0143375D01*
X0023917Y0143768D01*
X0023217Y0144277D01*
X0022605Y0144889D01*
X0022096Y0145590D01*
X0021703Y0146361D01*
X0021435Y0147185D01*
X0021300Y0148040D01*
X0021300Y0148272D01*
X0026600Y0148272D01*
X0026600Y0148672D01*
X0021300Y0148672D01*
X0021300Y0148905D01*
X0021435Y0149760D01*
X0021703Y0150584D01*
X0022096Y0151355D01*
X0022605Y0152055D01*
X0023217Y0152668D01*
X0023917Y0153176D01*
X0024689Y0153569D01*
X0025512Y0153837D01*
X0026367Y0153972D01*
X0026600Y0153972D01*
X0026600Y0148673D01*
X0027000Y0148673D01*
X0027000Y0153972D01*
X0027233Y0153972D01*
X0028088Y0153837D01*
X0028911Y0153569D01*
X0029683Y0153176D01*
X0030383Y0152668D01*
X0030995Y0152055D01*
X0031504Y0151355D01*
X0031897Y0150584D01*
X0031915Y0150528D01*
X0032307Y0151475D01*
X0033798Y0152966D01*
X0035746Y0153772D01*
X0037854Y0153772D01*
X0039802Y0152966D01*
X0041293Y0151475D01*
X0041667Y0150572D01*
X0041933Y0150572D01*
X0042307Y0151475D01*
X0043798Y0152966D01*
X0044700Y0153339D01*
X0044700Y0163937D01*
X0042854Y0163172D01*
X0040746Y0163172D01*
X0038798Y0163979D01*
X0037307Y0165470D01*
X0036500Y0167418D01*
X0036500Y0169527D01*
X0037307Y0171475D01*
X0038798Y0172966D01*
X0040746Y0173772D01*
X0042854Y0173772D01*
X0044700Y0173008D01*
X0044700Y0174342D01*
X0045930Y0175572D01*
X0045930Y0175572D01*
X0048991Y0178633D01*
X0011600Y0178633D01*
X0011600Y0178324D02*
X0048681Y0178324D01*
X0047083Y0176725D02*
X0011600Y0176725D01*
X0011600Y0175127D02*
X0045484Y0175127D01*
X0044700Y0173528D02*
X0043444Y0173528D01*
X0040156Y0173528D02*
X0011600Y0173528D01*
X0011600Y0171930D02*
X0037762Y0171930D01*
X0036833Y0170331D02*
X0011600Y0170331D01*
X0011600Y0168733D02*
X0036500Y0168733D01*
X0036618Y0167134D02*
X0011600Y0167134D01*
X0011600Y0165535D02*
X0037280Y0165535D01*
X0038900Y0163937D02*
X0011600Y0163937D01*
X0011600Y0162338D02*
X0044700Y0162338D01*
X0044700Y0160740D02*
X0011600Y0160740D01*
X0011600Y0159141D02*
X0044700Y0159141D01*
X0044700Y0157543D02*
X0011600Y0157543D01*
X0011600Y0155944D02*
X0044700Y0155944D01*
X0044700Y0154346D02*
X0011600Y0154346D01*
X0011600Y0152747D02*
X0023327Y0152747D01*
X0021991Y0151149D02*
X0011600Y0151149D01*
X0011600Y0149550D02*
X0021402Y0149550D01*
X0021314Y0147952D02*
X0011600Y0147952D01*
X0011600Y0146353D02*
X0021707Y0146353D01*
X0022739Y0144755D02*
X0011600Y0144755D01*
X0011600Y0143156D02*
X0025363Y0143156D01*
X0026600Y0143156D02*
X0027000Y0143156D01*
X0028237Y0143156D02*
X0039700Y0143156D01*
X0039700Y0141558D02*
X0011600Y0141558D01*
X0011600Y0139959D02*
X0039700Y0139959D01*
X0039700Y0138361D02*
X0011600Y0138361D01*
X0011600Y0136762D02*
X0039700Y0136762D01*
X0039700Y0135164D02*
X0011600Y0135164D01*
X0011600Y0133565D02*
X0039700Y0133565D01*
X0039700Y0131967D02*
X0011600Y0131967D01*
X0011600Y0130368D02*
X0039700Y0130368D01*
X0039602Y0128770D02*
X0011600Y0128770D01*
X0011600Y0127171D02*
X0038003Y0127171D01*
X0036500Y0125573D02*
X0011600Y0125573D01*
X0011600Y0123974D02*
X0036500Y0123974D01*
X0036500Y0122376D02*
X0011600Y0122376D01*
X0011600Y0120777D02*
X0037000Y0120777D01*
X0043900Y0128772D02*
X0043900Y0143937D01*
X0045746Y0143172D01*
X0047854Y0143172D01*
X0049802Y0143979D01*
X0050313Y0144490D01*
X0050930Y0143872D01*
X0058430Y0136372D01*
X0080930Y0136372D01*
X0091045Y0126257D01*
X0090639Y0125852D01*
X0090000Y0124308D01*
X0090000Y0122637D01*
X0090639Y0121093D01*
X0091821Y0119912D01*
X0093365Y0119272D01*
X0100235Y0119272D01*
X0101779Y0119912D01*
X0102200Y0120333D01*
X0102200Y0116612D01*
X0101779Y0117033D01*
X0100235Y0117672D01*
X0093365Y0117672D01*
X0091821Y0117033D01*
X0090639Y0115852D01*
X0090000Y0114308D01*
X0090000Y0112637D01*
X0090639Y0111093D01*
X0091821Y0109912D01*
X0093365Y0109272D01*
X0100235Y0109272D01*
X0101779Y0109912D01*
X0102961Y0111093D01*
X0103076Y0111372D01*
X0104700Y0111372D01*
X0104700Y0105572D01*
X0103076Y0105572D01*
X0102961Y0105852D01*
X0101779Y0107033D01*
X0100235Y0107672D01*
X0093365Y0107672D01*
X0091821Y0107033D01*
X0090639Y0105852D01*
X0090000Y0104308D01*
X0090000Y0102637D01*
X0090639Y0101093D01*
X0091160Y0100572D01*
X0066263Y0100572D01*
X0066650Y0101506D01*
X0066650Y0102939D01*
X0066102Y0104262D01*
X0065089Y0105274D01*
X0063766Y0105822D01*
X0062334Y0105822D01*
X0061011Y0105274D01*
X0060059Y0104322D01*
X0053920Y0104322D01*
X0050070Y0108172D01*
X0053995Y0108172D01*
X0056800Y0110977D01*
X0059605Y0108172D01*
X0063995Y0108172D01*
X0067100Y0111277D01*
X0067100Y0115668D01*
X0064437Y0118331D01*
X0067300Y0121194D01*
X0067300Y0123272D01*
X0062000Y0123272D01*
X0062000Y0123672D01*
X0067300Y0123672D01*
X0067300Y0125751D01*
X0064078Y0128972D01*
X0062000Y0128972D01*
X0062000Y0123673D01*
X0061600Y0123673D01*
X0061600Y0128972D01*
X0059522Y0128972D01*
X0056659Y0126109D01*
X0053995Y0128772D01*
X0049605Y0128772D01*
X0046800Y0125968D01*
X0043995Y0128772D01*
X0043900Y0128772D01*
X0043998Y0128770D02*
X0049602Y0128770D01*
X0048003Y0127171D02*
X0045597Y0127171D01*
X0043900Y0130368D02*
X0086934Y0130368D01*
X0085336Y0131967D02*
X0043900Y0131967D01*
X0043900Y0133565D02*
X0083737Y0133565D01*
X0082139Y0135164D02*
X0043900Y0135164D01*
X0043900Y0136762D02*
X0058040Y0136762D01*
X0056442Y0138361D02*
X0043900Y0138361D01*
X0043900Y0139959D02*
X0054843Y0139959D01*
X0053245Y0141558D02*
X0043900Y0141558D01*
X0043900Y0143156D02*
X0051646Y0143156D01*
X0049700Y0153008D02*
X0049700Y0157603D01*
X0049700Y0159342D01*
X0053647Y0163290D01*
X0053088Y0163108D01*
X0052233Y0162972D01*
X0052000Y0162972D01*
X0052000Y0168272D01*
X0051600Y0168272D01*
X0051600Y0162972D01*
X0051367Y0162972D01*
X0050512Y0163108D01*
X0049689Y0163375D01*
X0048917Y0163768D01*
X0048900Y0163781D01*
X0048900Y0153339D01*
X0049700Y0153008D01*
X0049700Y0154346D02*
X0048900Y0154346D01*
X0048900Y0155944D02*
X0049700Y0155944D01*
X0049700Y0157543D02*
X0048900Y0157543D01*
X0048900Y0159141D02*
X0049700Y0159141D01*
X0048900Y0160740D02*
X0051098Y0160740D01*
X0052696Y0162338D02*
X0048900Y0162338D01*
X0051600Y0163937D02*
X0052000Y0163937D01*
X0052000Y0165535D02*
X0051600Y0165535D01*
X0051600Y0167134D02*
X0052000Y0167134D01*
X0052000Y0168673D02*
X0051600Y0168673D01*
X0051600Y0173972D01*
X0051367Y0173972D01*
X0050512Y0173837D01*
X0049953Y0173655D01*
X0052670Y0176372D01*
X0079963Y0176372D01*
X0079882Y0176072D01*
X0079882Y0173472D01*
X0079882Y0170873D01*
X0080005Y0170415D01*
X0080242Y0170005D01*
X0080524Y0169722D01*
X0080242Y0169440D01*
X0080005Y0169029D01*
X0079882Y0168572D01*
X0079882Y0165972D01*
X0079882Y0163373D01*
X0080005Y0162915D01*
X0080242Y0162505D01*
X0080577Y0162170D01*
X0080987Y0161933D01*
X0081445Y0161810D01*
X0083257Y0161810D01*
X0085068Y0161810D01*
X0085526Y0161933D01*
X0085937Y0162170D01*
X0086272Y0162505D01*
X0086509Y0162915D01*
X0086631Y0163373D01*
X0086631Y0165972D01*
X0083257Y0165972D01*
X0083257Y0161810D01*
X0083257Y0165972D01*
X0083257Y0165972D01*
X0083257Y0165972D01*
X0086631Y0165972D01*
X0086631Y0168572D01*
X0086509Y0169029D01*
X0086272Y0169440D01*
X0085989Y0169722D01*
X0086272Y0170005D01*
X0086509Y0170415D01*
X0086631Y0170873D01*
X0086631Y0173472D01*
X0083257Y0173472D01*
X0083257Y0165973D01*
X0083257Y0165973D01*
X0083257Y0170135D01*
X0083257Y0173472D01*
X0083257Y0173472D01*
X0083257Y0173472D01*
X0086631Y0173472D01*
X0086631Y0176072D01*
X0086551Y0176372D01*
X0087169Y0176372D01*
X0087169Y0170447D01*
X0087894Y0169722D01*
X0087169Y0168997D01*
X0087169Y0162947D01*
X0088106Y0162010D01*
X0092581Y0162010D01*
X0093518Y0162947D01*
X0093518Y0163872D01*
X0093704Y0163872D01*
X0093704Y0162947D01*
X0094641Y0162010D01*
X0099700Y0162010D01*
X0099700Y0157672D01*
X0093365Y0157672D01*
X0091821Y0157033D01*
X0090639Y0155852D01*
X0090000Y0154308D01*
X0090000Y0152637D01*
X0090639Y0151093D01*
X0091821Y0149912D01*
X0093365Y0149272D01*
X0100235Y0149272D01*
X0101779Y0149912D01*
X0102200Y0150333D01*
X0102200Y0146612D01*
X0101779Y0147033D01*
X0100235Y0147672D01*
X0093365Y0147672D01*
X0091821Y0147033D01*
X0090639Y0145852D01*
X0090524Y0145572D01*
X0081335Y0145572D01*
X0082100Y0147418D01*
X0082100Y0149527D01*
X0081293Y0151475D01*
X0079802Y0152966D01*
X0077854Y0153772D01*
X0075746Y0153772D01*
X0073798Y0152966D01*
X0072307Y0151475D01*
X0071800Y0150251D01*
X0071293Y0151475D01*
X0069802Y0152966D01*
X0067854Y0153772D01*
X0065746Y0153772D01*
X0063798Y0152966D01*
X0062307Y0151475D01*
X0061800Y0150251D01*
X0061293Y0151475D01*
X0059802Y0152966D01*
X0057854Y0153772D01*
X0055746Y0153772D01*
X0053900Y0153008D01*
X0053900Y0157603D01*
X0059844Y0163546D01*
X0060746Y0163172D01*
X0062854Y0163172D01*
X0064802Y0163979D01*
X0066293Y0165470D01*
X0067100Y0167418D01*
X0067100Y0169527D01*
X0066293Y0171475D01*
X0064802Y0172966D01*
X0062854Y0173772D01*
X0060746Y0173772D01*
X0058798Y0172966D01*
X0057307Y0171475D01*
X0056915Y0170528D01*
X0056897Y0170584D01*
X0056504Y0171355D01*
X0055995Y0172055D01*
X0055383Y0172668D01*
X0054683Y0173176D01*
X0053911Y0173569D01*
X0053088Y0173837D01*
X0052233Y0173972D01*
X0052000Y0173972D01*
X0052000Y0168673D01*
X0052000Y0168733D02*
X0051600Y0168733D01*
X0051600Y0170331D02*
X0052000Y0170331D01*
X0052000Y0171930D02*
X0051600Y0171930D01*
X0051600Y0173528D02*
X0052000Y0173528D01*
X0051424Y0175127D02*
X0079882Y0175127D01*
X0079882Y0173528D02*
X0063444Y0173528D01*
X0065838Y0171930D02*
X0079882Y0171930D01*
X0079882Y0173472D02*
X0083257Y0173472D01*
X0083257Y0173472D01*
X0079882Y0173472D01*
X0080053Y0170331D02*
X0066767Y0170331D01*
X0067100Y0168733D02*
X0079925Y0168733D01*
X0079882Y0167134D02*
X0066982Y0167134D01*
X0066320Y0165535D02*
X0079882Y0165535D01*
X0079882Y0165972D02*
X0083257Y0165972D01*
X0083257Y0165972D01*
X0079882Y0165972D01*
X0079882Y0163937D02*
X0064700Y0163937D01*
X0058636Y0162338D02*
X0080408Y0162338D01*
X0083257Y0162338D02*
X0083257Y0162338D01*
X0083257Y0163937D02*
X0083257Y0163937D01*
X0083257Y0165535D02*
X0083257Y0165535D01*
X0083257Y0167134D02*
X0083257Y0167134D01*
X0083257Y0168733D02*
X0083257Y0168733D01*
X0083257Y0170331D02*
X0083257Y0170331D01*
X0083257Y0171930D02*
X0083257Y0171930D01*
X0086631Y0171930D02*
X0087169Y0171930D01*
X0087169Y0173528D02*
X0086631Y0173528D01*
X0086631Y0175127D02*
X0087169Y0175127D01*
X0087285Y0170331D02*
X0086460Y0170331D01*
X0086588Y0168733D02*
X0087169Y0168733D01*
X0087169Y0167134D02*
X0086631Y0167134D01*
X0086631Y0165535D02*
X0087169Y0165535D01*
X0087169Y0163937D02*
X0086631Y0163937D01*
X0086105Y0162338D02*
X0087778Y0162338D01*
X0092909Y0162338D02*
X0094313Y0162338D01*
X0093052Y0157543D02*
X0053900Y0157543D01*
X0053900Y0155944D02*
X0090732Y0155944D01*
X0090016Y0154346D02*
X0053900Y0154346D01*
X0055439Y0159141D02*
X0099700Y0159141D01*
X0099700Y0160740D02*
X0057037Y0160740D01*
X0060020Y0152747D02*
X0063580Y0152747D01*
X0062172Y0151149D02*
X0061428Y0151149D01*
X0070020Y0152747D02*
X0073580Y0152747D01*
X0072172Y0151149D02*
X0071428Y0151149D01*
X0080020Y0152747D02*
X0090000Y0152747D01*
X0090616Y0151149D02*
X0081428Y0151149D01*
X0082090Y0149550D02*
X0092694Y0149550D01*
X0091141Y0146353D02*
X0081659Y0146353D01*
X0082100Y0147952D02*
X0102200Y0147952D01*
X0102200Y0149550D02*
X0100906Y0149550D01*
X0108900Y0149550D02*
X0122694Y0149550D01*
X0123365Y0149272D02*
X0121821Y0149912D01*
X0120639Y0151093D01*
X0120000Y0152637D01*
X0120000Y0154308D01*
X0120639Y0155852D01*
X0121821Y0157033D01*
X0123365Y0157672D01*
X0130235Y0157672D01*
X0131779Y0157033D01*
X0132961Y0155852D01*
X0133600Y0154308D01*
X0133600Y0152637D01*
X0132961Y0151093D01*
X0132555Y0150688D01*
X0143920Y0139322D01*
X0145150Y0138092D01*
X0145150Y0121822D01*
X0147670Y0121822D01*
X0151500Y0117992D01*
X0151500Y0119527D01*
X0151874Y0120429D01*
X0150930Y0121372D01*
X0149700Y0122603D01*
X0149700Y0176372D01*
X0140526Y0176372D01*
X0140526Y0169660D01*
X0139589Y0168723D01*
X0129208Y0168723D01*
X0128271Y0169660D01*
X0128271Y0170122D01*
X0112670Y0170122D01*
X0111400Y0168853D01*
X0110170Y0167622D01*
X0109896Y0167622D01*
X0109896Y0162947D01*
X0108959Y0162010D01*
X0108900Y0162010D01*
X0108900Y0102603D01*
X0107670Y0101372D01*
X0103076Y0101372D01*
X0102961Y0101093D01*
X0102440Y0100572D01*
X0121160Y0100572D01*
X0120639Y0101093D01*
X0120000Y0102637D01*
X0120000Y0104308D01*
X0120639Y0105852D01*
X0121160Y0106372D01*
X0118430Y0106372D01*
X0117200Y0107603D01*
X0117200Y0136842D01*
X0118430Y0138072D01*
X0121045Y0140688D01*
X0120639Y0141093D01*
X0120000Y0142637D01*
X0120000Y0144308D01*
X0120639Y0145852D01*
X0121821Y0147033D01*
X0123365Y0147672D01*
X0129630Y0147672D01*
X0128030Y0149272D01*
X0123365Y0149272D01*
X0120616Y0151149D02*
X0108900Y0151149D01*
X0108900Y0152747D02*
X0120000Y0152747D01*
X0120016Y0154346D02*
X0108900Y0154346D01*
X0108900Y0155944D02*
X0120732Y0155944D01*
X0123052Y0157543D02*
X0108900Y0157543D01*
X0108900Y0159141D02*
X0149700Y0159141D01*
X0149700Y0157543D02*
X0130548Y0157543D01*
X0132868Y0155944D02*
X0149700Y0155944D01*
X0149700Y0154346D02*
X0133584Y0154346D01*
X0133600Y0152747D02*
X0149700Y0152747D01*
X0149700Y0151149D02*
X0132984Y0151149D01*
X0133692Y0149550D02*
X0149700Y0149550D01*
X0149700Y0147952D02*
X0135290Y0147952D01*
X0136889Y0146353D02*
X0149700Y0146353D01*
X0149700Y0144755D02*
X0138487Y0144755D01*
X0140086Y0143156D02*
X0149700Y0143156D01*
X0149700Y0141558D02*
X0141684Y0141558D01*
X0143283Y0139959D02*
X0149700Y0139959D01*
X0149700Y0138361D02*
X0144881Y0138361D01*
X0145150Y0136762D02*
X0149700Y0136762D01*
X0149700Y0135164D02*
X0145150Y0135164D01*
X0145150Y0133565D02*
X0149700Y0133565D01*
X0149700Y0131967D02*
X0145150Y0131967D01*
X0145150Y0130368D02*
X0149700Y0130368D01*
X0149700Y0128770D02*
X0145150Y0128770D01*
X0145150Y0127171D02*
X0149700Y0127171D01*
X0149700Y0125573D02*
X0145150Y0125573D01*
X0145150Y0123974D02*
X0149700Y0123974D01*
X0149927Y0122376D02*
X0145150Y0122376D01*
X0148715Y0120777D02*
X0151525Y0120777D01*
X0151500Y0119179D02*
X0150314Y0119179D01*
X0156320Y0113172D02*
X0157854Y0113172D01*
X0159802Y0113979D01*
X0161293Y0115470D01*
X0162100Y0117418D01*
X0162100Y0119527D01*
X0161293Y0121475D01*
X0159802Y0122966D01*
X0158856Y0123357D01*
X0158911Y0123375D01*
X0159683Y0123768D01*
X0160383Y0124277D01*
X0160995Y0124889D01*
X0161504Y0125590D01*
X0161897Y0126361D01*
X0162165Y0127185D01*
X0162300Y0128040D01*
X0162300Y0128272D01*
X0157000Y0128272D01*
X0157000Y0128672D01*
X0162300Y0128672D01*
X0162300Y0128905D01*
X0162165Y0129760D01*
X0161897Y0130584D01*
X0161504Y0131355D01*
X0160995Y0132055D01*
X0160383Y0132668D01*
X0159683Y0133176D01*
X0158911Y0133569D01*
X0158088Y0133837D01*
X0157233Y0133972D01*
X0157000Y0133972D01*
X0157000Y0128673D01*
X0156600Y0128673D01*
X0156600Y0133972D01*
X0156367Y0133972D01*
X0155512Y0133837D01*
X0154689Y0133569D01*
X0153917Y0133176D01*
X0153900Y0133164D01*
X0153900Y0138781D01*
X0153917Y0138768D01*
X0154689Y0138375D01*
X0155512Y0138108D01*
X0156367Y0137972D01*
X0156600Y0137972D01*
X0156600Y0143272D01*
X0157000Y0143272D01*
X0157000Y0137972D01*
X0157233Y0137972D01*
X0158088Y0138108D01*
X0158911Y0138375D01*
X0159683Y0138768D01*
X0160383Y0139277D01*
X0160995Y0139889D01*
X0161504Y0140590D01*
X0161897Y0141361D01*
X0162165Y0142185D01*
X0162300Y0143040D01*
X0162300Y0143272D01*
X0157000Y0143272D01*
X0157000Y0143672D01*
X0162300Y0143672D01*
X0162300Y0143905D01*
X0162165Y0144760D01*
X0161897Y0145584D01*
X0161504Y0146355D01*
X0160995Y0147055D01*
X0160383Y0147668D01*
X0159683Y0148176D01*
X0158911Y0148569D01*
X0158856Y0148587D01*
X0159802Y0148979D01*
X0161293Y0150470D01*
X0162100Y0152418D01*
X0162100Y0154527D01*
X0161293Y0156475D01*
X0159802Y0157966D01*
X0157854Y0158772D01*
X0155746Y0158772D01*
X0153900Y0158008D01*
X0153900Y0168834D01*
X0154011Y0168723D01*
X0164392Y0168723D01*
X0165329Y0169660D01*
X0165329Y0177285D01*
X0164392Y0178222D01*
X0154011Y0178222D01*
X0153900Y0178111D01*
X0153900Y0178633D01*
X0165701Y0178633D01*
X0165701Y0103791D01*
X0156320Y0113172D01*
X0156708Y0112785D02*
X0165701Y0112785D01*
X0165701Y0114383D02*
X0160206Y0114383D01*
X0161505Y0115982D02*
X0165701Y0115982D01*
X0165701Y0117580D02*
X0162100Y0117580D01*
X0162100Y0119179D02*
X0165701Y0119179D01*
X0165701Y0120777D02*
X0161582Y0120777D01*
X0160392Y0122376D02*
X0165701Y0122376D01*
X0165701Y0123974D02*
X0159966Y0123974D01*
X0161492Y0125573D02*
X0165701Y0125573D01*
X0165701Y0127171D02*
X0162160Y0127171D01*
X0162300Y0128770D02*
X0165701Y0128770D01*
X0165701Y0130368D02*
X0161967Y0130368D01*
X0161060Y0131967D02*
X0165701Y0131967D01*
X0165701Y0133565D02*
X0158920Y0133565D01*
X0157000Y0133565D02*
X0156600Y0133565D01*
X0156600Y0131967D02*
X0157000Y0131967D01*
X0157000Y0130368D02*
X0156600Y0130368D01*
X0156600Y0128770D02*
X0157000Y0128770D01*
X0154680Y0133565D02*
X0153900Y0133565D01*
X0153900Y0135164D02*
X0165701Y0135164D01*
X0165701Y0136762D02*
X0153900Y0136762D01*
X0153900Y0138361D02*
X0154734Y0138361D01*
X0156600Y0138361D02*
X0157000Y0138361D01*
X0157000Y0139959D02*
X0156600Y0139959D01*
X0156600Y0141558D02*
X0157000Y0141558D01*
X0157000Y0143156D02*
X0156600Y0143156D01*
X0159992Y0147952D02*
X0165701Y0147952D01*
X0165701Y0149550D02*
X0160373Y0149550D01*
X0161574Y0151149D02*
X0165701Y0151149D01*
X0165701Y0152747D02*
X0162100Y0152747D01*
X0162100Y0154346D02*
X0165701Y0154346D01*
X0165701Y0155944D02*
X0161513Y0155944D01*
X0160225Y0157543D02*
X0165701Y0157543D01*
X0165701Y0159141D02*
X0153900Y0159141D01*
X0153900Y0160740D02*
X0165701Y0160740D01*
X0165701Y0162338D02*
X0153900Y0162338D01*
X0153900Y0163937D02*
X0165701Y0163937D01*
X0165701Y0165535D02*
X0153900Y0165535D01*
X0153900Y0167134D02*
X0165701Y0167134D01*
X0165701Y0168733D02*
X0164402Y0168733D01*
X0165329Y0170331D02*
X0165701Y0170331D01*
X0165701Y0171930D02*
X0165329Y0171930D01*
X0165329Y0173528D02*
X0165701Y0173528D01*
X0165701Y0175127D02*
X0165329Y0175127D01*
X0165329Y0176725D02*
X0165701Y0176725D01*
X0165701Y0178324D02*
X0153900Y0178324D01*
X0149700Y0175127D02*
X0140526Y0175127D01*
X0140526Y0173528D02*
X0149700Y0173528D01*
X0149700Y0171930D02*
X0140526Y0171930D01*
X0140526Y0170331D02*
X0149700Y0170331D01*
X0149700Y0168733D02*
X0139598Y0168733D01*
X0149700Y0167134D02*
X0109896Y0167134D01*
X0109896Y0165535D02*
X0149700Y0165535D01*
X0149700Y0163937D02*
X0109896Y0163937D01*
X0109287Y0162338D02*
X0149700Y0162338D01*
X0149700Y0160740D02*
X0108900Y0160740D01*
X0111280Y0168733D02*
X0129198Y0168733D01*
X0129351Y0147952D02*
X0108900Y0147952D01*
X0108900Y0146353D02*
X0121141Y0146353D01*
X0120185Y0144755D02*
X0108900Y0144755D01*
X0108900Y0143156D02*
X0120000Y0143156D01*
X0120447Y0141558D02*
X0108900Y0141558D01*
X0108900Y0139959D02*
X0120317Y0139959D01*
X0118719Y0138361D02*
X0108900Y0138361D01*
X0108900Y0136762D02*
X0117200Y0136762D01*
X0117200Y0135164D02*
X0108900Y0135164D01*
X0108900Y0133565D02*
X0117200Y0133565D01*
X0117200Y0131967D02*
X0108900Y0131967D01*
X0108900Y0130368D02*
X0117200Y0130368D01*
X0117200Y0128770D02*
X0108900Y0128770D01*
X0108900Y0127171D02*
X0117200Y0127171D01*
X0117200Y0125573D02*
X0108900Y0125573D01*
X0108900Y0123974D02*
X0117200Y0123974D01*
X0117200Y0122376D02*
X0108900Y0122376D01*
X0108900Y0120777D02*
X0117200Y0120777D01*
X0117200Y0119179D02*
X0108900Y0119179D01*
X0108900Y0117580D02*
X0117200Y0117580D01*
X0117200Y0115982D02*
X0108900Y0115982D01*
X0108900Y0114383D02*
X0117200Y0114383D01*
X0117200Y0112785D02*
X0108900Y0112785D01*
X0108900Y0111186D02*
X0117200Y0111186D01*
X0117200Y0109588D02*
X0108900Y0109588D01*
X0108900Y0107989D02*
X0117200Y0107989D01*
X0118412Y0106391D02*
X0108900Y0106391D01*
X0108900Y0104792D02*
X0120201Y0104792D01*
X0120000Y0103194D02*
X0108900Y0103194D01*
X0107892Y0101595D02*
X0120432Y0101595D01*
X0120877Y0096372D02*
X0120844Y0096339D01*
X0120437Y0095779D01*
X0120122Y0095161D01*
X0119908Y0094503D01*
X0119800Y0093819D01*
X0119800Y0093472D01*
X0119800Y0093126D01*
X0119908Y0092442D01*
X0120122Y0091783D01*
X0120437Y0091166D01*
X0120844Y0090606D01*
X0121334Y0090116D01*
X0121894Y0089709D01*
X0122511Y0089395D01*
X0123170Y0089181D01*
X0123854Y0089072D01*
X0126800Y0089072D01*
X0129746Y0089072D01*
X0130430Y0089181D01*
X0131089Y0089395D01*
X0131706Y0089709D01*
X0132266Y0090116D01*
X0132756Y0090606D01*
X0133163Y0091166D01*
X0133478Y0091783D01*
X0133692Y0092442D01*
X0133800Y0093126D01*
X0133800Y0093472D01*
X0126800Y0093472D01*
X0126800Y0089072D01*
X0126800Y0093472D01*
X0126800Y0093472D01*
X0119800Y0093472D01*
X0126800Y0093472D01*
X0126800Y0093472D01*
X0126800Y0093472D01*
X0133800Y0093472D01*
X0133800Y0093819D01*
X0133692Y0094503D01*
X0133478Y0095161D01*
X0133163Y0095779D01*
X0132756Y0096339D01*
X0132723Y0096372D01*
X0141500Y0096372D01*
X0141500Y0096277D01*
X0142817Y0094960D01*
X0140930Y0093072D01*
X0139700Y0091842D01*
X0139700Y0082603D01*
X0140930Y0081372D01*
X0142205Y0081372D01*
X0141500Y0080668D01*
X0141500Y0076277D01*
X0142205Y0075572D01*
X0133076Y0075572D01*
X0132961Y0075852D01*
X0131779Y0077033D01*
X0130235Y0077672D01*
X0125570Y0077672D01*
X0123970Y0079272D01*
X0130235Y0079272D01*
X0131779Y0079912D01*
X0132961Y0081093D01*
X0133600Y0082637D01*
X0133600Y0084308D01*
X0132961Y0085852D01*
X0131779Y0087033D01*
X0130235Y0087672D01*
X0123365Y0087672D01*
X0121821Y0087033D01*
X0120639Y0085852D01*
X0120000Y0084308D01*
X0120000Y0083242D01*
X0108900Y0094342D01*
X0107670Y0095572D01*
X0103076Y0095572D01*
X0102961Y0095852D01*
X0102440Y0096372D01*
X0120877Y0096372D01*
X0120143Y0095201D02*
X0108041Y0095201D01*
X0109640Y0093602D02*
X0119800Y0093602D01*
X0120051Y0092004D02*
X0111238Y0092004D01*
X0112837Y0090405D02*
X0121044Y0090405D01*
X0122244Y0087208D02*
X0116034Y0087208D01*
X0117632Y0085610D02*
X0120539Y0085610D01*
X0120000Y0084011D02*
X0119231Y0084011D01*
X0116488Y0080814D02*
X0102907Y0080814D01*
X0102756Y0080606D02*
X0103163Y0081166D01*
X0103478Y0081783D01*
X0103692Y0082442D01*
X0103800Y0083126D01*
X0103800Y0083472D01*
X0096800Y0083472D01*
X0096800Y0079072D01*
X0099746Y0079072D01*
X0100430Y0079181D01*
X0101089Y0079395D01*
X0101706Y0079709D01*
X0102266Y0080116D01*
X0102756Y0080606D01*
X0103682Y0082413D02*
X0114890Y0082413D01*
X0113291Y0084011D02*
X0103769Y0084011D01*
X0103800Y0083819D02*
X0103692Y0084503D01*
X0103478Y0085161D01*
X0103163Y0085779D01*
X0102756Y0086339D01*
X0102266Y0086829D01*
X0101706Y0087236D01*
X0101089Y0087550D01*
X0100430Y0087764D01*
X0099746Y0087872D01*
X0096800Y0087872D01*
X0093854Y0087872D01*
X0093170Y0087764D01*
X0092511Y0087550D01*
X0091894Y0087236D01*
X0091334Y0086829D01*
X0090844Y0086339D01*
X0090437Y0085779D01*
X0090122Y0085161D01*
X0089908Y0084503D01*
X0089800Y0083819D01*
X0089800Y0083472D01*
X0089800Y0083126D01*
X0089908Y0082442D01*
X0090122Y0081783D01*
X0090437Y0081166D01*
X0090844Y0080606D01*
X0091334Y0080116D01*
X0091894Y0079709D01*
X0092511Y0079395D01*
X0093170Y0079181D01*
X0093854Y0079072D01*
X0096800Y0079072D01*
X0096800Y0083472D01*
X0096800Y0083472D01*
X0089800Y0083472D01*
X0096800Y0083472D01*
X0096800Y0083472D01*
X0096800Y0083472D01*
X0103800Y0083472D01*
X0103800Y0083819D01*
X0103249Y0085610D02*
X0111693Y0085610D01*
X0110094Y0087208D02*
X0101744Y0087208D01*
X0100235Y0089272D02*
X0101779Y0089912D01*
X0102961Y0091093D01*
X0103076Y0091372D01*
X0105930Y0091372D01*
X0121045Y0076257D01*
X0120639Y0075852D01*
X0120000Y0074308D01*
X0120000Y0072637D01*
X0120639Y0071093D01*
X0121160Y0070572D01*
X0119791Y0070572D01*
X0118839Y0071524D01*
X0117516Y0072072D01*
X0116084Y0072072D01*
X0114761Y0071524D01*
X0113748Y0070512D01*
X0113450Y0069792D01*
X0112670Y0070572D01*
X0102440Y0070572D01*
X0102961Y0071093D01*
X0103600Y0072637D01*
X0103600Y0074308D01*
X0102961Y0075852D01*
X0101779Y0077033D01*
X0100235Y0077672D01*
X0093365Y0077672D01*
X0091821Y0077033D01*
X0090639Y0075852D01*
X0090000Y0074308D01*
X0090000Y0072637D01*
X0090639Y0071093D01*
X0091160Y0070572D01*
X0086420Y0070572D01*
X0082650Y0074342D01*
X0081420Y0075572D01*
X0070405Y0075572D01*
X0071400Y0076567D01*
X0071400Y0080378D01*
X0068705Y0083072D01*
X0064895Y0083072D01*
X0062200Y0080378D01*
X0062200Y0079792D01*
X0061420Y0080572D01*
X0061205Y0080572D01*
X0058705Y0083072D01*
X0054895Y0083072D01*
X0052200Y0080378D01*
X0052200Y0076567D01*
X0054895Y0073872D01*
X0058705Y0073872D01*
X0060443Y0075610D01*
X0061730Y0074322D01*
X0061011Y0074024D01*
X0059998Y0073012D01*
X0059450Y0071689D01*
X0059450Y0070256D01*
X0059998Y0068933D01*
X0061011Y0067921D01*
X0062334Y0067372D01*
X0063766Y0067372D01*
X0065089Y0067921D01*
X0066041Y0068872D01*
X0078430Y0068872D01*
X0090930Y0056372D01*
X0091160Y0056372D01*
X0090639Y0055852D01*
X0090000Y0054308D01*
X0090000Y0052637D01*
X0090639Y0051093D01*
X0091821Y0049912D01*
X0093365Y0049272D01*
X0098030Y0049272D01*
X0099630Y0047672D01*
X0093365Y0047672D01*
X0091821Y0047033D01*
X0090639Y0045852D01*
X0090000Y0044308D01*
X0090000Y0042637D01*
X0090639Y0041093D01*
X0091160Y0040572D01*
X0087670Y0040572D01*
X0051400Y0076842D01*
X0051400Y0080378D01*
X0048705Y0083072D01*
X0044895Y0083072D01*
X0043900Y0082078D01*
X0043900Y0084867D01*
X0044895Y0083872D01*
X0048705Y0083872D01*
X0051400Y0086567D01*
X0051400Y0090378D01*
X0048705Y0093072D01*
X0044895Y0093072D01*
X0042395Y0090572D01*
X0041870Y0090572D01*
X0047670Y0096372D01*
X0091160Y0096372D01*
X0090639Y0095852D01*
X0090000Y0094308D01*
X0090000Y0092637D01*
X0090639Y0091093D01*
X0091821Y0089912D01*
X0093365Y0089272D01*
X0100235Y0089272D01*
X0102273Y0090405D02*
X0106897Y0090405D01*
X0108496Y0088807D02*
X0071400Y0088807D01*
X0071400Y0090378D02*
X0071400Y0086567D01*
X0068705Y0083872D01*
X0064895Y0083872D01*
X0062200Y0086567D01*
X0062200Y0090378D01*
X0064895Y0093072D01*
X0068705Y0093072D01*
X0071400Y0090378D01*
X0071372Y0090405D02*
X0091327Y0090405D01*
X0090262Y0092004D02*
X0069774Y0092004D01*
X0071400Y0087208D02*
X0091856Y0087208D01*
X0090351Y0085610D02*
X0070443Y0085610D01*
X0068844Y0084011D02*
X0089831Y0084011D01*
X0089918Y0082413D02*
X0069365Y0082413D01*
X0070963Y0080814D02*
X0090692Y0080814D01*
X0093062Y0079216D02*
X0071400Y0079216D01*
X0071400Y0077617D02*
X0093232Y0077617D01*
X0090807Y0076019D02*
X0070852Y0076019D01*
X0064235Y0082413D02*
X0059365Y0082413D01*
X0058705Y0083872D02*
X0061400Y0086567D01*
X0061400Y0090378D01*
X0058705Y0093072D01*
X0054895Y0093072D01*
X0052200Y0090378D01*
X0052200Y0086567D01*
X0054895Y0083872D01*
X0058705Y0083872D01*
X0058844Y0084011D02*
X0064756Y0084011D01*
X0063157Y0085610D02*
X0060443Y0085610D01*
X0061400Y0087208D02*
X0062200Y0087208D01*
X0062200Y0088807D02*
X0061400Y0088807D01*
X0061372Y0090405D02*
X0062228Y0090405D01*
X0063826Y0092004D02*
X0059774Y0092004D01*
X0053826Y0092004D02*
X0049774Y0092004D01*
X0051372Y0090405D02*
X0052228Y0090405D01*
X0052200Y0088807D02*
X0051400Y0088807D01*
X0051400Y0087208D02*
X0052200Y0087208D01*
X0053157Y0085610D02*
X0050443Y0085610D01*
X0048844Y0084011D02*
X0054756Y0084011D01*
X0054235Y0082413D02*
X0049365Y0082413D01*
X0050963Y0080814D02*
X0052637Y0080814D01*
X0052200Y0079216D02*
X0051400Y0079216D01*
X0051400Y0077617D02*
X0052200Y0077617D01*
X0052223Y0076019D02*
X0052748Y0076019D01*
X0053822Y0074420D02*
X0054347Y0074420D01*
X0055420Y0072822D02*
X0059919Y0072822D01*
X0059450Y0071223D02*
X0057019Y0071223D01*
X0058617Y0069625D02*
X0059712Y0069625D01*
X0060216Y0068026D02*
X0060905Y0068026D01*
X0061814Y0066428D02*
X0080875Y0066428D01*
X0079276Y0068026D02*
X0065195Y0068026D01*
X0063413Y0064829D02*
X0082473Y0064829D01*
X0084072Y0063231D02*
X0065012Y0063231D01*
X0066610Y0061632D02*
X0085670Y0061632D01*
X0087269Y0060034D02*
X0068209Y0060034D01*
X0069807Y0058435D02*
X0088867Y0058435D01*
X0090466Y0056837D02*
X0071406Y0056837D01*
X0073004Y0055238D02*
X0090385Y0055238D01*
X0090000Y0053640D02*
X0074603Y0053640D01*
X0076201Y0052041D02*
X0090247Y0052041D01*
X0091290Y0050443D02*
X0077800Y0050443D01*
X0079398Y0048844D02*
X0098458Y0048844D01*
X0092334Y0047246D02*
X0080997Y0047246D01*
X0082595Y0045647D02*
X0090555Y0045647D01*
X0090000Y0044049D02*
X0084194Y0044049D01*
X0085792Y0042450D02*
X0090077Y0042450D01*
X0090881Y0040852D02*
X0087391Y0040852D01*
X0081595Y0034458D02*
X0065035Y0034458D01*
X0064370Y0035123D02*
X0065089Y0035421D01*
X0066102Y0036433D01*
X0066650Y0037756D01*
X0066650Y0039189D01*
X0066102Y0040512D01*
X0065089Y0041524D01*
X0063766Y0042072D01*
X0062420Y0042072D01*
X0033900Y0070592D01*
X0033900Y0073672D01*
X0036600Y0073672D01*
X0036600Y0078272D01*
X0037000Y0078272D01*
X0037000Y0073672D01*
X0040037Y0073672D01*
X0040495Y0073795D01*
X0040905Y0074032D01*
X0041240Y0074367D01*
X0041403Y0074649D01*
X0082180Y0033872D01*
X0090000Y0033872D01*
X0090000Y0032637D01*
X0090639Y0031093D01*
X0091821Y0029912D01*
X0093365Y0029272D01*
X0099630Y0029272D01*
X0098030Y0027672D01*
X0093365Y0027672D01*
X0091821Y0027033D01*
X0090639Y0025852D01*
X0090000Y0024308D01*
X0090000Y0022637D01*
X0090639Y0021093D01*
X0091160Y0020572D01*
X0078920Y0020572D01*
X0064370Y0035123D01*
X0065725Y0036056D02*
X0079997Y0036056D01*
X0078398Y0037655D02*
X0066608Y0037655D01*
X0066623Y0039253D02*
X0076799Y0039253D01*
X0075201Y0040852D02*
X0065762Y0040852D01*
X0062042Y0042450D02*
X0073602Y0042450D01*
X0072004Y0044049D02*
X0060444Y0044049D01*
X0058845Y0045647D02*
X0070405Y0045647D01*
X0068807Y0047246D02*
X0057247Y0047246D01*
X0055648Y0048844D02*
X0067208Y0048844D01*
X0065610Y0050443D02*
X0054050Y0050443D01*
X0052451Y0052041D02*
X0064011Y0052041D01*
X0062413Y0053640D02*
X0050853Y0053640D01*
X0049254Y0055238D02*
X0060814Y0055238D01*
X0059216Y0056837D02*
X0047656Y0056837D01*
X0046057Y0058435D02*
X0057617Y0058435D01*
X0056019Y0060034D02*
X0044459Y0060034D01*
X0042860Y0061632D02*
X0054420Y0061632D01*
X0052822Y0063231D02*
X0041262Y0063231D01*
X0039663Y0064829D02*
X0051223Y0064829D01*
X0049625Y0066428D02*
X0038064Y0066428D01*
X0036466Y0068026D02*
X0048026Y0068026D01*
X0046428Y0069625D02*
X0034867Y0069625D01*
X0033900Y0071223D02*
X0044829Y0071223D01*
X0043231Y0072822D02*
X0033900Y0072822D01*
X0036600Y0074420D02*
X0037000Y0074420D01*
X0037000Y0076019D02*
X0036600Y0076019D01*
X0036600Y0077617D02*
X0037000Y0077617D01*
X0037000Y0078673D02*
X0036600Y0078673D01*
X0036600Y0083272D01*
X0033900Y0083272D01*
X0033900Y0084867D01*
X0034895Y0083872D01*
X0038705Y0083872D01*
X0039700Y0084867D01*
X0039700Y0083272D01*
X0037000Y0083272D01*
X0037000Y0078673D01*
X0037000Y0079216D02*
X0036600Y0079216D01*
X0036600Y0080814D02*
X0037000Y0080814D01*
X0037000Y0082413D02*
X0036600Y0082413D01*
X0034756Y0084011D02*
X0033900Y0084011D01*
X0038844Y0084011D02*
X0039700Y0084011D01*
X0043900Y0084011D02*
X0044756Y0084011D01*
X0044235Y0082413D02*
X0043900Y0082413D01*
X0041632Y0074420D02*
X0041271Y0074420D01*
X0030322Y0063231D02*
X0011600Y0063231D01*
X0011600Y0064829D02*
X0028723Y0064829D01*
X0027200Y0066428D02*
X0011600Y0066428D01*
X0011600Y0068026D02*
X0027200Y0068026D01*
X0027200Y0069625D02*
X0011600Y0069625D01*
X0011600Y0071223D02*
X0027200Y0071223D01*
X0027200Y0072822D02*
X0011600Y0072822D01*
X0011600Y0074420D02*
X0027200Y0074420D01*
X0027200Y0076019D02*
X0011600Y0076019D01*
X0011600Y0077617D02*
X0027200Y0077617D01*
X0027200Y0079216D02*
X0011600Y0079216D01*
X0011600Y0080814D02*
X0027200Y0080814D01*
X0027200Y0082413D02*
X0011600Y0082413D01*
X0011600Y0084011D02*
X0027200Y0084011D01*
X0027200Y0085610D02*
X0011600Y0085610D01*
X0011600Y0087208D02*
X0027200Y0087208D01*
X0027200Y0088807D02*
X0011600Y0088807D01*
X0011600Y0090405D02*
X0027200Y0090405D01*
X0027200Y0092004D02*
X0011600Y0092004D01*
X0011600Y0093602D02*
X0027200Y0093602D01*
X0027200Y0095201D02*
X0011600Y0095201D01*
X0011600Y0096799D02*
X0027200Y0096799D01*
X0027200Y0098398D02*
X0011600Y0098398D01*
X0011600Y0099997D02*
X0027200Y0099997D01*
X0027200Y0101595D02*
X0011600Y0101595D01*
X0011600Y0103194D02*
X0027200Y0103194D01*
X0027200Y0104792D02*
X0011600Y0104792D01*
X0011600Y0106391D02*
X0027200Y0106391D01*
X0027200Y0107989D02*
X0011600Y0107989D01*
X0011600Y0109588D02*
X0027200Y0109588D01*
X0027200Y0111186D02*
X0011600Y0111186D01*
X0011600Y0112785D02*
X0027200Y0112785D01*
X0027200Y0114383D02*
X0011600Y0114383D01*
X0011600Y0115982D02*
X0027200Y0115982D01*
X0027200Y0117580D02*
X0011600Y0117580D01*
X0011600Y0119179D02*
X0027200Y0119179D01*
X0046498Y0095201D02*
X0090370Y0095201D01*
X0090000Y0093602D02*
X0044900Y0093602D01*
X0043826Y0092004D02*
X0043301Y0092004D01*
X0053450Y0104792D02*
X0060528Y0104792D01*
X0058190Y0109588D02*
X0055410Y0109588D01*
X0051852Y0106391D02*
X0091178Y0106391D01*
X0090201Y0104792D02*
X0065572Y0104792D01*
X0066544Y0103194D02*
X0090000Y0103194D01*
X0090432Y0101595D02*
X0066650Y0101595D01*
X0065410Y0109588D02*
X0092604Y0109588D01*
X0090601Y0111186D02*
X0067009Y0111186D01*
X0067100Y0112785D02*
X0090000Y0112785D01*
X0090031Y0114383D02*
X0067100Y0114383D01*
X0066786Y0115982D02*
X0090770Y0115982D01*
X0093142Y0117580D02*
X0065188Y0117580D01*
X0065284Y0119179D02*
X0102200Y0119179D01*
X0102200Y0117580D02*
X0100458Y0117580D01*
X0102999Y0111186D02*
X0104700Y0111186D01*
X0104700Y0109588D02*
X0100996Y0109588D01*
X0102422Y0106391D02*
X0104700Y0106391D01*
X0104700Y0107989D02*
X0050253Y0107989D01*
X0061600Y0123974D02*
X0062000Y0123974D01*
X0062000Y0125573D02*
X0061600Y0125573D01*
X0061600Y0127171D02*
X0062000Y0127171D01*
X0062000Y0128770D02*
X0061600Y0128770D01*
X0059319Y0128770D02*
X0053998Y0128770D01*
X0055597Y0127171D02*
X0057721Y0127171D01*
X0064281Y0128770D02*
X0088533Y0128770D01*
X0090131Y0127171D02*
X0065879Y0127171D01*
X0067300Y0125573D02*
X0090524Y0125573D01*
X0090000Y0123974D02*
X0067300Y0123974D01*
X0067300Y0122376D02*
X0090108Y0122376D01*
X0090956Y0120777D02*
X0066883Y0120777D01*
X0042172Y0151149D02*
X0041428Y0151149D01*
X0040020Y0152747D02*
X0043580Y0152747D01*
X0033580Y0152747D02*
X0030273Y0152747D01*
X0031609Y0151149D02*
X0032172Y0151149D01*
X0031941Y0146353D02*
X0031893Y0146353D01*
X0030861Y0144755D02*
X0033022Y0144755D01*
X0027000Y0144755D02*
X0026600Y0144755D01*
X0026600Y0146353D02*
X0027000Y0146353D01*
X0027000Y0147952D02*
X0026600Y0147952D01*
X0026600Y0149550D02*
X0027000Y0149550D01*
X0027000Y0151149D02*
X0026600Y0151149D01*
X0026600Y0152747D02*
X0027000Y0152747D01*
X0044700Y0163937D02*
X0044700Y0163937D01*
X0053993Y0173528D02*
X0060156Y0173528D01*
X0057762Y0171930D02*
X0056087Y0171930D01*
X0126800Y0092004D02*
X0126800Y0092004D01*
X0126800Y0090405D02*
X0126800Y0090405D01*
X0131356Y0087208D02*
X0139700Y0087208D01*
X0139700Y0085610D02*
X0133061Y0085610D01*
X0133600Y0084011D02*
X0139700Y0084011D01*
X0139890Y0082413D02*
X0133507Y0082413D01*
X0132682Y0080814D02*
X0141647Y0080814D01*
X0141500Y0079216D02*
X0124026Y0079216D01*
X0120807Y0076019D02*
X0102793Y0076019D01*
X0103553Y0074420D02*
X0120047Y0074420D01*
X0120000Y0072822D02*
X0103600Y0072822D01*
X0103014Y0071223D02*
X0114460Y0071223D01*
X0119140Y0071223D02*
X0120586Y0071223D01*
X0119685Y0077617D02*
X0100368Y0077617D01*
X0100538Y0079216D02*
X0118087Y0079216D01*
X0114435Y0088807D02*
X0139700Y0088807D01*
X0139700Y0090405D02*
X0132556Y0090405D01*
X0133549Y0092004D02*
X0139862Y0092004D01*
X0141460Y0093602D02*
X0133800Y0093602D01*
X0133457Y0095201D02*
X0142576Y0095201D01*
X0158306Y0111186D02*
X0165701Y0111186D01*
X0165701Y0109588D02*
X0159905Y0109588D01*
X0161503Y0107989D02*
X0165701Y0107989D01*
X0165701Y0106391D02*
X0163102Y0106391D01*
X0164700Y0104792D02*
X0165701Y0104792D01*
X0141500Y0077617D02*
X0130368Y0077617D01*
X0132793Y0076019D02*
X0141758Y0076019D01*
X0165701Y0046903D02*
X0165701Y0035671D01*
X0163777Y0036782D01*
X0160827Y0037572D01*
X0157773Y0037572D01*
X0154823Y0036782D01*
X0152177Y0035255D01*
X0150018Y0033095D01*
X0148491Y0030450D01*
X0147700Y0027500D01*
X0147700Y0024445D01*
X0148491Y0021495D01*
X0150018Y0018850D01*
X0150595Y0018272D01*
X0104570Y0018272D01*
X0120000Y0033703D01*
X0120000Y0032637D01*
X0120639Y0031093D01*
X0121821Y0029912D01*
X0123365Y0029272D01*
X0130235Y0029272D01*
X0131779Y0029912D01*
X0132961Y0031093D01*
X0133600Y0032637D01*
X0133600Y0034308D01*
X0132961Y0035852D01*
X0132555Y0036257D01*
X0137670Y0041372D01*
X0160170Y0041372D01*
X0165170Y0046372D01*
X0165701Y0046903D01*
X0165701Y0045647D02*
X0164445Y0045647D01*
X0165701Y0044049D02*
X0162846Y0044049D01*
X0161248Y0042450D02*
X0165701Y0042450D01*
X0165701Y0040852D02*
X0137149Y0040852D01*
X0135550Y0039253D02*
X0165701Y0039253D01*
X0165701Y0037655D02*
X0133952Y0037655D01*
X0132756Y0036056D02*
X0153565Y0036056D01*
X0151380Y0034458D02*
X0133538Y0034458D01*
X0133600Y0032859D02*
X0149881Y0032859D01*
X0148959Y0031261D02*
X0133030Y0031261D01*
X0131176Y0029662D02*
X0148279Y0029662D01*
X0147851Y0028064D02*
X0114361Y0028064D01*
X0115959Y0029662D02*
X0122424Y0029662D01*
X0123365Y0027672D02*
X0121821Y0027033D01*
X0120639Y0025852D01*
X0120000Y0024308D01*
X0120000Y0022637D01*
X0120639Y0021093D01*
X0121821Y0019912D01*
X0123365Y0019272D01*
X0130235Y0019272D01*
X0131779Y0019912D01*
X0132961Y0021093D01*
X0133600Y0022637D01*
X0133600Y0024308D01*
X0132961Y0025852D01*
X0131779Y0027033D01*
X0130235Y0027672D01*
X0123365Y0027672D01*
X0121253Y0026465D02*
X0112762Y0026465D01*
X0111164Y0024866D02*
X0120231Y0024866D01*
X0120000Y0023268D02*
X0109565Y0023268D01*
X0107967Y0021669D02*
X0120401Y0021669D01*
X0121662Y0020071D02*
X0106368Y0020071D01*
X0104770Y0018472D02*
X0150395Y0018472D01*
X0149313Y0020071D02*
X0131938Y0020071D01*
X0133199Y0021669D02*
X0148444Y0021669D01*
X0148015Y0023268D02*
X0133600Y0023268D01*
X0133369Y0024866D02*
X0147700Y0024866D01*
X0147700Y0026465D02*
X0132347Y0026465D01*
X0120570Y0031261D02*
X0117558Y0031261D01*
X0119156Y0032859D02*
X0120000Y0032859D01*
X0098421Y0028064D02*
X0071429Y0028064D01*
X0069830Y0029662D02*
X0092424Y0029662D01*
X0090570Y0031261D02*
X0068232Y0031261D01*
X0066633Y0032859D02*
X0090000Y0032859D01*
X0091253Y0026465D02*
X0073027Y0026465D01*
X0074626Y0024866D02*
X0090231Y0024866D01*
X0090000Y0023268D02*
X0076224Y0023268D01*
X0077823Y0021669D02*
X0090401Y0021669D01*
X0075080Y0018472D02*
X0011600Y0018472D01*
X0011600Y0020071D02*
X0073482Y0020071D01*
X0071883Y0021669D02*
X0011600Y0021669D01*
X0011600Y0023268D02*
X0070285Y0023268D01*
X0068686Y0024866D02*
X0011600Y0024866D01*
X0011600Y0026465D02*
X0067088Y0026465D01*
X0065489Y0028064D02*
X0011600Y0028064D01*
X0011600Y0029662D02*
X0063891Y0029662D01*
X0062292Y0031261D02*
X0011600Y0031261D01*
X0011600Y0032859D02*
X0060694Y0032859D01*
X0059095Y0034458D02*
X0011600Y0034458D01*
X0011600Y0036056D02*
X0057497Y0036056D01*
X0055898Y0037655D02*
X0011600Y0037655D01*
X0011600Y0039253D02*
X0054299Y0039253D01*
X0052701Y0040852D02*
X0011600Y0040852D01*
X0011600Y0042450D02*
X0051102Y0042450D01*
X0049504Y0044049D02*
X0011600Y0044049D01*
X0011600Y0045647D02*
X0047905Y0045647D01*
X0046307Y0047246D02*
X0011600Y0047246D01*
X0011600Y0048844D02*
X0044708Y0048844D01*
X0043110Y0050443D02*
X0011600Y0050443D01*
X0011600Y0052041D02*
X0041511Y0052041D01*
X0039913Y0053640D02*
X0011600Y0053640D01*
X0011600Y0055238D02*
X0038314Y0055238D01*
X0036716Y0056837D02*
X0011600Y0056837D01*
X0011600Y0058435D02*
X0035117Y0058435D01*
X0033519Y0060034D02*
X0011600Y0060034D01*
X0011600Y0061632D02*
X0031920Y0061632D01*
X0059253Y0074420D02*
X0061632Y0074420D01*
X0060963Y0080814D02*
X0062637Y0080814D01*
X0082572Y0074420D02*
X0090047Y0074420D01*
X0090000Y0072822D02*
X0084170Y0072822D01*
X0085769Y0071223D02*
X0090586Y0071223D01*
X0096800Y0079216D02*
X0096800Y0079216D01*
X0096800Y0080814D02*
X0096800Y0080814D01*
X0096800Y0082413D02*
X0096800Y0082413D01*
X0096800Y0083473D02*
X0096800Y0087872D01*
X0096800Y0083473D01*
X0096800Y0083473D01*
X0096800Y0084011D02*
X0096800Y0084011D01*
X0096800Y0085610D02*
X0096800Y0085610D01*
X0096800Y0087208D02*
X0096800Y0087208D01*
X0158866Y0138361D02*
X0165701Y0138361D01*
X0165701Y0139959D02*
X0161046Y0139959D01*
X0161961Y0141558D02*
X0165701Y0141558D01*
X0165701Y0143156D02*
X0162300Y0143156D01*
X0162165Y0144755D02*
X0165701Y0144755D01*
X0165701Y0146353D02*
X0161505Y0146353D01*
X0154002Y0168733D02*
X0153900Y0168733D01*
X0165035Y0036056D02*
X0165701Y0036056D01*
D20*
X0141800Y0028472D03*
X0086800Y0158472D03*
X0126800Y0163472D03*
X0016800Y0128472D03*
D21*
X0029300Y0118472D02*
X0046800Y0118472D01*
X0051800Y0123472D01*
X0041800Y0123472D02*
X0041800Y0148472D01*
X0046800Y0148472D01*
X0046800Y0173472D01*
X0051800Y0178472D01*
X0100550Y0178472D01*
X0151800Y0178472D01*
X0151800Y0173472D01*
X0159202Y0173472D01*
X0151800Y0173472D02*
X0151800Y0153472D01*
X0156800Y0153472D01*
X0151800Y0153472D02*
X0151800Y0123472D01*
X0156800Y0118472D01*
X0151800Y0110972D02*
X0161800Y0100972D01*
X0161800Y0093472D01*
X0165550Y0088472D02*
X0156800Y0088472D01*
X0154300Y0083472D02*
X0149300Y0088472D01*
X0146800Y0088472D01*
X0141800Y0090972D02*
X0141800Y0083472D01*
X0150550Y0083472D01*
X0155550Y0078472D01*
X0156800Y0078472D01*
X0154300Y0083472D02*
X0164300Y0083472D01*
X0164300Y0048472D01*
X0159300Y0043472D01*
X0136800Y0043472D01*
X0126800Y0033472D01*
X0126800Y0043472D02*
X0101800Y0018472D01*
X0078050Y0018472D01*
X0029300Y0067222D01*
X0029300Y0118472D01*
X0041800Y0113472D02*
X0053050Y0102222D01*
X0063050Y0102222D01*
X0046800Y0098472D02*
X0036800Y0088472D01*
X0031800Y0088472D01*
X0031800Y0069722D01*
X0063050Y0038472D01*
X0083050Y0035972D02*
X0041800Y0077222D01*
X0041800Y0088472D01*
X0046800Y0088472D01*
X0046800Y0078472D02*
X0086800Y0038472D01*
X0104300Y0038472D01*
X0104300Y0030972D01*
X0096800Y0023472D01*
X0096800Y0033472D02*
X0094300Y0035972D01*
X0083050Y0035972D01*
X0096800Y0053472D02*
X0101800Y0048472D01*
X0136800Y0048472D01*
X0146800Y0058472D01*
X0151800Y0053472D02*
X0159300Y0053472D01*
X0161800Y0055972D01*
X0161800Y0073472D01*
X0126800Y0073472D01*
X0106800Y0093472D01*
X0096800Y0093472D01*
X0096800Y0103472D02*
X0106800Y0103472D01*
X0106800Y0165972D01*
X0105934Y0165972D01*
X0103050Y0169722D02*
X0101800Y0168472D01*
X0101800Y0157222D01*
X0104300Y0154722D01*
X0104300Y0113472D01*
X0096800Y0113472D01*
X0096800Y0123472D02*
X0081800Y0138472D01*
X0059300Y0138472D01*
X0051800Y0145972D01*
X0051800Y0158472D01*
X0061800Y0168472D01*
X0056800Y0148472D02*
X0064300Y0140972D01*
X0089300Y0140972D01*
X0096800Y0133472D01*
X0096800Y0143472D02*
X0071800Y0143472D01*
X0066800Y0148472D01*
X0090343Y0165972D02*
X0097666Y0165972D01*
X0103050Y0169722D02*
X0109300Y0169722D01*
X0111800Y0172222D01*
X0133050Y0172222D01*
X0134300Y0173472D01*
X0134398Y0173472D01*
X0126800Y0153472D02*
X0143050Y0137222D01*
X0143050Y0119722D01*
X0146800Y0119722D01*
X0165550Y0100972D01*
X0165550Y0088472D01*
X0151800Y0093472D02*
X0144300Y0093472D01*
X0141800Y0090972D01*
X0146800Y0098472D02*
X0046800Y0098472D01*
X0056800Y0078472D02*
X0060550Y0078472D01*
X0065550Y0073472D01*
X0080550Y0073472D01*
X0085550Y0068472D01*
X0111800Y0068472D01*
X0115550Y0064722D01*
X0125550Y0064722D01*
X0126800Y0063472D01*
X0121800Y0058472D02*
X0091800Y0058472D01*
X0079300Y0070972D01*
X0063050Y0070972D01*
X0116800Y0068472D02*
X0146800Y0068472D01*
X0151800Y0063472D02*
X0156800Y0068472D01*
X0151800Y0063472D02*
X0136800Y0063472D01*
X0135550Y0064722D01*
X0126800Y0053472D02*
X0121800Y0058472D01*
X0146800Y0048472D02*
X0151800Y0053472D01*
X0151800Y0093472D02*
X0151800Y0100972D01*
X0144300Y0108472D01*
X0119300Y0108472D01*
X0119300Y0135972D01*
X0126800Y0143472D01*
X0126800Y0123472D02*
X0139300Y0110972D01*
X0151800Y0110972D01*
X0105934Y0173472D02*
X0105550Y0173472D01*
X0100550Y0178472D01*
X0097666Y0173472D02*
X0090343Y0173472D01*
D22*
X0063050Y0102222D03*
X0063050Y0070972D03*
X0063050Y0038472D03*
X0116800Y0068472D03*
X0135550Y0064722D03*
X0161800Y0093472D03*
D23*
X0159300Y0025972D03*
M02*
