%
M48
M72
T01C0.02400
T02C0.02756
T03C0.03200
T04C0.04000
T05C0.11000
%
T01
X63050Y38472
X63050Y70972
X63050Y102222
X116800Y68472
X135550Y64722
X161800Y93472
T02
X141800Y28472
X86800Y158472
X126800Y163472
X16800Y128472
T03
X96800Y123472
X96800Y113472
X96800Y103472
X96800Y93472
X96800Y83472
X96800Y73472
X96800Y63472
X96800Y53472
X96800Y43472
X96800Y33472
X96800Y23472
X126800Y23472
X126800Y33472
X126800Y43472
X126800Y53472
X126800Y63472
X126800Y73472
X126800Y83472
X126800Y93472
X126800Y103472
X126800Y113472
X126800Y123472
X126800Y133472
X126800Y143472
X126800Y153472
X96800Y153472
X96800Y143472
X96800Y133472
T04
X76800Y148472
X66800Y148472
X56800Y148472
X46800Y148472
X36800Y148472
X26800Y148472
X41800Y168472
X51800Y168472
X61800Y168472
X61800Y123472
X61800Y113472
X51800Y113472
X51800Y123472
X41800Y123472
X41800Y113472
X36800Y88472
X36800Y78472
X46800Y78472
X56800Y78472
X56800Y88472
X46800Y88472
X66800Y88472
X66800Y78472
X146800Y78472
X156800Y78472
X156800Y88472
X146800Y88472
X146800Y98472
X156800Y98472
X156800Y118472
X156800Y128472
X156800Y143472
X156800Y153472
X156800Y68472
X156800Y58472
X156800Y48472
X146800Y48472
X146800Y58472
X146800Y68472
T05
X159300Y25972
M30
