G75*
%MOIN*%
%OFA0B0*%
%FSLAX25Y25*%
%IPPOS*%
%LPD*%
%AMOC8*
5,1,8,0,0,1.08239X$1,22.5*
%
%ADD10C,0.00000*%
%ADD11C,0.07400*%
%ADD12C,0.05200*%
%ADD13R,0.03150X0.04724*%
%ADD14R,0.04724X0.03150*%
%ADD15R,0.08800X0.04800*%
%ADD16R,0.08661X0.14173*%
%ADD17R,0.06000X0.06000*%
%ADD18OC8,0.06000*%
%ADD19R,0.07400X0.07400*%
%ADD20OC8,0.07400*%
%ADD21R,0.01575X0.05512*%
%ADD22R,0.07874X0.07480*%
%ADD23R,0.08661X0.07480*%
%ADD24C,0.01600*%
%ADD25C,0.04356*%
%ADD26C,0.01000*%
%ADD27C,0.04000*%
%ADD28C,0.20000*%
D10*
X0006800Y0013472D02*
X0006800Y0183433D01*
X0170501Y0183433D01*
X0170501Y0013472D01*
X0006800Y0013472D01*
D11*
X0026800Y0148472D03*
X0036800Y0148472D03*
X0046800Y0148472D03*
X0056800Y0148472D03*
X0066800Y0148472D03*
X0076800Y0148472D03*
X0061800Y0168472D03*
X0051800Y0168472D03*
X0041800Y0168472D03*
X0156800Y0153472D03*
X0156800Y0143472D03*
X0156800Y0128472D03*
X0156800Y0118472D03*
D12*
X0129400Y0113472D02*
X0124200Y0113472D01*
X0124200Y0103472D02*
X0129400Y0103472D01*
X0129400Y0093472D02*
X0124200Y0093472D01*
X0124200Y0083472D02*
X0129400Y0083472D01*
X0129400Y0073472D02*
X0124200Y0073472D01*
X0124200Y0063472D02*
X0129400Y0063472D01*
X0129400Y0053472D02*
X0124200Y0053472D01*
X0124200Y0043472D02*
X0129400Y0043472D01*
X0129400Y0033472D02*
X0124200Y0033472D01*
X0124200Y0023472D02*
X0129400Y0023472D01*
X0099400Y0023472D02*
X0094200Y0023472D01*
X0094200Y0033472D02*
X0099400Y0033472D01*
X0099400Y0043472D02*
X0094200Y0043472D01*
X0094200Y0053472D02*
X0099400Y0053472D01*
X0099400Y0063472D02*
X0094200Y0063472D01*
X0094200Y0073472D02*
X0099400Y0073472D01*
X0099400Y0083472D02*
X0094200Y0083472D01*
X0094200Y0093472D02*
X0099400Y0093472D01*
X0099400Y0103472D02*
X0094200Y0103472D01*
X0094200Y0113472D02*
X0099400Y0113472D01*
X0099400Y0123472D02*
X0094200Y0123472D01*
X0094200Y0133472D02*
X0099400Y0133472D01*
X0099400Y0143472D02*
X0094200Y0143472D01*
X0094200Y0153472D02*
X0099400Y0153472D01*
X0124200Y0153472D02*
X0129400Y0153472D01*
X0129400Y0143472D02*
X0124200Y0143472D01*
X0124200Y0133472D02*
X0129400Y0133472D01*
X0129400Y0123472D02*
X0124200Y0123472D01*
D13*
X0115343Y0143472D03*
X0108257Y0143472D03*
X0108257Y0083472D03*
X0115343Y0083472D03*
X0075343Y0058472D03*
X0068257Y0058472D03*
X0068257Y0048472D03*
X0075343Y0048472D03*
X0075343Y0038472D03*
X0068257Y0038472D03*
X0068257Y0028472D03*
X0075343Y0028472D03*
X0025343Y0078472D03*
X0018257Y0078472D03*
X0018257Y0088472D03*
X0025343Y0088472D03*
D14*
X0076800Y0114929D03*
X0076800Y0122016D03*
X0026800Y0164929D03*
X0026800Y0172016D03*
X0016800Y0172016D03*
X0016800Y0164929D03*
D15*
X0054000Y0062572D03*
X0054000Y0053472D03*
X0054000Y0044372D03*
D16*
X0029599Y0053472D03*
D17*
X0036800Y0078472D03*
D18*
X0036800Y0088472D03*
X0046800Y0088472D03*
X0046800Y0078472D03*
X0056800Y0078472D03*
X0056800Y0088472D03*
X0066800Y0088472D03*
X0066800Y0078472D03*
D19*
X0041800Y0113472D03*
D20*
X0041800Y0123472D03*
X0051800Y0123472D03*
X0051800Y0113472D03*
X0061800Y0113472D03*
X0061800Y0123472D03*
X0146800Y0098472D03*
X0146800Y0088472D03*
X0146800Y0078472D03*
X0156800Y0078472D03*
X0156800Y0088472D03*
X0156800Y0098472D03*
X0156800Y0068472D03*
X0156800Y0058472D03*
X0156800Y0048472D03*
X0146800Y0048472D03*
X0146800Y0058472D03*
X0146800Y0068472D03*
D21*
X0046918Y0034693D03*
X0044359Y0034693D03*
X0041800Y0034693D03*
X0039241Y0034693D03*
X0036682Y0034693D03*
D22*
X0036879Y0023472D03*
X0046721Y0023472D03*
D23*
X0057548Y0023472D03*
X0026052Y0023472D03*
D24*
X0020121Y0023268D02*
X0011600Y0023268D01*
X0011600Y0024866D02*
X0020121Y0024866D01*
X0020121Y0026465D02*
X0011600Y0026465D01*
X0011600Y0028064D02*
X0020309Y0028064D01*
X0020121Y0027875D02*
X0020121Y0019070D01*
X0020918Y0018272D01*
X0011600Y0018272D01*
X0011600Y0178633D01*
X0165701Y0178633D01*
X0165701Y0035671D01*
X0163777Y0036782D01*
X0160827Y0037572D01*
X0157773Y0037572D01*
X0154823Y0036782D01*
X0152177Y0035255D01*
X0150018Y0033095D01*
X0148491Y0030450D01*
X0147700Y0027500D01*
X0147700Y0024445D01*
X0148491Y0021495D01*
X0150018Y0018850D01*
X0150595Y0018272D01*
X0062682Y0018272D01*
X0063479Y0019070D01*
X0063479Y0027875D01*
X0062541Y0028813D01*
X0052555Y0028813D01*
X0051938Y0028196D01*
X0051321Y0028813D01*
X0042122Y0028813D01*
X0041800Y0028491D01*
X0041478Y0028813D01*
X0032279Y0028813D01*
X0031662Y0028196D01*
X0031045Y0028813D01*
X0021059Y0028813D01*
X0020121Y0027875D01*
X0020121Y0021669D02*
X0011600Y0021669D01*
X0011600Y0020071D02*
X0020121Y0020071D01*
X0020718Y0018472D02*
X0011600Y0018472D01*
X0011600Y0029662D02*
X0065082Y0029662D01*
X0065082Y0028064D02*
X0063291Y0028064D01*
X0063479Y0026465D02*
X0065082Y0026465D01*
X0065082Y0025447D02*
X0066019Y0024510D01*
X0070494Y0024510D01*
X0071431Y0025447D01*
X0071431Y0031497D01*
X0070494Y0032435D01*
X0070150Y0032435D01*
X0070150Y0034510D01*
X0070494Y0034510D01*
X0071431Y0035447D01*
X0071431Y0041497D01*
X0070494Y0042435D01*
X0066019Y0042435D01*
X0065099Y0041515D01*
X0065089Y0041524D01*
X0063766Y0042072D01*
X0062334Y0042072D01*
X0061011Y0041524D01*
X0059998Y0040512D01*
X0059450Y0039189D01*
X0059450Y0037756D01*
X0059998Y0036433D01*
X0061011Y0035421D01*
X0062334Y0034872D01*
X0063766Y0034872D01*
X0065089Y0035421D01*
X0065099Y0035430D01*
X0065950Y0034579D01*
X0065950Y0032365D01*
X0065082Y0031497D01*
X0065082Y0025447D01*
X0065663Y0024866D02*
X0063479Y0024866D01*
X0063479Y0023268D02*
X0090000Y0023268D01*
X0090000Y0022637D02*
X0090000Y0024308D01*
X0090639Y0025852D01*
X0091821Y0027033D01*
X0093365Y0027672D01*
X0100235Y0027672D01*
X0101779Y0027033D01*
X0102961Y0025852D01*
X0103600Y0024308D01*
X0103600Y0022637D01*
X0102961Y0021093D01*
X0101779Y0019912D01*
X0100235Y0019272D01*
X0093365Y0019272D01*
X0091821Y0019912D01*
X0090639Y0021093D01*
X0090000Y0022637D01*
X0090401Y0021669D02*
X0063479Y0021669D01*
X0063479Y0020071D02*
X0091662Y0020071D01*
X0090231Y0024866D02*
X0078220Y0024866D01*
X0078358Y0025005D02*
X0078595Y0025415D01*
X0078718Y0025873D01*
X0078718Y0028472D01*
X0075343Y0028472D01*
X0075343Y0028472D01*
X0075343Y0024310D01*
X0073532Y0024310D01*
X0073074Y0024433D01*
X0072663Y0024670D01*
X0072328Y0025005D01*
X0072091Y0025415D01*
X0071969Y0025873D01*
X0071969Y0028472D01*
X0075343Y0028472D01*
X0075343Y0028472D01*
X0075343Y0024310D01*
X0077155Y0024310D01*
X0077613Y0024433D01*
X0078023Y0024670D01*
X0078358Y0025005D01*
X0078718Y0026465D02*
X0091253Y0026465D01*
X0092424Y0029662D02*
X0078718Y0029662D01*
X0078718Y0028472D02*
X0078718Y0031072D01*
X0078595Y0031529D01*
X0078358Y0031940D01*
X0078023Y0032275D01*
X0077613Y0032512D01*
X0077155Y0032635D01*
X0075343Y0032635D01*
X0073532Y0032635D01*
X0073074Y0032512D01*
X0072663Y0032275D01*
X0072328Y0031940D01*
X0072091Y0031529D01*
X0071969Y0031072D01*
X0071968Y0028472D01*
X0075343Y0028472D01*
X0075343Y0028472D01*
X0075343Y0028473D02*
X0075343Y0032635D01*
X0075343Y0028473D01*
X0075343Y0028473D01*
X0075343Y0028472D02*
X0078718Y0028472D01*
X0078718Y0028064D02*
X0128421Y0028064D01*
X0128030Y0027672D02*
X0123365Y0027672D01*
X0121821Y0027033D01*
X0120639Y0025852D01*
X0120000Y0024308D01*
X0120000Y0022637D01*
X0120639Y0021093D01*
X0121821Y0019912D01*
X0123365Y0019272D01*
X0130235Y0019272D01*
X0131779Y0019912D01*
X0132961Y0021093D01*
X0133600Y0022637D01*
X0133600Y0024308D01*
X0132961Y0025852D01*
X0132555Y0026257D01*
X0140170Y0033872D01*
X0141400Y0035103D01*
X0141400Y0071353D01*
X0143912Y0073865D01*
X0144305Y0073472D01*
X0141500Y0070668D01*
X0141500Y0066277D01*
X0144305Y0063472D01*
X0141500Y0060668D01*
X0141500Y0056277D01*
X0144305Y0053472D01*
X0141500Y0050668D01*
X0141500Y0046277D01*
X0144605Y0043172D01*
X0148995Y0043172D01*
X0151659Y0045836D01*
X0154522Y0042972D01*
X0156600Y0042972D01*
X0156600Y0048272D01*
X0157000Y0048272D01*
X0157000Y0042972D01*
X0159078Y0042972D01*
X0162300Y0046194D01*
X0162300Y0048272D01*
X0157000Y0048272D01*
X0157000Y0048672D01*
X0162300Y0048672D01*
X0162300Y0050751D01*
X0159437Y0053614D01*
X0162100Y0056277D01*
X0162100Y0060668D01*
X0161408Y0061360D01*
X0163900Y0063853D01*
X0163900Y0090481D01*
X0164852Y0091433D01*
X0165400Y0092756D01*
X0165400Y0094189D01*
X0164852Y0095512D01*
X0163839Y0096524D01*
X0162516Y0097072D01*
X0162300Y0097072D01*
X0162300Y0098272D01*
X0157000Y0098272D01*
X0157000Y0098672D01*
X0162300Y0098672D01*
X0162300Y0100751D01*
X0159078Y0103972D01*
X0157000Y0103972D01*
X0157000Y0098673D01*
X0156600Y0098673D01*
X0156600Y0103972D01*
X0156520Y0103972D01*
X0158900Y0106353D01*
X0158900Y0113606D01*
X0159802Y0113979D01*
X0161293Y0115470D01*
X0162100Y0117418D01*
X0162100Y0119527D01*
X0161293Y0121475D01*
X0159802Y0122966D01*
X0158856Y0123357D01*
X0158911Y0123375D01*
X0159683Y0123768D01*
X0160383Y0124277D01*
X0160995Y0124889D01*
X0161504Y0125590D01*
X0161897Y0126361D01*
X0162165Y0127185D01*
X0162300Y0128040D01*
X0162300Y0128272D01*
X0157000Y0128272D01*
X0157000Y0128672D01*
X0162300Y0128672D01*
X0162300Y0128905D01*
X0162165Y0129760D01*
X0161897Y0130584D01*
X0161504Y0131355D01*
X0160995Y0132055D01*
X0160383Y0132668D01*
X0159683Y0133176D01*
X0158911Y0133569D01*
X0158088Y0133837D01*
X0157233Y0133972D01*
X0157000Y0133972D01*
X0157000Y0128673D01*
X0156600Y0128673D01*
X0156600Y0133972D01*
X0156367Y0133972D01*
X0155512Y0133837D01*
X0154689Y0133569D01*
X0153917Y0133176D01*
X0153217Y0132668D01*
X0152605Y0132055D01*
X0152096Y0131355D01*
X0151703Y0130584D01*
X0151435Y0129760D01*
X0151300Y0128905D01*
X0151300Y0128672D01*
X0156600Y0128672D01*
X0156600Y0128272D01*
X0151300Y0128272D01*
X0151300Y0128040D01*
X0151435Y0127185D01*
X0151703Y0126361D01*
X0152096Y0125590D01*
X0152605Y0124889D01*
X0153217Y0124277D01*
X0153917Y0123768D01*
X0154689Y0123375D01*
X0154744Y0123357D01*
X0153798Y0122966D01*
X0152307Y0121475D01*
X0151500Y0119527D01*
X0151500Y0117418D01*
X0152307Y0115470D01*
X0153798Y0113979D01*
X0154700Y0113606D01*
X0154700Y0108092D01*
X0150930Y0104322D01*
X0149700Y0103092D01*
X0149700Y0103068D01*
X0148995Y0103772D01*
X0144605Y0103772D01*
X0141500Y0100668D01*
X0141500Y0096277D01*
X0144305Y0093472D01*
X0141500Y0090668D01*
X0141500Y0086277D01*
X0144305Y0083472D01*
X0142037Y0081205D01*
X0141420Y0081822D01*
X0141400Y0081842D01*
X0141400Y0121842D01*
X0140170Y0123072D01*
X0132555Y0130688D01*
X0132961Y0131093D01*
X0133600Y0132637D01*
X0133600Y0134308D01*
X0132961Y0135852D01*
X0131779Y0137033D01*
X0130235Y0137672D01*
X0123365Y0137672D01*
X0121821Y0137033D01*
X0120639Y0135852D01*
X0120000Y0134308D01*
X0120000Y0132637D01*
X0120639Y0131093D01*
X0121821Y0129912D01*
X0123365Y0129272D01*
X0128030Y0129272D01*
X0129630Y0127672D01*
X0123365Y0127672D01*
X0121821Y0127033D01*
X0120639Y0125852D01*
X0120000Y0124308D01*
X0120000Y0122637D01*
X0120639Y0121093D01*
X0121821Y0119912D01*
X0123365Y0119272D01*
X0130235Y0119272D01*
X0131779Y0119912D01*
X0132961Y0121093D01*
X0133600Y0122637D01*
X0133600Y0123703D01*
X0137200Y0120103D01*
X0137200Y0080103D01*
X0138450Y0078853D01*
X0138450Y0078092D01*
X0133600Y0073242D01*
X0133600Y0074308D01*
X0132961Y0075852D01*
X0131779Y0077033D01*
X0130235Y0077672D01*
X0123365Y0077672D01*
X0121821Y0077033D01*
X0120639Y0075852D01*
X0120000Y0074308D01*
X0120000Y0072637D01*
X0120639Y0071093D01*
X0121821Y0069912D01*
X0123365Y0069272D01*
X0130235Y0069272D01*
X0131779Y0069912D01*
X0132961Y0071093D01*
X0133450Y0072275D01*
X0133450Y0067714D01*
X0132498Y0066762D01*
X0132367Y0066445D01*
X0131779Y0067033D01*
X0130235Y0067672D01*
X0123365Y0067672D01*
X0121821Y0067033D01*
X0120639Y0065852D01*
X0120000Y0064308D01*
X0120000Y0062637D01*
X0120639Y0061093D01*
X0121821Y0059912D01*
X0123365Y0059272D01*
X0130235Y0059272D01*
X0131779Y0059912D01*
X0132961Y0061093D01*
X0133291Y0061891D01*
X0133511Y0061671D01*
X0134834Y0061122D01*
X0136266Y0061122D01*
X0137200Y0061509D01*
X0137200Y0036842D01*
X0133600Y0033242D01*
X0133600Y0034308D01*
X0132961Y0035852D01*
X0131779Y0037033D01*
X0130235Y0037672D01*
X0123365Y0037672D01*
X0121821Y0037033D01*
X0120639Y0035852D01*
X0120000Y0034308D01*
X0120000Y0032637D01*
X0120639Y0031093D01*
X0121821Y0029912D01*
X0123365Y0029272D01*
X0129630Y0029272D01*
X0128030Y0027672D01*
X0132762Y0026465D02*
X0147700Y0026465D01*
X0147700Y0024866D02*
X0133369Y0024866D01*
X0133600Y0023268D02*
X0148015Y0023268D01*
X0148444Y0021669D02*
X0133199Y0021669D01*
X0131938Y0020071D02*
X0149313Y0020071D01*
X0150395Y0018472D02*
X0062882Y0018472D01*
X0070850Y0024866D02*
X0072467Y0024866D01*
X0071969Y0026465D02*
X0071431Y0026465D01*
X0071431Y0028064D02*
X0071969Y0028064D01*
X0071969Y0029662D02*
X0071431Y0029662D01*
X0071431Y0031261D02*
X0072019Y0031261D01*
X0070150Y0032859D02*
X0090000Y0032859D01*
X0090000Y0032637D02*
X0090639Y0031093D01*
X0091821Y0029912D01*
X0093365Y0029272D01*
X0100235Y0029272D01*
X0101779Y0029912D01*
X0102961Y0031093D01*
X0103600Y0032637D01*
X0103600Y0034308D01*
X0102961Y0035852D01*
X0101779Y0037033D01*
X0100235Y0037672D01*
X0093365Y0037672D01*
X0091821Y0037033D01*
X0090639Y0035852D01*
X0090000Y0034308D01*
X0090000Y0032637D01*
X0090570Y0031261D02*
X0078667Y0031261D01*
X0075343Y0031261D02*
X0075343Y0031261D01*
X0075343Y0029662D02*
X0075343Y0029662D01*
X0075343Y0028064D02*
X0075343Y0028064D01*
X0075343Y0026465D02*
X0075343Y0026465D01*
X0075343Y0024866D02*
X0075343Y0024866D01*
X0075343Y0034310D02*
X0073532Y0034310D01*
X0073074Y0034433D01*
X0072663Y0034670D01*
X0072328Y0035005D01*
X0072091Y0035415D01*
X0071969Y0035873D01*
X0071969Y0038472D01*
X0075343Y0038472D01*
X0075343Y0038472D01*
X0075343Y0034310D01*
X0077155Y0034310D01*
X0077613Y0034433D01*
X0078023Y0034670D01*
X0078358Y0035005D01*
X0078595Y0035415D01*
X0078718Y0035873D01*
X0078718Y0038472D01*
X0075343Y0038472D01*
X0075343Y0038472D01*
X0075343Y0034310D01*
X0075343Y0034458D02*
X0075343Y0034458D01*
X0075343Y0036056D02*
X0075343Y0036056D01*
X0075343Y0037655D02*
X0075343Y0037655D01*
X0075343Y0038472D02*
X0075343Y0038472D01*
X0071968Y0038472D01*
X0071969Y0041072D01*
X0072091Y0041529D01*
X0072328Y0041940D01*
X0072663Y0042275D01*
X0073074Y0042512D01*
X0073532Y0042635D01*
X0075343Y0042635D01*
X0075343Y0038473D01*
X0075343Y0038473D01*
X0075343Y0042635D01*
X0077155Y0042635D01*
X0077613Y0042512D01*
X0078023Y0042275D01*
X0078358Y0041940D01*
X0078595Y0041529D01*
X0078718Y0041072D01*
X0078718Y0038472D01*
X0075343Y0038472D01*
X0075343Y0039253D02*
X0075343Y0039253D01*
X0075343Y0040852D02*
X0075343Y0040852D01*
X0075343Y0042450D02*
X0075343Y0042450D01*
X0075343Y0044310D02*
X0073532Y0044310D01*
X0073074Y0044433D01*
X0072663Y0044670D01*
X0072328Y0045005D01*
X0072091Y0045415D01*
X0071969Y0045873D01*
X0071969Y0048472D01*
X0075343Y0048472D01*
X0075343Y0048472D01*
X0075343Y0044310D01*
X0077155Y0044310D01*
X0077613Y0044433D01*
X0078023Y0044670D01*
X0078358Y0045005D01*
X0078595Y0045415D01*
X0078718Y0045873D01*
X0078718Y0048472D01*
X0075343Y0048472D01*
X0075343Y0048472D01*
X0075343Y0044310D01*
X0075343Y0045647D02*
X0075343Y0045647D01*
X0075343Y0047246D02*
X0075343Y0047246D01*
X0075343Y0048472D02*
X0075343Y0048472D01*
X0071968Y0048472D01*
X0071969Y0051072D01*
X0072091Y0051529D01*
X0072328Y0051940D01*
X0072663Y0052275D01*
X0073074Y0052512D01*
X0073532Y0052635D01*
X0075343Y0052635D01*
X0075343Y0048473D01*
X0075343Y0048473D01*
X0075343Y0052635D01*
X0077155Y0052635D01*
X0077613Y0052512D01*
X0078023Y0052275D01*
X0078358Y0051940D01*
X0078595Y0051529D01*
X0078718Y0051072D01*
X0078718Y0048472D01*
X0075343Y0048472D01*
X0075343Y0048844D02*
X0075343Y0048844D01*
X0075343Y0050443D02*
X0075343Y0050443D01*
X0075343Y0052041D02*
X0075343Y0052041D01*
X0075343Y0054310D02*
X0073532Y0054310D01*
X0073074Y0054433D01*
X0072663Y0054670D01*
X0072328Y0055005D01*
X0072091Y0055415D01*
X0071969Y0055873D01*
X0071969Y0058472D01*
X0075343Y0058472D01*
X0075343Y0058472D01*
X0075343Y0054310D01*
X0077155Y0054310D01*
X0077613Y0054433D01*
X0078023Y0054670D01*
X0078358Y0055005D01*
X0078595Y0055415D01*
X0078718Y0055873D01*
X0078718Y0058472D01*
X0075343Y0058472D01*
X0075343Y0058472D01*
X0075343Y0054310D01*
X0075343Y0055238D02*
X0075343Y0055238D01*
X0075343Y0056837D02*
X0075343Y0056837D01*
X0075343Y0058435D02*
X0075343Y0058435D01*
X0075343Y0058472D02*
X0075343Y0058472D01*
X0071968Y0058472D01*
X0071969Y0061072D01*
X0072091Y0061529D01*
X0072328Y0061940D01*
X0072663Y0062275D01*
X0073074Y0062512D01*
X0073532Y0062635D01*
X0075343Y0062635D01*
X0075343Y0058473D01*
X0075343Y0058473D01*
X0075343Y0062635D01*
X0077155Y0062635D01*
X0077613Y0062512D01*
X0078023Y0062275D01*
X0078358Y0061940D01*
X0078595Y0061529D01*
X0078718Y0061072D01*
X0078718Y0058472D01*
X0075343Y0058472D01*
X0075343Y0060034D02*
X0075343Y0060034D01*
X0075343Y0061632D02*
X0075343Y0061632D01*
X0078536Y0061632D02*
X0090416Y0061632D01*
X0090639Y0061093D02*
X0091821Y0059912D01*
X0093365Y0059272D01*
X0100235Y0059272D01*
X0101779Y0059912D01*
X0102961Y0061093D01*
X0103600Y0062637D01*
X0103600Y0064308D01*
X0102961Y0065852D01*
X0101779Y0067033D01*
X0100235Y0067672D01*
X0093365Y0067672D01*
X0091821Y0067033D01*
X0090639Y0065852D01*
X0090000Y0064308D01*
X0090000Y0062637D01*
X0090639Y0061093D01*
X0091699Y0060034D02*
X0078718Y0060034D01*
X0078718Y0058435D02*
X0108793Y0058435D01*
X0107194Y0056837D02*
X0101975Y0056837D01*
X0101779Y0057033D02*
X0102961Y0055852D01*
X0103600Y0054308D01*
X0103600Y0053242D01*
X0114700Y0064342D01*
X0114700Y0065481D01*
X0113748Y0066433D01*
X0113200Y0067756D01*
X0113200Y0069189D01*
X0113748Y0070512D01*
X0114761Y0071524D01*
X0116084Y0072072D01*
X0117516Y0072072D01*
X0118839Y0071524D01*
X0119852Y0070512D01*
X0120400Y0069189D01*
X0120400Y0067756D01*
X0119852Y0066433D01*
X0118900Y0065481D01*
X0118900Y0062603D01*
X0117670Y0061372D01*
X0102555Y0046257D01*
X0102961Y0045852D01*
X0103600Y0044308D01*
X0103600Y0042637D01*
X0102961Y0041093D01*
X0101779Y0039912D01*
X0100235Y0039272D01*
X0093365Y0039272D01*
X0091821Y0039912D01*
X0090639Y0041093D01*
X0090000Y0042637D01*
X0090000Y0044308D01*
X0090639Y0045852D01*
X0091821Y0047033D01*
X0093365Y0047672D01*
X0098030Y0047672D01*
X0099630Y0049272D01*
X0093365Y0049272D01*
X0091821Y0049912D01*
X0090639Y0051093D01*
X0090000Y0052637D01*
X0090000Y0054308D01*
X0090639Y0055852D01*
X0091821Y0057033D01*
X0093365Y0057672D01*
X0100235Y0057672D01*
X0101779Y0057033D01*
X0103215Y0055238D02*
X0105596Y0055238D01*
X0103997Y0053640D02*
X0103600Y0053640D01*
X0106740Y0050443D02*
X0121290Y0050443D01*
X0121821Y0049912D02*
X0120639Y0051093D01*
X0120000Y0052637D01*
X0120000Y0054308D01*
X0120639Y0055852D01*
X0121821Y0057033D01*
X0123365Y0057672D01*
X0130235Y0057672D01*
X0131779Y0057033D01*
X0132961Y0055852D01*
X0133600Y0054308D01*
X0133600Y0052637D01*
X0132961Y0051093D01*
X0131779Y0049912D01*
X0130235Y0049272D01*
X0123365Y0049272D01*
X0121821Y0049912D01*
X0120247Y0052041D02*
X0108339Y0052041D01*
X0109937Y0053640D02*
X0120000Y0053640D01*
X0120385Y0055238D02*
X0111536Y0055238D01*
X0113134Y0056837D02*
X0121625Y0056837D01*
X0121699Y0060034D02*
X0116331Y0060034D01*
X0117930Y0061632D02*
X0120416Y0061632D01*
X0120000Y0063231D02*
X0118900Y0063231D01*
X0118900Y0064829D02*
X0120216Y0064829D01*
X0119847Y0066428D02*
X0121216Y0066428D01*
X0120400Y0068026D02*
X0133450Y0068026D01*
X0133450Y0069625D02*
X0131086Y0069625D01*
X0133014Y0071223D02*
X0133450Y0071223D01*
X0133553Y0074420D02*
X0134778Y0074420D01*
X0136377Y0076019D02*
X0132793Y0076019D01*
X0130368Y0077617D02*
X0137975Y0077617D01*
X0138087Y0079216D02*
X0100538Y0079216D01*
X0100430Y0079181D02*
X0101089Y0079395D01*
X0101706Y0079709D01*
X0102266Y0080116D01*
X0102756Y0080606D01*
X0103163Y0081166D01*
X0103478Y0081783D01*
X0103692Y0082442D01*
X0103800Y0083126D01*
X0103800Y0083472D01*
X0096800Y0083472D01*
X0096800Y0079072D01*
X0099746Y0079072D01*
X0100430Y0079181D01*
X0100235Y0077672D02*
X0101779Y0077033D01*
X0102961Y0075852D01*
X0103600Y0074308D01*
X0103600Y0072637D01*
X0102961Y0071093D01*
X0101779Y0069912D01*
X0100235Y0069272D01*
X0093365Y0069272D01*
X0091821Y0069912D01*
X0090639Y0071093D01*
X0090000Y0072637D01*
X0090000Y0074308D01*
X0090639Y0075852D01*
X0091821Y0077033D01*
X0093365Y0077672D01*
X0100235Y0077672D01*
X0100368Y0077617D02*
X0123232Y0077617D01*
X0123365Y0079272D02*
X0121821Y0079912D01*
X0120639Y0081093D01*
X0120524Y0081372D01*
X0118518Y0081372D01*
X0118518Y0080447D01*
X0117581Y0079510D01*
X0113106Y0079510D01*
X0112169Y0080447D01*
X0112169Y0086497D01*
X0113106Y0087435D01*
X0117581Y0087435D01*
X0118518Y0086497D01*
X0118518Y0085572D01*
X0120524Y0085572D01*
X0120639Y0085852D01*
X0121821Y0087033D01*
X0123365Y0087672D01*
X0130235Y0087672D01*
X0131779Y0087033D01*
X0132961Y0085852D01*
X0133600Y0084308D01*
X0133600Y0082637D01*
X0132961Y0081093D01*
X0131779Y0079912D01*
X0130235Y0079272D01*
X0123365Y0079272D01*
X0120918Y0080814D02*
X0118518Y0080814D01*
X0118518Y0085610D02*
X0120539Y0085610D01*
X0122244Y0087208D02*
X0117807Y0087208D01*
X0121044Y0090405D02*
X0102273Y0090405D01*
X0101779Y0089912D02*
X0102961Y0091093D01*
X0103364Y0092066D01*
X0103900Y0092603D01*
X0117650Y0106353D01*
X0117650Y0139579D01*
X0118518Y0140447D01*
X0118518Y0146497D01*
X0117581Y0147435D01*
X0113106Y0147435D01*
X0112169Y0146497D01*
X0112169Y0140447D01*
X0113106Y0139510D01*
X0113450Y0139510D01*
X0113450Y0108092D01*
X0102085Y0096727D01*
X0101779Y0097033D01*
X0100235Y0097672D01*
X0093365Y0097672D01*
X0091821Y0097033D01*
X0090639Y0095852D01*
X0090000Y0094308D01*
X0090000Y0093392D01*
X0066499Y0069891D01*
X0066650Y0070256D01*
X0066650Y0071603D01*
X0068900Y0073853D01*
X0068900Y0074067D01*
X0071400Y0076567D01*
X0071400Y0077603D01*
X0076400Y0082603D01*
X0076400Y0091842D01*
X0075170Y0093072D01*
X0066650Y0101592D01*
X0066650Y0102939D01*
X0066102Y0104262D01*
X0065089Y0105274D01*
X0063766Y0105822D01*
X0062334Y0105822D01*
X0061011Y0105274D01*
X0059998Y0104262D01*
X0059450Y0102939D01*
X0059450Y0101506D01*
X0059998Y0100183D01*
X0061011Y0099171D01*
X0062334Y0098622D01*
X0063680Y0098622D01*
X0072200Y0090103D01*
X0072200Y0084342D01*
X0069818Y0081960D01*
X0068705Y0083072D01*
X0064895Y0083072D01*
X0062200Y0080378D01*
X0062200Y0076567D01*
X0063937Y0074830D01*
X0063680Y0074572D01*
X0062334Y0074572D01*
X0061011Y0074024D01*
X0059998Y0073012D01*
X0059450Y0071689D01*
X0059450Y0070256D01*
X0059998Y0068933D01*
X0061011Y0067921D01*
X0062334Y0067372D01*
X0063766Y0067372D01*
X0064132Y0067524D01*
X0060550Y0063942D01*
X0060150Y0064342D01*
X0060000Y0064492D01*
X0060000Y0065635D01*
X0059063Y0066572D01*
X0048937Y0066572D01*
X0048000Y0065635D01*
X0048000Y0062642D01*
X0035530Y0050172D01*
X0035530Y0061222D01*
X0034593Y0062159D01*
X0024606Y0062159D01*
X0024095Y0061648D01*
X0021400Y0064342D01*
X0021400Y0075416D01*
X0021431Y0075447D01*
X0021431Y0081497D01*
X0020494Y0082435D01*
X0020150Y0082435D01*
X0020150Y0084510D01*
X0020494Y0084510D01*
X0021431Y0085447D01*
X0021431Y0091384D01*
X0023920Y0093872D01*
X0027180Y0093872D01*
X0032200Y0088853D01*
X0032200Y0086567D01*
X0034895Y0083872D01*
X0038705Y0083872D01*
X0041400Y0086567D01*
X0041400Y0090378D01*
X0038705Y0093072D01*
X0034895Y0093072D01*
X0034407Y0092585D01*
X0028920Y0098072D01*
X0022180Y0098072D01*
X0020950Y0096842D01*
X0017200Y0093092D01*
X0017200Y0092435D01*
X0016019Y0092435D01*
X0015082Y0091497D01*
X0015082Y0085447D01*
X0015950Y0084579D01*
X0015950Y0082365D01*
X0015082Y0081497D01*
X0015082Y0075447D01*
X0016019Y0074510D01*
X0017200Y0074510D01*
X0017200Y0062603D01*
X0023669Y0056134D01*
X0023669Y0045723D01*
X0024606Y0044786D01*
X0034593Y0044786D01*
X0034700Y0044893D01*
X0034700Y0038517D01*
X0034294Y0038112D01*
X0034294Y0031274D01*
X0035232Y0030337D01*
X0045302Y0030337D01*
X0045436Y0030260D01*
X0045894Y0030137D01*
X0046918Y0030137D01*
X0046918Y0034693D01*
X0046918Y0039249D01*
X0045894Y0039249D01*
X0045436Y0039126D01*
X0045302Y0039049D01*
X0038900Y0039049D01*
X0038900Y0047603D01*
X0049870Y0058572D01*
X0059063Y0058572D01*
X0059521Y0059031D01*
X0059680Y0058872D01*
X0059680Y0058872D01*
X0062180Y0056372D01*
X0065082Y0056372D01*
X0065082Y0055447D01*
X0065950Y0054579D01*
X0065950Y0052365D01*
X0065082Y0051497D01*
X0065082Y0045447D01*
X0066019Y0044510D01*
X0070494Y0044510D01*
X0071431Y0045447D01*
X0071431Y0051497D01*
X0070494Y0052435D01*
X0070150Y0052435D01*
X0070150Y0054510D01*
X0070494Y0054510D01*
X0071431Y0055447D01*
X0071431Y0061497D01*
X0070494Y0062435D01*
X0066019Y0062435D01*
X0065082Y0061497D01*
X0065082Y0060572D01*
X0063920Y0060572D01*
X0063520Y0060972D01*
X0092272Y0089725D01*
X0093365Y0089272D01*
X0100235Y0089272D01*
X0101779Y0089912D01*
X0101089Y0087550D02*
X0100430Y0087764D01*
X0099746Y0087872D01*
X0096800Y0087872D01*
X0093854Y0087872D01*
X0093170Y0087764D01*
X0092511Y0087550D01*
X0091894Y0087236D01*
X0091334Y0086829D01*
X0090844Y0086339D01*
X0090437Y0085779D01*
X0090122Y0085161D01*
X0089908Y0084503D01*
X0089800Y0083819D01*
X0089800Y0083472D01*
X0089800Y0083126D01*
X0089908Y0082442D01*
X0090122Y0081783D01*
X0090437Y0081166D01*
X0090844Y0080606D01*
X0091334Y0080116D01*
X0091894Y0079709D01*
X0092511Y0079395D01*
X0093170Y0079181D01*
X0093854Y0079072D01*
X0096800Y0079072D01*
X0096800Y0083472D01*
X0096800Y0083472D01*
X0089800Y0083472D01*
X0096800Y0083472D01*
X0096800Y0083472D01*
X0096800Y0083472D01*
X0103800Y0083472D01*
X0103800Y0083819D01*
X0103692Y0084503D01*
X0103478Y0085161D01*
X0103163Y0085779D01*
X0102756Y0086339D01*
X0102266Y0086829D01*
X0101706Y0087236D01*
X0101089Y0087550D01*
X0101744Y0087208D02*
X0105510Y0087208D01*
X0105577Y0087275D02*
X0105242Y0086940D01*
X0105005Y0086529D01*
X0104882Y0086072D01*
X0104882Y0083472D01*
X0104882Y0080873D01*
X0105005Y0080415D01*
X0105242Y0080005D01*
X0105577Y0079670D01*
X0105987Y0079433D01*
X0106445Y0079310D01*
X0108257Y0079310D01*
X0110068Y0079310D01*
X0110526Y0079433D01*
X0110937Y0079670D01*
X0111272Y0080005D01*
X0111509Y0080415D01*
X0111631Y0080873D01*
X0111631Y0083472D01*
X0108257Y0083472D01*
X0108257Y0079310D01*
X0108257Y0083472D01*
X0108257Y0083472D01*
X0108257Y0083472D01*
X0111631Y0083472D01*
X0111631Y0086072D01*
X0111509Y0086529D01*
X0111272Y0086940D01*
X0110937Y0087275D01*
X0110526Y0087512D01*
X0110068Y0087635D01*
X0108257Y0087635D01*
X0108257Y0083473D01*
X0108257Y0083473D01*
X0108257Y0087635D01*
X0106445Y0087635D01*
X0105987Y0087512D01*
X0105577Y0087275D01*
X0104882Y0085610D02*
X0103249Y0085610D01*
X0103769Y0084011D02*
X0104882Y0084011D01*
X0104882Y0083472D02*
X0108257Y0083472D01*
X0104882Y0083472D01*
X0104882Y0082413D02*
X0103682Y0082413D01*
X0102907Y0080814D02*
X0104898Y0080814D01*
X0108257Y0080814D02*
X0108257Y0080814D01*
X0108257Y0082413D02*
X0108257Y0082413D01*
X0108257Y0083472D02*
X0108257Y0083472D01*
X0108257Y0084011D02*
X0108257Y0084011D01*
X0108257Y0085610D02*
X0108257Y0085610D01*
X0108257Y0087208D02*
X0108257Y0087208D01*
X0111003Y0087208D02*
X0112880Y0087208D01*
X0112169Y0085610D02*
X0111631Y0085610D01*
X0111631Y0084011D02*
X0112169Y0084011D01*
X0112169Y0082413D02*
X0111631Y0082413D01*
X0111616Y0080814D02*
X0112169Y0080814D01*
X0120000Y0072822D02*
X0103600Y0072822D01*
X0103553Y0074420D02*
X0120047Y0074420D01*
X0120807Y0076019D02*
X0102793Y0076019D01*
X0103014Y0071223D02*
X0114460Y0071223D01*
X0113381Y0069625D02*
X0101086Y0069625D01*
X0102384Y0066428D02*
X0113753Y0066428D01*
X0113200Y0068026D02*
X0070574Y0068026D01*
X0072172Y0069625D02*
X0092514Y0069625D01*
X0090586Y0071223D02*
X0073771Y0071223D01*
X0075369Y0072822D02*
X0090000Y0072822D01*
X0090047Y0074420D02*
X0076968Y0074420D01*
X0078566Y0076019D02*
X0090807Y0076019D01*
X0093232Y0077617D02*
X0080165Y0077617D01*
X0081763Y0079216D02*
X0093062Y0079216D01*
X0090692Y0080814D02*
X0083362Y0080814D01*
X0084960Y0082413D02*
X0089918Y0082413D01*
X0089831Y0084011D02*
X0086559Y0084011D01*
X0088157Y0085610D02*
X0090351Y0085610D01*
X0089756Y0087208D02*
X0091856Y0087208D01*
X0091354Y0088807D02*
X0137200Y0088807D01*
X0137200Y0090405D02*
X0132556Y0090405D01*
X0132756Y0090606D02*
X0133163Y0091166D01*
X0133478Y0091783D01*
X0133692Y0092442D01*
X0133800Y0093126D01*
X0133800Y0093472D01*
X0126800Y0093472D01*
X0126800Y0089072D01*
X0129746Y0089072D01*
X0130430Y0089181D01*
X0131089Y0089395D01*
X0131706Y0089709D01*
X0132266Y0090116D01*
X0132756Y0090606D01*
X0133549Y0092004D02*
X0137200Y0092004D01*
X0137200Y0093602D02*
X0133800Y0093602D01*
X0133800Y0093472D02*
X0133800Y0093819D01*
X0133692Y0094503D01*
X0133478Y0095161D01*
X0133163Y0095779D01*
X0132756Y0096339D01*
X0132266Y0096829D01*
X0131706Y0097236D01*
X0131089Y0097550D01*
X0130430Y0097764D01*
X0129746Y0097872D01*
X0126800Y0097872D01*
X0123854Y0097872D01*
X0123170Y0097764D01*
X0122511Y0097550D01*
X0121894Y0097236D01*
X0121334Y0096829D01*
X0120844Y0096339D01*
X0120437Y0095779D01*
X0120122Y0095161D01*
X0119908Y0094503D01*
X0119800Y0093819D01*
X0119800Y0093472D01*
X0119800Y0093126D01*
X0119908Y0092442D01*
X0120122Y0091783D01*
X0120437Y0091166D01*
X0120844Y0090606D01*
X0121334Y0090116D01*
X0121894Y0089709D01*
X0122511Y0089395D01*
X0123170Y0089181D01*
X0123854Y0089072D01*
X0126800Y0089072D01*
X0126800Y0093472D01*
X0126800Y0093472D01*
X0119800Y0093472D01*
X0126800Y0093472D01*
X0126800Y0093472D01*
X0126800Y0093472D01*
X0133800Y0093472D01*
X0133457Y0095201D02*
X0137200Y0095201D01*
X0137200Y0096799D02*
X0132295Y0096799D01*
X0131779Y0099912D02*
X0130235Y0099272D01*
X0123365Y0099272D01*
X0121821Y0099912D01*
X0120639Y0101093D01*
X0120000Y0102637D01*
X0120000Y0104308D01*
X0120639Y0105852D01*
X0121821Y0107033D01*
X0123365Y0107672D01*
X0130235Y0107672D01*
X0131779Y0107033D01*
X0132961Y0105852D01*
X0133600Y0104308D01*
X0133600Y0102637D01*
X0132961Y0101093D01*
X0131779Y0099912D01*
X0131864Y0099997D02*
X0137200Y0099997D01*
X0137200Y0101595D02*
X0133168Y0101595D01*
X0133600Y0103194D02*
X0137200Y0103194D01*
X0137200Y0104792D02*
X0133399Y0104792D01*
X0132422Y0106391D02*
X0137200Y0106391D01*
X0137200Y0107989D02*
X0117650Y0107989D01*
X0117650Y0106391D02*
X0121178Y0106391D01*
X0120201Y0104792D02*
X0116089Y0104792D01*
X0114491Y0103194D02*
X0120000Y0103194D01*
X0120432Y0101595D02*
X0112892Y0101595D01*
X0111294Y0099997D02*
X0121736Y0099997D01*
X0121305Y0096799D02*
X0108097Y0096799D01*
X0106498Y0095201D02*
X0120143Y0095201D01*
X0119800Y0093602D02*
X0104900Y0093602D01*
X0103338Y0092004D02*
X0120051Y0092004D01*
X0126800Y0092004D02*
X0126800Y0092004D01*
X0126800Y0093473D02*
X0126800Y0097872D01*
X0126800Y0093473D01*
X0126800Y0093473D01*
X0126800Y0093602D02*
X0126800Y0093602D01*
X0126800Y0095201D02*
X0126800Y0095201D01*
X0126800Y0096799D02*
X0126800Y0096799D01*
X0126800Y0090405D02*
X0126800Y0090405D01*
X0131356Y0087208D02*
X0137200Y0087208D01*
X0137200Y0085610D02*
X0133061Y0085610D01*
X0133600Y0084011D02*
X0137200Y0084011D01*
X0137200Y0082413D02*
X0133507Y0082413D01*
X0132682Y0080814D02*
X0137200Y0080814D01*
X0141400Y0082413D02*
X0143245Y0082413D01*
X0143766Y0084011D02*
X0141400Y0084011D01*
X0141400Y0085610D02*
X0142167Y0085610D01*
X0141500Y0087208D02*
X0141400Y0087208D01*
X0141400Y0088807D02*
X0141500Y0088807D01*
X0141500Y0090405D02*
X0141400Y0090405D01*
X0141400Y0092004D02*
X0142836Y0092004D01*
X0144175Y0093602D02*
X0141400Y0093602D01*
X0141400Y0095201D02*
X0142576Y0095201D01*
X0141500Y0096799D02*
X0141400Y0096799D01*
X0141400Y0098398D02*
X0141500Y0098398D01*
X0141500Y0099997D02*
X0141400Y0099997D01*
X0141400Y0101595D02*
X0142427Y0101595D01*
X0141400Y0103194D02*
X0144026Y0103194D01*
X0141400Y0104792D02*
X0151400Y0104792D01*
X0152998Y0106391D02*
X0141400Y0106391D01*
X0141400Y0107989D02*
X0154597Y0107989D01*
X0154700Y0109588D02*
X0141400Y0109588D01*
X0141400Y0111186D02*
X0154700Y0111186D01*
X0154700Y0112785D02*
X0141400Y0112785D01*
X0141400Y0114383D02*
X0153394Y0114383D01*
X0152095Y0115982D02*
X0141400Y0115982D01*
X0141400Y0117580D02*
X0151500Y0117580D01*
X0151500Y0119179D02*
X0141400Y0119179D01*
X0141400Y0120777D02*
X0152018Y0120777D01*
X0153208Y0122376D02*
X0140867Y0122376D01*
X0139268Y0123974D02*
X0153634Y0123974D01*
X0152108Y0125573D02*
X0137670Y0125573D01*
X0136071Y0127171D02*
X0151440Y0127171D01*
X0151300Y0128770D02*
X0134473Y0128770D01*
X0132874Y0130368D02*
X0151633Y0130368D01*
X0152540Y0131967D02*
X0133322Y0131967D01*
X0133600Y0133565D02*
X0154680Y0133565D01*
X0156600Y0133565D02*
X0157000Y0133565D01*
X0157000Y0131967D02*
X0156600Y0131967D01*
X0156600Y0130368D02*
X0157000Y0130368D01*
X0157000Y0128770D02*
X0156600Y0128770D01*
X0159966Y0123974D02*
X0165701Y0123974D01*
X0165701Y0122376D02*
X0160392Y0122376D01*
X0161582Y0120777D02*
X0165701Y0120777D01*
X0165701Y0119179D02*
X0162100Y0119179D01*
X0162100Y0117580D02*
X0165701Y0117580D01*
X0165701Y0115982D02*
X0161505Y0115982D01*
X0160206Y0114383D02*
X0165701Y0114383D01*
X0165701Y0112785D02*
X0158900Y0112785D01*
X0158900Y0111186D02*
X0165701Y0111186D01*
X0165701Y0109588D02*
X0158900Y0109588D01*
X0158900Y0107989D02*
X0165701Y0107989D01*
X0165701Y0106391D02*
X0158900Y0106391D01*
X0157339Y0104792D02*
X0165701Y0104792D01*
X0165701Y0103194D02*
X0159857Y0103194D01*
X0161456Y0101595D02*
X0165701Y0101595D01*
X0165701Y0099997D02*
X0162300Y0099997D01*
X0163175Y0096799D02*
X0165701Y0096799D01*
X0165701Y0095201D02*
X0164981Y0095201D01*
X0165400Y0093602D02*
X0165701Y0093602D01*
X0165701Y0092004D02*
X0165088Y0092004D01*
X0165701Y0090405D02*
X0163900Y0090405D01*
X0163900Y0088807D02*
X0165701Y0088807D01*
X0165701Y0087208D02*
X0163900Y0087208D01*
X0163900Y0085610D02*
X0165701Y0085610D01*
X0165701Y0084011D02*
X0163900Y0084011D01*
X0163900Y0082413D02*
X0165701Y0082413D01*
X0165701Y0080814D02*
X0163900Y0080814D01*
X0163900Y0079216D02*
X0165701Y0079216D01*
X0165701Y0077617D02*
X0163900Y0077617D01*
X0163900Y0076019D02*
X0165701Y0076019D01*
X0165701Y0074420D02*
X0163900Y0074420D01*
X0163900Y0072822D02*
X0165701Y0072822D01*
X0165701Y0071223D02*
X0163900Y0071223D01*
X0163900Y0069625D02*
X0165701Y0069625D01*
X0165701Y0068026D02*
X0163900Y0068026D01*
X0163900Y0066428D02*
X0165701Y0066428D01*
X0165701Y0064829D02*
X0163900Y0064829D01*
X0163278Y0063231D02*
X0165701Y0063231D01*
X0165701Y0061632D02*
X0161680Y0061632D01*
X0162100Y0060034D02*
X0165701Y0060034D01*
X0165701Y0058435D02*
X0162100Y0058435D01*
X0162100Y0056837D02*
X0165701Y0056837D01*
X0165701Y0055238D02*
X0161061Y0055238D01*
X0159463Y0053640D02*
X0165701Y0053640D01*
X0165701Y0052041D02*
X0161009Y0052041D01*
X0162300Y0050443D02*
X0165701Y0050443D01*
X0165701Y0048844D02*
X0162300Y0048844D01*
X0162300Y0047246D02*
X0165701Y0047246D01*
X0165701Y0045647D02*
X0161753Y0045647D01*
X0160154Y0044049D02*
X0165701Y0044049D01*
X0165701Y0042450D02*
X0141400Y0042450D01*
X0141400Y0040852D02*
X0165701Y0040852D01*
X0165701Y0039253D02*
X0141400Y0039253D01*
X0141400Y0037655D02*
X0165701Y0037655D01*
X0165701Y0036056D02*
X0165035Y0036056D01*
X0157000Y0044049D02*
X0156600Y0044049D01*
X0156600Y0045647D02*
X0157000Y0045647D01*
X0157000Y0047246D02*
X0156600Y0047246D01*
X0153446Y0044049D02*
X0149871Y0044049D01*
X0151470Y0045647D02*
X0151847Y0045647D01*
X0143728Y0044049D02*
X0141400Y0044049D01*
X0141400Y0045647D02*
X0142130Y0045647D01*
X0141500Y0047246D02*
X0141400Y0047246D01*
X0141400Y0048844D02*
X0141500Y0048844D01*
X0141500Y0050443D02*
X0141400Y0050443D01*
X0141400Y0052041D02*
X0142873Y0052041D01*
X0144137Y0053640D02*
X0141400Y0053640D01*
X0141400Y0055238D02*
X0142539Y0055238D01*
X0141500Y0056837D02*
X0141400Y0056837D01*
X0141400Y0058435D02*
X0141500Y0058435D01*
X0141500Y0060034D02*
X0141400Y0060034D01*
X0141400Y0061632D02*
X0142464Y0061632D01*
X0141400Y0063231D02*
X0144063Y0063231D01*
X0142948Y0064829D02*
X0141400Y0064829D01*
X0141400Y0066428D02*
X0141500Y0066428D01*
X0141500Y0068026D02*
X0141400Y0068026D01*
X0141400Y0069625D02*
X0141500Y0069625D01*
X0141400Y0071223D02*
X0142056Y0071223D01*
X0142869Y0072822D02*
X0143654Y0072822D01*
X0133603Y0061632D02*
X0133184Y0061632D01*
X0131901Y0060034D02*
X0137200Y0060034D01*
X0137200Y0058435D02*
X0114733Y0058435D01*
X0111990Y0061632D02*
X0103184Y0061632D01*
X0103600Y0063231D02*
X0113588Y0063231D01*
X0114700Y0064829D02*
X0103384Y0064829D01*
X0101901Y0060034D02*
X0110391Y0060034D01*
X0105142Y0048844D02*
X0137200Y0048844D01*
X0137200Y0047246D02*
X0131266Y0047246D01*
X0131779Y0047033D02*
X0130235Y0047672D01*
X0123365Y0047672D01*
X0121821Y0047033D01*
X0120639Y0045852D01*
X0120000Y0044308D01*
X0120000Y0042637D01*
X0120639Y0041093D01*
X0121821Y0039912D01*
X0123365Y0039272D01*
X0130235Y0039272D01*
X0131779Y0039912D01*
X0132961Y0041093D01*
X0133600Y0042637D01*
X0133600Y0044308D01*
X0132961Y0045852D01*
X0131779Y0047033D01*
X0133045Y0045647D02*
X0137200Y0045647D01*
X0137200Y0044049D02*
X0133600Y0044049D01*
X0133523Y0042450D02*
X0137200Y0042450D01*
X0137200Y0040852D02*
X0132719Y0040852D01*
X0130279Y0037655D02*
X0137200Y0037655D01*
X0137200Y0039253D02*
X0078718Y0039253D01*
X0078718Y0037655D02*
X0093321Y0037655D01*
X0090844Y0036056D02*
X0078718Y0036056D01*
X0077656Y0034458D02*
X0090062Y0034458D01*
X0090881Y0040852D02*
X0078718Y0040852D01*
X0077720Y0042450D02*
X0090077Y0042450D01*
X0090000Y0044049D02*
X0054400Y0044049D01*
X0054400Y0043972D02*
X0054400Y0044772D01*
X0060200Y0044772D01*
X0060200Y0047009D01*
X0060077Y0047467D01*
X0059840Y0047878D01*
X0059505Y0048213D01*
X0059095Y0048450D01*
X0058637Y0048572D01*
X0054400Y0048572D01*
X0054400Y0044773D01*
X0053600Y0044773D01*
X0053600Y0048572D01*
X0049363Y0048572D01*
X0048905Y0048450D01*
X0048495Y0048213D01*
X0048160Y0047878D01*
X0047923Y0047467D01*
X0047800Y0047009D01*
X0047800Y0044772D01*
X0053600Y0044772D01*
X0053600Y0043972D01*
X0054400Y0043972D01*
X0054400Y0040172D01*
X0058637Y0040172D01*
X0059095Y0040295D01*
X0059505Y0040532D01*
X0059840Y0040867D01*
X0060077Y0041278D01*
X0060200Y0041735D01*
X0060200Y0043972D01*
X0054400Y0043972D01*
X0053600Y0043972D02*
X0053600Y0040172D01*
X0049363Y0040172D01*
X0048905Y0040295D01*
X0048495Y0040532D01*
X0048160Y0040867D01*
X0047923Y0041278D01*
X0047800Y0041735D01*
X0047800Y0043972D01*
X0053600Y0043972D01*
X0053600Y0044049D02*
X0038900Y0044049D01*
X0038900Y0045647D02*
X0047800Y0045647D01*
X0047863Y0047246D02*
X0038900Y0047246D01*
X0040142Y0048844D02*
X0065082Y0048844D01*
X0065082Y0047246D02*
X0060137Y0047246D01*
X0060200Y0045647D02*
X0065082Y0045647D01*
X0065082Y0050443D02*
X0060000Y0050443D01*
X0060000Y0050410D02*
X0060000Y0056535D01*
X0059063Y0057472D01*
X0048937Y0057472D01*
X0048000Y0056535D01*
X0048000Y0050410D01*
X0048937Y0049472D01*
X0059063Y0049472D01*
X0060000Y0050410D01*
X0060000Y0052041D02*
X0065626Y0052041D01*
X0065950Y0053640D02*
X0060000Y0053640D01*
X0060000Y0055238D02*
X0065291Y0055238D01*
X0061716Y0056837D02*
X0059698Y0056837D01*
X0060117Y0058435D02*
X0049733Y0058435D01*
X0048302Y0056837D02*
X0048134Y0056837D01*
X0048000Y0055238D02*
X0046536Y0055238D01*
X0048000Y0053640D02*
X0044937Y0053640D01*
X0043339Y0052041D02*
X0048000Y0052041D01*
X0048000Y0050443D02*
X0041740Y0050443D01*
X0038997Y0053640D02*
X0035530Y0053640D01*
X0035530Y0055238D02*
X0040596Y0055238D01*
X0042194Y0056837D02*
X0035530Y0056837D01*
X0035530Y0058435D02*
X0043793Y0058435D01*
X0045391Y0060034D02*
X0035530Y0060034D01*
X0035119Y0061632D02*
X0046990Y0061632D01*
X0048000Y0063231D02*
X0022512Y0063231D01*
X0021400Y0064829D02*
X0048000Y0064829D01*
X0048793Y0066428D02*
X0021400Y0066428D01*
X0021400Y0068026D02*
X0060905Y0068026D01*
X0059712Y0069625D02*
X0021400Y0069625D01*
X0021400Y0071223D02*
X0059450Y0071223D01*
X0059919Y0072822D02*
X0021400Y0072822D01*
X0021400Y0074420D02*
X0023121Y0074420D01*
X0023074Y0074433D02*
X0023532Y0074310D01*
X0025343Y0074310D01*
X0025343Y0078472D01*
X0025343Y0078472D01*
X0021969Y0078472D01*
X0021969Y0075873D01*
X0022091Y0075415D01*
X0022328Y0075005D01*
X0022663Y0074670D01*
X0023074Y0074433D01*
X0021969Y0076019D02*
X0021431Y0076019D01*
X0021431Y0077617D02*
X0021969Y0077617D01*
X0021968Y0078472D02*
X0025343Y0078472D01*
X0025343Y0078472D01*
X0025343Y0074310D01*
X0027155Y0074310D01*
X0027613Y0074433D01*
X0028023Y0074670D01*
X0028358Y0075005D01*
X0028595Y0075415D01*
X0028718Y0075873D01*
X0028718Y0078472D01*
X0025343Y0078472D01*
X0025343Y0078472D01*
X0025343Y0078473D02*
X0025343Y0082635D01*
X0023532Y0082635D01*
X0023074Y0082512D01*
X0022663Y0082275D01*
X0022328Y0081940D01*
X0022091Y0081529D01*
X0021969Y0081072D01*
X0021968Y0078472D01*
X0021969Y0079216D02*
X0021431Y0079216D01*
X0021431Y0080814D02*
X0021969Y0080814D01*
X0022902Y0082413D02*
X0020516Y0082413D01*
X0020150Y0084011D02*
X0034756Y0084011D01*
X0033563Y0083272D02*
X0033105Y0083150D01*
X0032695Y0082913D01*
X0032360Y0082578D01*
X0032123Y0082167D01*
X0032000Y0081709D01*
X0032000Y0078672D01*
X0036600Y0078672D01*
X0036600Y0078272D01*
X0037000Y0078272D01*
X0037000Y0073672D01*
X0040037Y0073672D01*
X0040495Y0073795D01*
X0040905Y0074032D01*
X0041240Y0074367D01*
X0041477Y0074778D01*
X0041600Y0075235D01*
X0041600Y0078272D01*
X0037000Y0078272D01*
X0037000Y0078672D01*
X0041600Y0078672D01*
X0041600Y0081709D01*
X0041477Y0082167D01*
X0041240Y0082578D01*
X0040905Y0082913D01*
X0040495Y0083150D01*
X0040037Y0083272D01*
X0037000Y0083272D01*
X0037000Y0078673D01*
X0036600Y0078673D01*
X0036600Y0083272D01*
X0033563Y0083272D01*
X0032265Y0082413D02*
X0027784Y0082413D01*
X0027613Y0082512D02*
X0027155Y0082635D01*
X0025343Y0082635D01*
X0025343Y0078473D01*
X0025343Y0078473D01*
X0025343Y0078472D02*
X0028718Y0078472D01*
X0028718Y0081072D01*
X0028595Y0081529D01*
X0028358Y0081940D01*
X0028023Y0082275D01*
X0027613Y0082512D01*
X0027155Y0084310D02*
X0025343Y0084310D01*
X0025343Y0088472D01*
X0025343Y0088472D01*
X0021969Y0088472D01*
X0021969Y0085873D01*
X0022091Y0085415D01*
X0022328Y0085005D01*
X0022663Y0084670D01*
X0023074Y0084433D01*
X0023532Y0084310D01*
X0025343Y0084310D01*
X0025343Y0088472D01*
X0025343Y0088472D01*
X0021968Y0088472D01*
X0021969Y0091072D01*
X0022091Y0091529D01*
X0022328Y0091940D01*
X0022663Y0092275D01*
X0023074Y0092512D01*
X0023532Y0092635D01*
X0025343Y0092635D01*
X0025343Y0088473D01*
X0025343Y0088473D01*
X0025343Y0092635D01*
X0027155Y0092635D01*
X0027613Y0092512D01*
X0028023Y0092275D01*
X0028358Y0091940D01*
X0028595Y0091529D01*
X0028718Y0091072D01*
X0028718Y0088472D01*
X0025343Y0088472D01*
X0025343Y0088472D01*
X0028718Y0088472D01*
X0028718Y0085873D01*
X0028595Y0085415D01*
X0028358Y0085005D01*
X0028023Y0084670D01*
X0027613Y0084433D01*
X0027155Y0084310D01*
X0028648Y0085610D02*
X0033157Y0085610D01*
X0032200Y0087208D02*
X0028718Y0087208D01*
X0028718Y0088807D02*
X0032200Y0088807D01*
X0030647Y0090405D02*
X0028718Y0090405D01*
X0029049Y0092004D02*
X0028294Y0092004D01*
X0027450Y0093602D02*
X0023650Y0093602D01*
X0022392Y0092004D02*
X0022051Y0092004D01*
X0021969Y0090405D02*
X0021431Y0090405D01*
X0021431Y0088807D02*
X0021969Y0088807D01*
X0021969Y0087208D02*
X0021431Y0087208D01*
X0021431Y0085610D02*
X0022039Y0085610D01*
X0025343Y0085610D02*
X0025343Y0085610D01*
X0025343Y0087208D02*
X0025343Y0087208D01*
X0025343Y0088807D02*
X0025343Y0088807D01*
X0025343Y0090405D02*
X0025343Y0090405D01*
X0025343Y0092004D02*
X0025343Y0092004D01*
X0030193Y0096799D02*
X0049700Y0096799D01*
X0049700Y0095201D02*
X0031791Y0095201D01*
X0033390Y0093602D02*
X0049700Y0093602D01*
X0048705Y0093072D02*
X0044895Y0093072D01*
X0042200Y0090378D01*
X0042200Y0086567D01*
X0044895Y0083872D01*
X0048705Y0083872D01*
X0049700Y0084867D01*
X0049700Y0082603D01*
X0052200Y0080103D01*
X0052200Y0076567D01*
X0054895Y0073872D01*
X0058705Y0073872D01*
X0061400Y0076567D01*
X0061400Y0080378D01*
X0058705Y0083072D01*
X0055170Y0083072D01*
X0053900Y0084342D01*
X0053900Y0084867D01*
X0054895Y0083872D01*
X0058705Y0083872D01*
X0061400Y0086567D01*
X0061400Y0090378D01*
X0058900Y0092878D01*
X0058900Y0108877D01*
X0059605Y0108172D01*
X0063995Y0108172D01*
X0067100Y0111277D01*
X0067100Y0112622D01*
X0072907Y0112622D01*
X0073775Y0111754D01*
X0079825Y0111754D01*
X0080762Y0112692D01*
X0080762Y0113215D01*
X0081400Y0113853D01*
X0085150Y0117603D01*
X0085150Y0138853D01*
X0090000Y0143703D01*
X0090000Y0142637D01*
X0090639Y0141093D01*
X0091821Y0139912D01*
X0093365Y0139272D01*
X0100235Y0139272D01*
X0101779Y0139912D01*
X0102961Y0141093D01*
X0103600Y0142637D01*
X0103600Y0144308D01*
X0103144Y0145409D01*
X0105082Y0143471D01*
X0105082Y0140447D01*
X0106019Y0139510D01*
X0110494Y0139510D01*
X0111431Y0140447D01*
X0111431Y0146497D01*
X0110494Y0147435D01*
X0107058Y0147435D01*
X0103089Y0151403D01*
X0103600Y0152637D01*
X0103600Y0154308D01*
X0102961Y0155852D01*
X0101779Y0157033D01*
X0100235Y0157672D01*
X0093365Y0157672D01*
X0091821Y0157033D01*
X0090639Y0155852D01*
X0090000Y0154308D01*
X0090000Y0152637D01*
X0090639Y0151093D01*
X0091045Y0150688D01*
X0082180Y0141822D01*
X0080950Y0140592D01*
X0080950Y0119342D01*
X0079712Y0118104D01*
X0073775Y0118104D01*
X0072838Y0117167D01*
X0072838Y0116822D01*
X0065945Y0116822D01*
X0064437Y0118331D01*
X0067300Y0121194D01*
X0067300Y0123272D01*
X0062000Y0123272D01*
X0062000Y0123672D01*
X0067300Y0123672D01*
X0067300Y0125751D01*
X0064078Y0128972D01*
X0062000Y0128972D01*
X0062000Y0123673D01*
X0061600Y0123673D01*
X0061600Y0128972D01*
X0059522Y0128972D01*
X0056659Y0126109D01*
X0053995Y0128772D01*
X0049605Y0128772D01*
X0046800Y0125968D01*
X0043995Y0128772D01*
X0039605Y0128772D01*
X0036500Y0125668D01*
X0036500Y0121277D01*
X0039005Y0118772D01*
X0037437Y0118772D01*
X0036500Y0117835D01*
X0036500Y0109110D01*
X0037437Y0108172D01*
X0046163Y0108172D01*
X0047100Y0109110D01*
X0047100Y0110677D01*
X0049605Y0108172D01*
X0049700Y0108172D01*
X0049700Y0092078D01*
X0048705Y0093072D01*
X0043826Y0092004D02*
X0039774Y0092004D01*
X0041372Y0090405D02*
X0042228Y0090405D01*
X0042200Y0088807D02*
X0041400Y0088807D01*
X0041400Y0087208D02*
X0042200Y0087208D01*
X0043157Y0085610D02*
X0040443Y0085610D01*
X0038844Y0084011D02*
X0044756Y0084011D01*
X0044895Y0083072D02*
X0042200Y0080378D01*
X0042200Y0076567D01*
X0044895Y0073872D01*
X0048705Y0073872D01*
X0051400Y0076567D01*
X0051400Y0080378D01*
X0048705Y0083072D01*
X0044895Y0083072D01*
X0044235Y0082413D02*
X0041335Y0082413D01*
X0041600Y0080814D02*
X0042637Y0080814D01*
X0042200Y0079216D02*
X0041600Y0079216D01*
X0041600Y0077617D02*
X0042200Y0077617D01*
X0042748Y0076019D02*
X0041600Y0076019D01*
X0041271Y0074420D02*
X0044347Y0074420D01*
X0049253Y0074420D02*
X0054347Y0074420D01*
X0052748Y0076019D02*
X0050852Y0076019D01*
X0051400Y0077617D02*
X0052200Y0077617D01*
X0052200Y0079216D02*
X0051400Y0079216D01*
X0051488Y0080814D02*
X0050963Y0080814D01*
X0049890Y0082413D02*
X0049365Y0082413D01*
X0049700Y0084011D02*
X0048844Y0084011D01*
X0054231Y0084011D02*
X0054756Y0084011D01*
X0058844Y0084011D02*
X0064756Y0084011D01*
X0064895Y0083872D02*
X0068705Y0083872D01*
X0071400Y0086567D01*
X0071400Y0090378D01*
X0068705Y0093072D01*
X0064895Y0093072D01*
X0062200Y0090378D01*
X0062200Y0086567D01*
X0064895Y0083872D01*
X0064235Y0082413D02*
X0059365Y0082413D01*
X0060963Y0080814D02*
X0062637Y0080814D01*
X0062200Y0079216D02*
X0061400Y0079216D01*
X0061400Y0077617D02*
X0062200Y0077617D01*
X0062748Y0076019D02*
X0060852Y0076019D01*
X0061967Y0074420D02*
X0059253Y0074420D01*
X0066650Y0071223D02*
X0067831Y0071223D01*
X0067869Y0072822D02*
X0069430Y0072822D01*
X0069253Y0074420D02*
X0071028Y0074420D01*
X0070852Y0076019D02*
X0072627Y0076019D01*
X0071415Y0077617D02*
X0074225Y0077617D01*
X0073013Y0079216D02*
X0075824Y0079216D01*
X0074612Y0080814D02*
X0077422Y0080814D01*
X0076210Y0082413D02*
X0079021Y0082413D01*
X0080619Y0084011D02*
X0076400Y0084011D01*
X0076400Y0085610D02*
X0082218Y0085610D01*
X0083816Y0087208D02*
X0076400Y0087208D01*
X0076400Y0088807D02*
X0085415Y0088807D01*
X0087013Y0090405D02*
X0076400Y0090405D01*
X0076238Y0092004D02*
X0088612Y0092004D01*
X0090000Y0093602D02*
X0074640Y0093602D01*
X0075170Y0093072D02*
X0075170Y0093072D01*
X0073041Y0095201D02*
X0090370Y0095201D01*
X0091587Y0096799D02*
X0071443Y0096799D01*
X0069844Y0098398D02*
X0103756Y0098398D01*
X0105354Y0099997D02*
X0101864Y0099997D01*
X0101779Y0099912D02*
X0102961Y0101093D01*
X0103600Y0102637D01*
X0103600Y0104308D01*
X0102961Y0105852D01*
X0101779Y0107033D01*
X0100235Y0107672D01*
X0093365Y0107672D01*
X0091821Y0107033D01*
X0090639Y0105852D01*
X0090000Y0104308D01*
X0090000Y0102637D01*
X0090639Y0101093D01*
X0091821Y0099912D01*
X0093365Y0099272D01*
X0100235Y0099272D01*
X0101779Y0099912D01*
X0103168Y0101595D02*
X0106953Y0101595D01*
X0108551Y0103194D02*
X0103600Y0103194D01*
X0103399Y0104792D02*
X0110150Y0104792D01*
X0111748Y0106391D02*
X0102422Y0106391D01*
X0100996Y0109588D02*
X0113450Y0109588D01*
X0113450Y0111186D02*
X0102999Y0111186D01*
X0102961Y0111093D02*
X0103600Y0112637D01*
X0103600Y0114308D01*
X0102961Y0115852D01*
X0101779Y0117033D01*
X0100235Y0117672D01*
X0093365Y0117672D01*
X0091821Y0117033D01*
X0090639Y0115852D01*
X0090000Y0114308D01*
X0090000Y0112637D01*
X0090639Y0111093D01*
X0091821Y0109912D01*
X0093365Y0109272D01*
X0100235Y0109272D01*
X0101779Y0109912D01*
X0102961Y0111093D01*
X0103600Y0112785D02*
X0113450Y0112785D01*
X0113450Y0114383D02*
X0103569Y0114383D01*
X0102830Y0115982D02*
X0113450Y0115982D01*
X0113450Y0117580D02*
X0100458Y0117580D01*
X0100235Y0119272D02*
X0101779Y0119912D01*
X0102961Y0121093D01*
X0103600Y0122637D01*
X0103600Y0124308D01*
X0102961Y0125852D01*
X0101779Y0127033D01*
X0100235Y0127672D01*
X0093365Y0127672D01*
X0091821Y0127033D01*
X0090639Y0125852D01*
X0090000Y0124308D01*
X0090000Y0122637D01*
X0090639Y0121093D01*
X0091821Y0119912D01*
X0093365Y0119272D01*
X0100235Y0119272D01*
X0102644Y0120777D02*
X0113450Y0120777D01*
X0113450Y0119179D02*
X0085150Y0119179D01*
X0085150Y0120777D02*
X0090956Y0120777D01*
X0090108Y0122376D02*
X0085150Y0122376D01*
X0085150Y0123974D02*
X0090000Y0123974D01*
X0090524Y0125573D02*
X0085150Y0125573D01*
X0085150Y0127171D02*
X0092155Y0127171D01*
X0093365Y0129272D02*
X0100235Y0129272D01*
X0101779Y0129912D01*
X0102961Y0131093D01*
X0103600Y0132637D01*
X0103600Y0134308D01*
X0102961Y0135852D01*
X0101779Y0137033D01*
X0100235Y0137672D01*
X0093365Y0137672D01*
X0091821Y0137033D01*
X0090639Y0135852D01*
X0090000Y0134308D01*
X0090000Y0132637D01*
X0090639Y0131093D01*
X0091821Y0129912D01*
X0093365Y0129272D01*
X0091365Y0130368D02*
X0085150Y0130368D01*
X0085150Y0128770D02*
X0113450Y0128770D01*
X0113450Y0130368D02*
X0102235Y0130368D01*
X0103322Y0131967D02*
X0113450Y0131967D01*
X0113450Y0133565D02*
X0103600Y0133565D01*
X0103245Y0135164D02*
X0113450Y0135164D01*
X0113450Y0136762D02*
X0102050Y0136762D01*
X0101827Y0139959D02*
X0105570Y0139959D01*
X0105082Y0141558D02*
X0103153Y0141558D01*
X0103600Y0143156D02*
X0105082Y0143156D01*
X0103798Y0144755D02*
X0103415Y0144755D01*
X0106540Y0147952D02*
X0153608Y0147952D01*
X0153917Y0148176D02*
X0153217Y0147668D01*
X0152605Y0147055D01*
X0152096Y0146355D01*
X0151703Y0145584D01*
X0151435Y0144760D01*
X0151300Y0143905D01*
X0151300Y0143672D01*
X0156600Y0143672D01*
X0156600Y0143272D01*
X0157000Y0143272D01*
X0157000Y0137972D01*
X0157233Y0137972D01*
X0158088Y0138108D01*
X0158911Y0138375D01*
X0159683Y0138768D01*
X0160383Y0139277D01*
X0160995Y0139889D01*
X0161504Y0140590D01*
X0161897Y0141361D01*
X0162165Y0142185D01*
X0162300Y0143040D01*
X0162300Y0143272D01*
X0157000Y0143272D01*
X0157000Y0143672D01*
X0162300Y0143672D01*
X0162300Y0143905D01*
X0162165Y0144760D01*
X0161897Y0145584D01*
X0161504Y0146355D01*
X0160995Y0147055D01*
X0160383Y0147668D01*
X0159683Y0148176D01*
X0158911Y0148569D01*
X0158856Y0148587D01*
X0159802Y0148979D01*
X0161293Y0150470D01*
X0162100Y0152418D01*
X0162100Y0154527D01*
X0161293Y0156475D01*
X0159802Y0157966D01*
X0157854Y0158772D01*
X0155746Y0158772D01*
X0153798Y0157966D01*
X0152307Y0156475D01*
X0151500Y0154527D01*
X0151500Y0152418D01*
X0152307Y0150470D01*
X0153798Y0148979D01*
X0154744Y0148587D01*
X0154689Y0148569D01*
X0153917Y0148176D01*
X0153227Y0149550D02*
X0130906Y0149550D01*
X0130235Y0149272D02*
X0131779Y0149912D01*
X0132961Y0151093D01*
X0133600Y0152637D01*
X0133600Y0154308D01*
X0132961Y0155852D01*
X0131779Y0157033D01*
X0130235Y0157672D01*
X0123365Y0157672D01*
X0121821Y0157033D01*
X0120639Y0155852D01*
X0120000Y0154308D01*
X0120000Y0152637D01*
X0120639Y0151093D01*
X0121821Y0149912D01*
X0123365Y0149272D01*
X0130235Y0149272D01*
X0130235Y0147672D02*
X0131779Y0147033D01*
X0132961Y0145852D01*
X0133600Y0144308D01*
X0133600Y0142637D01*
X0132961Y0141093D01*
X0131779Y0139912D01*
X0130235Y0139272D01*
X0123365Y0139272D01*
X0121821Y0139912D01*
X0120639Y0141093D01*
X0120000Y0142637D01*
X0120000Y0144308D01*
X0120639Y0145852D01*
X0121821Y0147033D01*
X0123365Y0147672D01*
X0130235Y0147672D01*
X0132459Y0146353D02*
X0152095Y0146353D01*
X0151435Y0144755D02*
X0133415Y0144755D01*
X0133600Y0143156D02*
X0151300Y0143156D01*
X0151300Y0143272D02*
X0151300Y0143040D01*
X0151435Y0142185D01*
X0151703Y0141361D01*
X0152096Y0140590D01*
X0152605Y0139889D01*
X0153217Y0139277D01*
X0153917Y0138768D01*
X0154689Y0138375D01*
X0155512Y0138108D01*
X0156367Y0137972D01*
X0156600Y0137972D01*
X0156600Y0143272D01*
X0151300Y0143272D01*
X0151639Y0141558D02*
X0133153Y0141558D01*
X0131827Y0139959D02*
X0152554Y0139959D01*
X0154734Y0138361D02*
X0117650Y0138361D01*
X0117650Y0136762D02*
X0121550Y0136762D01*
X0120355Y0135164D02*
X0117650Y0135164D01*
X0117650Y0133565D02*
X0120000Y0133565D01*
X0120278Y0131967D02*
X0117650Y0131967D01*
X0117650Y0130368D02*
X0121365Y0130368D01*
X0122155Y0127171D02*
X0117650Y0127171D01*
X0117650Y0125573D02*
X0120524Y0125573D01*
X0120000Y0123974D02*
X0117650Y0123974D01*
X0117650Y0122376D02*
X0120108Y0122376D01*
X0120956Y0120777D02*
X0117650Y0120777D01*
X0117650Y0119179D02*
X0137200Y0119179D01*
X0137200Y0117580D02*
X0130458Y0117580D01*
X0130235Y0117672D02*
X0131779Y0117033D01*
X0132961Y0115852D01*
X0133600Y0114308D01*
X0133600Y0112637D01*
X0132961Y0111093D01*
X0131779Y0109912D01*
X0130235Y0109272D01*
X0123365Y0109272D01*
X0121821Y0109912D01*
X0120639Y0111093D01*
X0120000Y0112637D01*
X0120000Y0114308D01*
X0120639Y0115852D01*
X0121821Y0117033D01*
X0123365Y0117672D01*
X0130235Y0117672D01*
X0132830Y0115982D02*
X0137200Y0115982D01*
X0137200Y0114383D02*
X0133569Y0114383D01*
X0133600Y0112785D02*
X0137200Y0112785D01*
X0137200Y0111186D02*
X0132999Y0111186D01*
X0130996Y0109588D02*
X0137200Y0109588D01*
X0137200Y0098398D02*
X0109695Y0098398D01*
X0102157Y0096799D02*
X0102013Y0096799D01*
X0096800Y0087872D02*
X0096800Y0083473D01*
X0096800Y0087872D01*
X0096800Y0087208D02*
X0096800Y0087208D01*
X0096800Y0085610D02*
X0096800Y0085610D01*
X0096800Y0084011D02*
X0096800Y0084011D01*
X0096800Y0083473D02*
X0096800Y0083473D01*
X0096800Y0082413D02*
X0096800Y0082413D01*
X0096800Y0080814D02*
X0096800Y0080814D01*
X0096800Y0079216D02*
X0096800Y0079216D01*
X0091216Y0066428D02*
X0068975Y0066428D01*
X0067377Y0064829D02*
X0090216Y0064829D01*
X0090000Y0063231D02*
X0065778Y0063231D01*
X0065217Y0061632D02*
X0064180Y0061632D01*
X0061437Y0064829D02*
X0060000Y0064829D01*
X0059207Y0066428D02*
X0063036Y0066428D01*
X0071297Y0061632D02*
X0072151Y0061632D01*
X0071969Y0060034D02*
X0071431Y0060034D01*
X0071431Y0058435D02*
X0071969Y0058435D01*
X0071969Y0056837D02*
X0071431Y0056837D01*
X0071222Y0055238D02*
X0072193Y0055238D01*
X0070150Y0053640D02*
X0090000Y0053640D01*
X0090247Y0052041D02*
X0078257Y0052041D01*
X0078718Y0050443D02*
X0091290Y0050443D01*
X0092334Y0047246D02*
X0078718Y0047246D01*
X0078718Y0048844D02*
X0099202Y0048844D01*
X0103543Y0047246D02*
X0122334Y0047246D01*
X0120555Y0045647D02*
X0103045Y0045647D01*
X0103600Y0044049D02*
X0120000Y0044049D01*
X0120077Y0042450D02*
X0103523Y0042450D01*
X0102719Y0040852D02*
X0120881Y0040852D01*
X0123321Y0037655D02*
X0100279Y0037655D01*
X0102756Y0036056D02*
X0120844Y0036056D01*
X0120062Y0034458D02*
X0103538Y0034458D01*
X0103600Y0032859D02*
X0120000Y0032859D01*
X0120570Y0031261D02*
X0103030Y0031261D01*
X0101176Y0029662D02*
X0122424Y0029662D01*
X0121253Y0026465D02*
X0102347Y0026465D01*
X0103369Y0024866D02*
X0120231Y0024866D01*
X0120000Y0023268D02*
X0103600Y0023268D01*
X0103199Y0021669D02*
X0120401Y0021669D01*
X0121662Y0020071D02*
X0101938Y0020071D01*
X0090555Y0045647D02*
X0078658Y0045647D01*
X0072967Y0042450D02*
X0060200Y0042450D01*
X0060338Y0040852D02*
X0059825Y0040852D01*
X0059477Y0039253D02*
X0038900Y0039253D01*
X0038900Y0040852D02*
X0048175Y0040852D01*
X0047942Y0039249D02*
X0046918Y0039249D01*
X0046918Y0034693D01*
X0046918Y0034693D01*
X0046918Y0034693D01*
X0049505Y0034693D01*
X0049505Y0037686D01*
X0049383Y0038144D01*
X0049146Y0038554D01*
X0048811Y0038889D01*
X0048400Y0039126D01*
X0047942Y0039249D01*
X0046918Y0037655D02*
X0046918Y0037655D01*
X0046918Y0036056D02*
X0046918Y0036056D01*
X0046918Y0034693D02*
X0046918Y0034693D01*
X0046918Y0030137D01*
X0047942Y0030137D01*
X0048400Y0030260D01*
X0048811Y0030497D01*
X0049146Y0030832D01*
X0049383Y0031242D01*
X0049505Y0031700D01*
X0049505Y0034693D01*
X0046918Y0034693D01*
X0046918Y0034458D02*
X0046918Y0034458D01*
X0046918Y0032859D02*
X0046918Y0032859D01*
X0046918Y0031261D02*
X0046918Y0031261D01*
X0049388Y0031261D02*
X0065082Y0031261D01*
X0065950Y0032859D02*
X0049505Y0032859D01*
X0049505Y0034458D02*
X0065950Y0034458D01*
X0070150Y0034458D02*
X0073031Y0034458D01*
X0071969Y0036056D02*
X0071431Y0036056D01*
X0071431Y0037655D02*
X0071969Y0037655D01*
X0071969Y0039253D02*
X0071431Y0039253D01*
X0071431Y0040852D02*
X0071969Y0040852D01*
X0072029Y0045647D02*
X0071431Y0045647D01*
X0071431Y0047246D02*
X0071969Y0047246D01*
X0071969Y0048844D02*
X0071431Y0048844D01*
X0071431Y0050443D02*
X0071969Y0050443D01*
X0072429Y0052041D02*
X0070888Y0052041D01*
X0078493Y0055238D02*
X0090385Y0055238D01*
X0091625Y0056837D02*
X0078718Y0056837D01*
X0059492Y0037655D02*
X0049505Y0037655D01*
X0049505Y0036056D02*
X0060375Y0036056D01*
X0054400Y0040852D02*
X0053600Y0040852D01*
X0053600Y0042450D02*
X0054400Y0042450D01*
X0054400Y0045647D02*
X0053600Y0045647D01*
X0053600Y0047246D02*
X0054400Y0047246D01*
X0047800Y0042450D02*
X0038900Y0042450D01*
X0034700Y0042450D02*
X0011600Y0042450D01*
X0011600Y0040852D02*
X0034700Y0040852D01*
X0034700Y0039253D02*
X0011600Y0039253D01*
X0011600Y0037655D02*
X0034294Y0037655D01*
X0034294Y0036056D02*
X0011600Y0036056D01*
X0011600Y0034458D02*
X0034294Y0034458D01*
X0034294Y0032859D02*
X0011600Y0032859D01*
X0011600Y0031261D02*
X0034308Y0031261D01*
X0034700Y0044049D02*
X0011600Y0044049D01*
X0011600Y0045647D02*
X0023744Y0045647D01*
X0023669Y0047246D02*
X0011600Y0047246D01*
X0011600Y0048844D02*
X0023669Y0048844D01*
X0023669Y0050443D02*
X0011600Y0050443D01*
X0011600Y0052041D02*
X0023669Y0052041D01*
X0023669Y0053640D02*
X0011600Y0053640D01*
X0011600Y0055238D02*
X0023669Y0055238D01*
X0022966Y0056837D02*
X0011600Y0056837D01*
X0011600Y0058435D02*
X0021367Y0058435D01*
X0019769Y0060034D02*
X0011600Y0060034D01*
X0011600Y0061632D02*
X0018170Y0061632D01*
X0017200Y0063231D02*
X0011600Y0063231D01*
X0011600Y0064829D02*
X0017200Y0064829D01*
X0017200Y0066428D02*
X0011600Y0066428D01*
X0011600Y0068026D02*
X0017200Y0068026D01*
X0017200Y0069625D02*
X0011600Y0069625D01*
X0011600Y0071223D02*
X0017200Y0071223D01*
X0017200Y0072822D02*
X0011600Y0072822D01*
X0011600Y0074420D02*
X0017200Y0074420D01*
X0015082Y0076019D02*
X0011600Y0076019D01*
X0011600Y0077617D02*
X0015082Y0077617D01*
X0015082Y0079216D02*
X0011600Y0079216D01*
X0011600Y0080814D02*
X0015082Y0080814D01*
X0015950Y0082413D02*
X0011600Y0082413D01*
X0011600Y0084011D02*
X0015950Y0084011D01*
X0015082Y0085610D02*
X0011600Y0085610D01*
X0011600Y0087208D02*
X0015082Y0087208D01*
X0015082Y0088807D02*
X0011600Y0088807D01*
X0011600Y0090405D02*
X0015082Y0090405D01*
X0015588Y0092004D02*
X0011600Y0092004D01*
X0011600Y0093602D02*
X0017710Y0093602D01*
X0019309Y0095201D02*
X0011600Y0095201D01*
X0011600Y0096799D02*
X0020907Y0096799D01*
X0011600Y0098398D02*
X0049700Y0098398D01*
X0049700Y0099997D02*
X0011600Y0099997D01*
X0011600Y0101595D02*
X0049700Y0101595D01*
X0049700Y0103194D02*
X0011600Y0103194D01*
X0011600Y0104792D02*
X0049700Y0104792D01*
X0049700Y0106391D02*
X0011600Y0106391D01*
X0011600Y0107989D02*
X0049700Y0107989D01*
X0048190Y0109588D02*
X0047100Y0109588D01*
X0038598Y0119179D02*
X0011600Y0119179D01*
X0011600Y0120777D02*
X0037000Y0120777D01*
X0036500Y0122376D02*
X0011600Y0122376D01*
X0011600Y0123974D02*
X0036500Y0123974D01*
X0036500Y0125573D02*
X0011600Y0125573D01*
X0011600Y0127171D02*
X0038003Y0127171D01*
X0039602Y0128770D02*
X0011600Y0128770D01*
X0011600Y0130368D02*
X0074700Y0130368D01*
X0074700Y0128770D02*
X0064281Y0128770D01*
X0065879Y0127171D02*
X0074700Y0127171D01*
X0074700Y0125573D02*
X0067300Y0125573D01*
X0067300Y0123974D02*
X0072838Y0123974D01*
X0072838Y0124253D02*
X0072838Y0119778D01*
X0073775Y0118841D01*
X0079825Y0118841D01*
X0080762Y0119778D01*
X0080762Y0124253D01*
X0079825Y0125191D01*
X0078900Y0125191D01*
X0078900Y0143606D01*
X0079802Y0143979D01*
X0081293Y0145470D01*
X0082100Y0147418D01*
X0082100Y0149527D01*
X0081293Y0151475D01*
X0079802Y0152966D01*
X0077854Y0153772D01*
X0075746Y0153772D01*
X0073798Y0152966D01*
X0072307Y0151475D01*
X0071800Y0150251D01*
X0071293Y0151475D01*
X0069802Y0152966D01*
X0067854Y0153772D01*
X0065746Y0153772D01*
X0063798Y0152966D01*
X0062307Y0151475D01*
X0061800Y0150251D01*
X0061293Y0151475D01*
X0059802Y0152966D01*
X0057854Y0153772D01*
X0055746Y0153772D01*
X0053798Y0152966D01*
X0052307Y0151475D01*
X0051800Y0150251D01*
X0051293Y0151475D01*
X0049802Y0152966D01*
X0048900Y0153339D01*
X0048900Y0154342D01*
X0047670Y0155572D01*
X0045170Y0158072D01*
X0035170Y0158072D01*
X0030656Y0162586D01*
X0030762Y0162692D01*
X0030762Y0167167D01*
X0029825Y0168104D01*
X0023775Y0168104D01*
X0022838Y0167167D01*
X0022838Y0162692D01*
X0023775Y0161754D01*
X0025548Y0161754D01*
X0025930Y0161372D01*
X0032200Y0155103D01*
X0033430Y0153872D01*
X0043430Y0153872D01*
X0044179Y0153123D01*
X0043798Y0152966D01*
X0042307Y0151475D01*
X0041800Y0150251D01*
X0041293Y0151475D01*
X0039802Y0152966D01*
X0037854Y0153772D01*
X0035746Y0153772D01*
X0033798Y0152966D01*
X0032307Y0151475D01*
X0031915Y0150528D01*
X0031897Y0150584D01*
X0031504Y0151355D01*
X0030995Y0152055D01*
X0030383Y0152668D01*
X0029683Y0153176D01*
X0028911Y0153569D01*
X0028088Y0153837D01*
X0027233Y0153972D01*
X0027000Y0153972D01*
X0027000Y0148673D01*
X0026600Y0148673D01*
X0026600Y0153972D01*
X0026367Y0153972D01*
X0025512Y0153837D01*
X0024689Y0153569D01*
X0023917Y0153176D01*
X0023217Y0152668D01*
X0022605Y0152055D01*
X0022096Y0151355D01*
X0021703Y0150584D01*
X0021435Y0149760D01*
X0021300Y0148905D01*
X0021300Y0148672D01*
X0026600Y0148672D01*
X0026600Y0148272D01*
X0027000Y0148272D01*
X0027000Y0142972D01*
X0027233Y0142972D01*
X0028088Y0143108D01*
X0028911Y0143375D01*
X0029683Y0143768D01*
X0030383Y0144277D01*
X0030995Y0144889D01*
X0031504Y0145590D01*
X0031897Y0146361D01*
X0031915Y0146416D01*
X0032307Y0145470D01*
X0033798Y0143979D01*
X0035746Y0143172D01*
X0037854Y0143172D01*
X0039802Y0143979D01*
X0041293Y0145470D01*
X0041800Y0146694D01*
X0042307Y0145470D01*
X0043798Y0143979D01*
X0045746Y0143172D01*
X0047854Y0143172D01*
X0049802Y0143979D01*
X0051293Y0145470D01*
X0051800Y0146694D01*
X0052307Y0145470D01*
X0053798Y0143979D01*
X0055746Y0143172D01*
X0057854Y0143172D01*
X0059802Y0143979D01*
X0061293Y0145470D01*
X0061800Y0146694D01*
X0062307Y0145470D01*
X0063798Y0143979D01*
X0065746Y0143172D01*
X0067854Y0143172D01*
X0069802Y0143979D01*
X0071293Y0145470D01*
X0071800Y0146694D01*
X0072307Y0145470D01*
X0073798Y0143979D01*
X0074700Y0143606D01*
X0074700Y0125191D01*
X0073775Y0125191D01*
X0072838Y0124253D01*
X0072838Y0122376D02*
X0067300Y0122376D01*
X0066883Y0120777D02*
X0072838Y0120777D01*
X0073437Y0119179D02*
X0065284Y0119179D01*
X0065188Y0117580D02*
X0073251Y0117580D01*
X0080163Y0119179D02*
X0080786Y0119179D01*
X0080762Y0120777D02*
X0080950Y0120777D01*
X0080950Y0122376D02*
X0080762Y0122376D01*
X0080762Y0123974D02*
X0080950Y0123974D01*
X0080950Y0125573D02*
X0078900Y0125573D01*
X0078900Y0127171D02*
X0080950Y0127171D01*
X0080950Y0128770D02*
X0078900Y0128770D01*
X0078900Y0130368D02*
X0080950Y0130368D01*
X0080950Y0131967D02*
X0078900Y0131967D01*
X0078900Y0133565D02*
X0080950Y0133565D01*
X0080950Y0135164D02*
X0078900Y0135164D01*
X0078900Y0136762D02*
X0080950Y0136762D01*
X0080950Y0138361D02*
X0078900Y0138361D01*
X0078900Y0139959D02*
X0080950Y0139959D01*
X0081916Y0141558D02*
X0078900Y0141558D01*
X0078900Y0143156D02*
X0083514Y0143156D01*
X0085113Y0144755D02*
X0080578Y0144755D01*
X0081659Y0146353D02*
X0086711Y0146353D01*
X0088310Y0147952D02*
X0082100Y0147952D01*
X0082090Y0149550D02*
X0089908Y0149550D01*
X0090616Y0151149D02*
X0081428Y0151149D01*
X0080020Y0152747D02*
X0090000Y0152747D01*
X0090016Y0154346D02*
X0048896Y0154346D01*
X0050020Y0152747D02*
X0053580Y0152747D01*
X0052172Y0151149D02*
X0051428Y0151149D01*
X0047298Y0155944D02*
X0090732Y0155944D01*
X0093052Y0157543D02*
X0045699Y0157543D01*
X0043580Y0152747D02*
X0040020Y0152747D01*
X0041428Y0151149D02*
X0042172Y0151149D01*
X0041941Y0146353D02*
X0041659Y0146353D01*
X0040578Y0144755D02*
X0043022Y0144755D01*
X0050578Y0144755D02*
X0053022Y0144755D01*
X0051941Y0146353D02*
X0051659Y0146353D01*
X0060578Y0144755D02*
X0063022Y0144755D01*
X0061941Y0146353D02*
X0061659Y0146353D01*
X0061428Y0151149D02*
X0062172Y0151149D01*
X0063580Y0152747D02*
X0060020Y0152747D01*
X0060746Y0163172D02*
X0062854Y0163172D01*
X0064802Y0163979D01*
X0066293Y0165470D01*
X0067100Y0167418D01*
X0067100Y0169527D01*
X0066293Y0171475D01*
X0064802Y0172966D01*
X0062854Y0173772D01*
X0060746Y0173772D01*
X0058798Y0172966D01*
X0057307Y0171475D01*
X0056915Y0170528D01*
X0056897Y0170584D01*
X0056504Y0171355D01*
X0055995Y0172055D01*
X0055383Y0172668D01*
X0054683Y0173176D01*
X0053911Y0173569D01*
X0053088Y0173837D01*
X0052233Y0173972D01*
X0052000Y0173972D01*
X0052000Y0168673D01*
X0051600Y0168673D01*
X0051600Y0173972D01*
X0051367Y0173972D01*
X0050512Y0173837D01*
X0049689Y0173569D01*
X0048917Y0173176D01*
X0048217Y0172668D01*
X0047605Y0172055D01*
X0047096Y0171355D01*
X0046703Y0170584D01*
X0046685Y0170528D01*
X0046293Y0171475D01*
X0044802Y0172966D01*
X0042854Y0173772D01*
X0040746Y0173772D01*
X0038798Y0172966D01*
X0038287Y0172455D01*
X0037670Y0173072D01*
X0030762Y0173072D01*
X0030762Y0174253D01*
X0029825Y0175191D01*
X0023775Y0175191D01*
X0022838Y0174253D01*
X0022838Y0173072D01*
X0020762Y0173072D01*
X0020762Y0174253D01*
X0019825Y0175191D01*
X0013775Y0175191D01*
X0012838Y0174253D01*
X0012838Y0169778D01*
X0013775Y0168841D01*
X0019825Y0168841D01*
X0019856Y0168872D01*
X0023744Y0168872D01*
X0023775Y0168841D01*
X0029825Y0168841D01*
X0029856Y0168872D01*
X0035930Y0168872D01*
X0036500Y0168303D01*
X0036500Y0167418D01*
X0037307Y0165470D01*
X0038798Y0163979D01*
X0040746Y0163172D01*
X0042854Y0163172D01*
X0044802Y0163979D01*
X0046293Y0165470D01*
X0046685Y0166416D01*
X0046703Y0166361D01*
X0047096Y0165590D01*
X0047605Y0164889D01*
X0048217Y0164277D01*
X0048917Y0163768D01*
X0049689Y0163375D01*
X0050512Y0163108D01*
X0051367Y0162972D01*
X0051600Y0162972D01*
X0051600Y0168272D01*
X0052000Y0168272D01*
X0052000Y0162972D01*
X0052233Y0162972D01*
X0053088Y0163108D01*
X0053911Y0163375D01*
X0054683Y0163768D01*
X0055383Y0164277D01*
X0055995Y0164889D01*
X0056504Y0165590D01*
X0056897Y0166361D01*
X0056915Y0166416D01*
X0057307Y0165470D01*
X0058798Y0163979D01*
X0060746Y0163172D01*
X0058900Y0163937D02*
X0054915Y0163937D01*
X0056465Y0165535D02*
X0057280Y0165535D01*
X0052000Y0165535D02*
X0051600Y0165535D01*
X0051600Y0163937D02*
X0052000Y0163937D01*
X0052000Y0167134D02*
X0051600Y0167134D01*
X0051600Y0168733D02*
X0052000Y0168733D01*
X0052000Y0170331D02*
X0051600Y0170331D01*
X0051600Y0171930D02*
X0052000Y0171930D01*
X0052000Y0173528D02*
X0051600Y0173528D01*
X0049607Y0173528D02*
X0043444Y0173528D01*
X0045838Y0171930D02*
X0047513Y0171930D01*
X0047135Y0165535D02*
X0046320Y0165535D01*
X0044700Y0163937D02*
X0048685Y0163937D01*
X0056087Y0171930D02*
X0057762Y0171930D01*
X0060156Y0173528D02*
X0053993Y0173528D01*
X0063444Y0173528D02*
X0165701Y0173528D01*
X0165701Y0171930D02*
X0065838Y0171930D01*
X0066767Y0170331D02*
X0165701Y0170331D01*
X0165701Y0168733D02*
X0067100Y0168733D01*
X0066982Y0167134D02*
X0165701Y0167134D01*
X0165701Y0165535D02*
X0066320Y0165535D01*
X0064700Y0163937D02*
X0165701Y0163937D01*
X0165701Y0162338D02*
X0030904Y0162338D01*
X0030762Y0163937D02*
X0038900Y0163937D01*
X0037280Y0165535D02*
X0030762Y0165535D01*
X0030762Y0167134D02*
X0036618Y0167134D01*
X0036070Y0168733D02*
X0011600Y0168733D01*
X0011600Y0170331D02*
X0012838Y0170331D01*
X0012838Y0171930D02*
X0011600Y0171930D01*
X0011600Y0173528D02*
X0012838Y0173528D01*
X0013711Y0175127D02*
X0011600Y0175127D01*
X0011600Y0176725D02*
X0165701Y0176725D01*
X0165701Y0175127D02*
X0029889Y0175127D01*
X0030762Y0173528D02*
X0040156Y0173528D01*
X0032502Y0160740D02*
X0165701Y0160740D01*
X0165701Y0159141D02*
X0034101Y0159141D01*
X0031358Y0155944D02*
X0011600Y0155944D01*
X0011600Y0154346D02*
X0032957Y0154346D01*
X0033580Y0152747D02*
X0030273Y0152747D01*
X0031609Y0151149D02*
X0032172Y0151149D01*
X0031941Y0146353D02*
X0031893Y0146353D01*
X0030861Y0144755D02*
X0033022Y0144755D01*
X0028237Y0143156D02*
X0074700Y0143156D01*
X0074700Y0141558D02*
X0011600Y0141558D01*
X0011600Y0143156D02*
X0025363Y0143156D01*
X0025512Y0143108D02*
X0026367Y0142972D01*
X0026600Y0142972D01*
X0026600Y0148272D01*
X0021300Y0148272D01*
X0021300Y0148040D01*
X0021435Y0147185D01*
X0021703Y0146361D01*
X0022096Y0145590D01*
X0022605Y0144889D01*
X0023217Y0144277D01*
X0023917Y0143768D01*
X0024689Y0143375D01*
X0025512Y0143108D01*
X0026600Y0143156D02*
X0027000Y0143156D01*
X0027000Y0144755D02*
X0026600Y0144755D01*
X0026600Y0146353D02*
X0027000Y0146353D01*
X0027000Y0147952D02*
X0026600Y0147952D01*
X0026600Y0149550D02*
X0027000Y0149550D01*
X0027000Y0151149D02*
X0026600Y0151149D01*
X0026600Y0152747D02*
X0027000Y0152747D01*
X0023327Y0152747D02*
X0011600Y0152747D01*
X0011600Y0151149D02*
X0021991Y0151149D01*
X0021402Y0149550D02*
X0011600Y0149550D01*
X0011600Y0147952D02*
X0021314Y0147952D01*
X0021707Y0146353D02*
X0011600Y0146353D01*
X0011600Y0144755D02*
X0022739Y0144755D01*
X0011600Y0139959D02*
X0074700Y0139959D01*
X0074700Y0138361D02*
X0011600Y0138361D01*
X0011600Y0136762D02*
X0074700Y0136762D01*
X0074700Y0135164D02*
X0011600Y0135164D01*
X0011600Y0133565D02*
X0074700Y0133565D01*
X0074700Y0131967D02*
X0011600Y0131967D01*
X0011600Y0117580D02*
X0036500Y0117580D01*
X0036500Y0115982D02*
X0011600Y0115982D01*
X0011600Y0114383D02*
X0036500Y0114383D01*
X0036500Y0112785D02*
X0011600Y0112785D01*
X0011600Y0111186D02*
X0036500Y0111186D01*
X0036500Y0109588D02*
X0011600Y0109588D01*
X0025343Y0082413D02*
X0025343Y0082413D01*
X0025343Y0080814D02*
X0025343Y0080814D01*
X0025343Y0079216D02*
X0025343Y0079216D01*
X0025343Y0077617D02*
X0025343Y0077617D01*
X0025343Y0076019D02*
X0025343Y0076019D01*
X0025343Y0074420D02*
X0025343Y0074420D01*
X0027566Y0074420D02*
X0032329Y0074420D01*
X0032360Y0074367D02*
X0032695Y0074032D01*
X0033105Y0073795D01*
X0033563Y0073672D01*
X0036600Y0073672D01*
X0036600Y0078272D01*
X0032000Y0078272D01*
X0032000Y0075235D01*
X0032123Y0074778D01*
X0032360Y0074367D01*
X0032000Y0076019D02*
X0028718Y0076019D01*
X0028718Y0077617D02*
X0032000Y0077617D01*
X0032000Y0079216D02*
X0028718Y0079216D01*
X0028718Y0080814D02*
X0032000Y0080814D01*
X0036600Y0080814D02*
X0037000Y0080814D01*
X0037000Y0079216D02*
X0036600Y0079216D01*
X0036600Y0077617D02*
X0037000Y0077617D01*
X0037000Y0076019D02*
X0036600Y0076019D01*
X0036600Y0074420D02*
X0037000Y0074420D01*
X0037000Y0082413D02*
X0036600Y0082413D01*
X0058900Y0093602D02*
X0068700Y0093602D01*
X0069774Y0092004D02*
X0070299Y0092004D01*
X0071372Y0090405D02*
X0071897Y0090405D01*
X0072200Y0088807D02*
X0071400Y0088807D01*
X0071400Y0087208D02*
X0072200Y0087208D01*
X0072200Y0085610D02*
X0070443Y0085610D01*
X0071869Y0084011D02*
X0068844Y0084011D01*
X0069365Y0082413D02*
X0070271Y0082413D01*
X0063157Y0085610D02*
X0060443Y0085610D01*
X0061400Y0087208D02*
X0062200Y0087208D01*
X0062200Y0088807D02*
X0061400Y0088807D01*
X0061372Y0090405D02*
X0062228Y0090405D01*
X0063826Y0092004D02*
X0059774Y0092004D01*
X0058900Y0095201D02*
X0067102Y0095201D01*
X0065503Y0096799D02*
X0058900Y0096799D01*
X0058900Y0098398D02*
X0063905Y0098398D01*
X0060185Y0099997D02*
X0058900Y0099997D01*
X0058900Y0101595D02*
X0059450Y0101595D01*
X0059556Y0103194D02*
X0058900Y0103194D01*
X0058900Y0104792D02*
X0060528Y0104792D01*
X0058900Y0106391D02*
X0091178Y0106391D01*
X0090201Y0104792D02*
X0065572Y0104792D01*
X0066544Y0103194D02*
X0090000Y0103194D01*
X0090432Y0101595D02*
X0066650Y0101595D01*
X0068246Y0099997D02*
X0091736Y0099997D01*
X0092604Y0109588D02*
X0065410Y0109588D01*
X0067009Y0111186D02*
X0090601Y0111186D01*
X0090000Y0112785D02*
X0080762Y0112785D01*
X0081931Y0114383D02*
X0090031Y0114383D01*
X0090770Y0115982D02*
X0083529Y0115982D01*
X0085128Y0117580D02*
X0093142Y0117580D01*
X0103492Y0122376D02*
X0113450Y0122376D01*
X0113450Y0123974D02*
X0103600Y0123974D01*
X0103076Y0125573D02*
X0113450Y0125573D01*
X0113450Y0127171D02*
X0101445Y0127171D01*
X0091550Y0136762D02*
X0085150Y0136762D01*
X0085150Y0135164D02*
X0090355Y0135164D01*
X0090000Y0133565D02*
X0085150Y0133565D01*
X0085150Y0131967D02*
X0090278Y0131967D01*
X0085150Y0138361D02*
X0113450Y0138361D01*
X0112657Y0139959D02*
X0110943Y0139959D01*
X0111431Y0141558D02*
X0112169Y0141558D01*
X0112169Y0143156D02*
X0111431Y0143156D01*
X0111431Y0144755D02*
X0112169Y0144755D01*
X0112169Y0146353D02*
X0111431Y0146353D01*
X0118518Y0146353D02*
X0121141Y0146353D01*
X0120185Y0144755D02*
X0118518Y0144755D01*
X0118518Y0143156D02*
X0120000Y0143156D01*
X0120447Y0141558D02*
X0118518Y0141558D01*
X0118030Y0139959D02*
X0121773Y0139959D01*
X0122694Y0149550D02*
X0104942Y0149550D01*
X0103343Y0151149D02*
X0120616Y0151149D01*
X0120000Y0152747D02*
X0103600Y0152747D01*
X0103584Y0154346D02*
X0120016Y0154346D01*
X0120732Y0155944D02*
X0102868Y0155944D01*
X0100548Y0157543D02*
X0123052Y0157543D01*
X0130548Y0157543D02*
X0153375Y0157543D01*
X0152087Y0155944D02*
X0132868Y0155944D01*
X0133584Y0154346D02*
X0151500Y0154346D01*
X0151500Y0152747D02*
X0133600Y0152747D01*
X0132984Y0151149D02*
X0152026Y0151149D01*
X0160373Y0149550D02*
X0165701Y0149550D01*
X0165701Y0147952D02*
X0159992Y0147952D01*
X0161505Y0146353D02*
X0165701Y0146353D01*
X0165701Y0144755D02*
X0162165Y0144755D01*
X0162300Y0143156D02*
X0165701Y0143156D01*
X0165701Y0141558D02*
X0161961Y0141558D01*
X0161046Y0139959D02*
X0165701Y0139959D01*
X0165701Y0138361D02*
X0158866Y0138361D01*
X0157000Y0138361D02*
X0156600Y0138361D01*
X0156600Y0139959D02*
X0157000Y0139959D01*
X0157000Y0141558D02*
X0156600Y0141558D01*
X0156600Y0143156D02*
X0157000Y0143156D01*
X0161574Y0151149D02*
X0165701Y0151149D01*
X0165701Y0152747D02*
X0162100Y0152747D01*
X0162100Y0154346D02*
X0165701Y0154346D01*
X0165701Y0155944D02*
X0161513Y0155944D01*
X0160225Y0157543D02*
X0165701Y0157543D01*
X0165701Y0178324D02*
X0011600Y0178324D01*
X0019889Y0175127D02*
X0023711Y0175127D01*
X0022838Y0173528D02*
X0020762Y0173528D01*
X0019399Y0168304D02*
X0016800Y0168304D01*
X0016800Y0164929D01*
X0016800Y0161554D01*
X0016800Y0164929D01*
X0016800Y0164929D01*
X0016800Y0164929D01*
X0020962Y0164929D01*
X0020962Y0163117D01*
X0020840Y0162660D01*
X0020603Y0162249D01*
X0020267Y0161914D01*
X0019857Y0161677D01*
X0019399Y0161554D01*
X0016800Y0161554D01*
X0014201Y0161554D01*
X0013743Y0161677D01*
X0013333Y0161914D01*
X0012997Y0162249D01*
X0012760Y0162660D01*
X0012638Y0163117D01*
X0012638Y0164929D01*
X0016800Y0164929D01*
X0016800Y0164929D01*
X0020962Y0164929D01*
X0020962Y0166741D01*
X0020840Y0167199D01*
X0020603Y0167609D01*
X0020267Y0167944D01*
X0019857Y0168181D01*
X0019399Y0168304D01*
X0020857Y0167134D02*
X0022838Y0167134D01*
X0022838Y0165535D02*
X0020962Y0165535D01*
X0020962Y0163937D02*
X0022838Y0163937D01*
X0023191Y0162338D02*
X0020654Y0162338D01*
X0016800Y0162338D02*
X0016800Y0162338D01*
X0016800Y0163937D02*
X0016800Y0163937D01*
X0016800Y0164929D02*
X0012638Y0164929D01*
X0012638Y0166741D01*
X0012760Y0167199D01*
X0012997Y0167609D01*
X0013333Y0167944D01*
X0013743Y0168181D01*
X0014201Y0168304D01*
X0016800Y0168304D01*
X0016800Y0164929D01*
X0016800Y0164929D01*
X0016800Y0165535D02*
X0016800Y0165535D01*
X0016800Y0167134D02*
X0016800Y0167134D01*
X0012743Y0167134D02*
X0011600Y0167134D01*
X0011600Y0165535D02*
X0012638Y0165535D01*
X0012638Y0163937D02*
X0011600Y0163937D01*
X0011600Y0162338D02*
X0012946Y0162338D01*
X0011600Y0160740D02*
X0026563Y0160740D01*
X0028161Y0159141D02*
X0011600Y0159141D01*
X0011600Y0157543D02*
X0029760Y0157543D01*
X0043998Y0128770D02*
X0049602Y0128770D01*
X0048003Y0127171D02*
X0045597Y0127171D01*
X0053998Y0128770D02*
X0059319Y0128770D01*
X0057721Y0127171D02*
X0055597Y0127171D01*
X0061600Y0127171D02*
X0062000Y0127171D01*
X0062000Y0125573D02*
X0061600Y0125573D01*
X0061600Y0123974D02*
X0062000Y0123974D01*
X0062000Y0128770D02*
X0061600Y0128770D01*
X0070578Y0144755D02*
X0073022Y0144755D01*
X0071941Y0146353D02*
X0071659Y0146353D01*
X0071428Y0151149D02*
X0072172Y0151149D01*
X0073580Y0152747D02*
X0070020Y0152747D01*
X0086257Y0139959D02*
X0091773Y0139959D01*
X0090447Y0141558D02*
X0087855Y0141558D01*
X0089454Y0143156D02*
X0090000Y0143156D01*
X0117650Y0128770D02*
X0128533Y0128770D01*
X0133492Y0122376D02*
X0134927Y0122376D01*
X0136525Y0120777D02*
X0132644Y0120777D01*
X0123142Y0117580D02*
X0117650Y0117580D01*
X0117650Y0115982D02*
X0120770Y0115982D01*
X0120031Y0114383D02*
X0117650Y0114383D01*
X0117650Y0112785D02*
X0120000Y0112785D01*
X0120601Y0111186D02*
X0117650Y0111186D01*
X0117650Y0109588D02*
X0122604Y0109588D01*
X0113347Y0107989D02*
X0058900Y0107989D01*
X0037399Y0052041D02*
X0035530Y0052041D01*
X0035530Y0050443D02*
X0035800Y0050443D01*
X0119140Y0071223D02*
X0120586Y0071223D01*
X0120219Y0069625D02*
X0122514Y0069625D01*
X0131975Y0056837D02*
X0137200Y0056837D01*
X0137200Y0055238D02*
X0133215Y0055238D01*
X0133600Y0053640D02*
X0137200Y0053640D01*
X0137200Y0052041D02*
X0133353Y0052041D01*
X0132310Y0050443D02*
X0137200Y0050443D01*
X0136414Y0036056D02*
X0132756Y0036056D01*
X0133538Y0034458D02*
X0134815Y0034458D01*
X0137558Y0031261D02*
X0148959Y0031261D01*
X0148279Y0029662D02*
X0135959Y0029662D01*
X0134361Y0028064D02*
X0147851Y0028064D01*
X0149881Y0032859D02*
X0139156Y0032859D01*
X0140755Y0034458D02*
X0151380Y0034458D01*
X0153565Y0036056D02*
X0141400Y0036056D01*
X0157000Y0098398D02*
X0165701Y0098398D01*
X0157000Y0099997D02*
X0156600Y0099997D01*
X0156600Y0101595D02*
X0157000Y0101595D01*
X0157000Y0103194D02*
X0156600Y0103194D01*
X0149801Y0103194D02*
X0149574Y0103194D01*
X0161492Y0125573D02*
X0165701Y0125573D01*
X0165701Y0127171D02*
X0162160Y0127171D01*
X0162300Y0128770D02*
X0165701Y0128770D01*
X0165701Y0130368D02*
X0161967Y0130368D01*
X0161060Y0131967D02*
X0165701Y0131967D01*
X0165701Y0133565D02*
X0158920Y0133565D01*
X0165701Y0135164D02*
X0133245Y0135164D01*
X0132050Y0136762D02*
X0165701Y0136762D01*
D25*
X0126800Y0163472D03*
X0086800Y0158472D03*
X0016800Y0128472D03*
X0141800Y0028472D03*
D26*
X0139300Y0035972D02*
X0139300Y0072222D01*
X0145550Y0078472D01*
X0146800Y0078472D01*
X0140550Y0077222D02*
X0135550Y0072222D01*
X0135550Y0064722D01*
X0140550Y0077222D02*
X0140550Y0079722D01*
X0139300Y0080972D01*
X0139300Y0120972D01*
X0126800Y0133472D01*
X0115550Y0143472D02*
X0115343Y0143472D01*
X0115550Y0143472D02*
X0115550Y0107222D01*
X0101800Y0093472D01*
X0096800Y0093472D01*
X0093050Y0093472D01*
X0060550Y0060972D01*
X0063050Y0058472D01*
X0068050Y0058472D01*
X0068257Y0058472D01*
X0068050Y0058472D02*
X0068050Y0048472D01*
X0068257Y0048472D01*
X0068257Y0038472D02*
X0068050Y0038472D01*
X0063050Y0038472D01*
X0068050Y0038472D02*
X0068050Y0028472D01*
X0068257Y0028472D01*
X0096800Y0043472D02*
X0116800Y0063472D01*
X0116800Y0068472D01*
X0115343Y0083472D02*
X0126800Y0083472D01*
X0151800Y0102222D02*
X0151800Y0053472D01*
X0146800Y0048472D01*
X0156800Y0058472D02*
X0156800Y0059722D01*
X0161800Y0064722D01*
X0161800Y0093472D01*
X0151800Y0102222D02*
X0156800Y0107222D01*
X0156800Y0118472D01*
X0108257Y0143472D02*
X0108050Y0143472D01*
X0098050Y0153472D01*
X0096800Y0153472D01*
X0083050Y0139722D01*
X0083050Y0118472D01*
X0079300Y0114722D01*
X0076800Y0114722D01*
X0076800Y0114929D01*
X0076800Y0114722D02*
X0063050Y0114722D01*
X0061800Y0113472D01*
X0056800Y0118472D02*
X0051800Y0123472D01*
X0056800Y0118472D02*
X0056800Y0088472D01*
X0051800Y0083472D02*
X0056800Y0078472D01*
X0051800Y0083472D02*
X0051800Y0113472D01*
X0063050Y0102222D02*
X0074300Y0090972D01*
X0074300Y0083472D01*
X0066800Y0075972D01*
X0066800Y0078472D01*
X0066800Y0075972D02*
X0066800Y0074722D01*
X0063050Y0070972D01*
X0058050Y0063472D02*
X0054300Y0063472D01*
X0054000Y0062572D01*
X0053050Y0062222D01*
X0050550Y0062222D01*
X0036800Y0048472D01*
X0036800Y0034722D01*
X0036682Y0034693D01*
X0029599Y0053472D02*
X0029300Y0053472D01*
X0019300Y0063472D01*
X0019300Y0078472D01*
X0018257Y0078472D01*
X0018050Y0078472D01*
X0018050Y0088472D01*
X0018257Y0088472D01*
X0019300Y0088472D01*
X0019300Y0092222D01*
X0023050Y0095972D01*
X0028050Y0095972D01*
X0035550Y0088472D01*
X0036800Y0088472D01*
X0058050Y0063472D02*
X0060550Y0060972D01*
X0076800Y0122016D02*
X0076800Y0148472D01*
X0046800Y0148472D02*
X0046800Y0153472D01*
X0044300Y0155972D01*
X0034300Y0155972D01*
X0026800Y0163472D01*
X0026800Y0164929D01*
X0026800Y0170972D02*
X0026800Y0172016D01*
X0026800Y0170972D02*
X0036800Y0170972D01*
X0039300Y0168472D01*
X0041800Y0168472D01*
X0026800Y0170972D02*
X0016800Y0170972D01*
X0016800Y0172016D01*
X0139300Y0035972D02*
X0126800Y0023472D01*
D27*
X0135550Y0064722D03*
X0116800Y0068472D03*
X0161800Y0093472D03*
X0063050Y0102222D03*
X0063050Y0070972D03*
X0063050Y0038472D03*
D28*
X0159300Y0025972D03*
M02*
