%
M48
M72
T01C0.0236
T02C0.0360
T03C0.0394
T04C0.0400
%
T01
X4180Y4680
X4430Y13180
T02
X10680Y12680
X10680Y11680
X10680Y10680
X10680Y9680
X10680Y8680
X10680Y7680
X10680Y6680
X10680Y5680
X10680Y4680
X10680Y3680
X10680Y2680
X10680Y1680
X11680Y1680
X11680Y2680
X11680Y3680
X11680Y4680
X11680Y5680
X11680Y6680
X11680Y7680
X11680Y8680
X11680Y9680
X11680Y10680
X11680Y11680
X11680Y12680
X11680Y13680
X10680Y13680
T03
X1930Y3180
X1930Y4180
X1930Y5180
X1930Y8680
X1930Y9680
X1930Y10680
X1930Y11680
X1930Y12680
X1930Y13680
X2930Y13680
X3930Y13680
X4930Y13680
X5930Y13680
X6930Y13680
X7930Y13680
X8930Y13680
X5180Y10930
X8680Y2680
X8680Y1680
X5680Y2430
T04
X5180Y6430
X5180Y7430
X5180Y8430
X5180Y9430
X4180Y9430
X4180Y8430
X4180Y7430
X4180Y6430
M30
