G75*
%MOIN*%
%OFA0B0*%
%FSLAX24Y24*%
%IPPOS*%
%LPD*%
%AMOC8*
5,1,8,0,0,1.08239X$1,22.5*
%
%ADD10R,0.0680X0.0680*%
%ADD11OC8,0.0680*%
%ADD12C,0.0640*%
%ADD13OC8,0.0640*%
%ADD14C,0.0671*%
%ADD15R,0.0476X0.0476*%
D10*
X005180Y006430D03*
D11*
X005180Y007430D03*
X005180Y008430D03*
X005180Y009430D03*
X004180Y009430D03*
X004180Y008430D03*
X004180Y007430D03*
X004180Y006430D03*
D12*
X010680Y013680D03*
D13*
X010680Y012680D03*
X010680Y011680D03*
X010680Y010680D03*
X010680Y009680D03*
X010680Y008680D03*
X010680Y007680D03*
X010680Y006680D03*
X010680Y005680D03*
X010680Y004680D03*
X010680Y003680D03*
X010680Y002680D03*
X010680Y001680D03*
X011680Y001680D03*
X011680Y002680D03*
X011680Y003680D03*
X011680Y004680D03*
X011680Y005680D03*
X011680Y006680D03*
X011680Y007680D03*
X011680Y008680D03*
X011680Y009680D03*
X011680Y010680D03*
X011680Y011680D03*
X011680Y012680D03*
X011680Y013680D03*
D14*
X001930Y003180D03*
X001930Y004180D03*
X001930Y005180D03*
X001930Y008680D03*
X001930Y009680D03*
X001930Y010680D03*
X001930Y011680D03*
X001930Y012680D03*
X001930Y013680D03*
X002930Y013680D03*
X003930Y013680D03*
X004930Y013680D03*
X005930Y013680D03*
X006930Y013680D03*
X007930Y013680D03*
X008930Y013680D03*
X005180Y010930D03*
X008680Y002680D03*
X008680Y001680D03*
X005680Y002430D03*
D15*
X004180Y004680D03*
X004430Y013180D03*
M02*
