G75*
%MOIN*%
%OFA0B0*%
%FSLAX24Y24*%
%IPPOS*%
%LPD*%
%AMOC8*
5,1,8,0,0,1.08239X$1,22.5*
%
%ADD10C,0.0000*%
%ADD11R,0.0472X0.0472*%
%ADD12R,0.0600X0.0600*%
%ADD13OC8,0.0600*%
%ADD14R,0.0433X0.0551*%
%ADD15C,0.0560*%
%ADD16OC8,0.0560*%
%ADD17C,0.0160*%
%ADD18C,0.0591*%
%ADD19C,0.0120*%
%ADD20R,0.0396X0.0396*%
D10*
X000930Y000680D02*
X000930Y014676D01*
X012800Y014676D01*
X012800Y000680D01*
X000930Y000680D01*
D11*
X006767Y006180D03*
X007593Y006180D03*
X007593Y007180D03*
X006767Y007180D03*
D12*
X005180Y006430D03*
D13*
X005180Y007430D03*
X005180Y008430D03*
X005180Y009430D03*
X004180Y009430D03*
X004180Y008430D03*
X004180Y007430D03*
X004180Y006430D03*
D14*
X008286Y006180D03*
X009074Y006180D03*
X009074Y007180D03*
X008286Y007180D03*
D15*
X010680Y013680D03*
D16*
X010680Y012680D03*
X010680Y011680D03*
X010680Y010680D03*
X010680Y009680D03*
X010680Y008680D03*
X010680Y007680D03*
X010680Y006680D03*
X010680Y005680D03*
X010680Y004680D03*
X010680Y003680D03*
X010680Y002680D03*
X010680Y001680D03*
X011680Y001680D03*
X011680Y002680D03*
X011680Y003680D03*
X011680Y004680D03*
X011680Y005680D03*
X011680Y006680D03*
X011680Y007680D03*
X011680Y008680D03*
X011680Y009680D03*
X011680Y010680D03*
X011680Y011680D03*
X011680Y012680D03*
X011680Y013680D03*
D17*
X011343Y013994D02*
X011017Y013994D01*
X011070Y013941D02*
X010941Y014070D01*
X010771Y014140D01*
X010588Y014140D01*
X010419Y014070D01*
X010290Y013941D01*
X010220Y013771D01*
X010220Y013588D01*
X010290Y013420D01*
X009337Y013420D01*
X009405Y013585D01*
X009405Y013775D01*
X009333Y013949D01*
X009199Y014083D01*
X009025Y014155D01*
X008835Y014155D01*
X008661Y014083D01*
X008527Y013949D01*
X008455Y013775D01*
X008455Y013585D01*
X008523Y013420D01*
X008337Y013420D01*
X008405Y013585D01*
X008405Y013775D01*
X008333Y013949D01*
X008199Y014083D01*
X008025Y014155D01*
X007835Y014155D01*
X007661Y014083D01*
X007527Y013949D01*
X007455Y013775D01*
X007455Y013585D01*
X007523Y013420D01*
X007337Y013420D01*
X007405Y013585D01*
X007405Y013775D01*
X007333Y013949D01*
X007199Y014083D01*
X007025Y014155D01*
X006835Y014155D01*
X006661Y014083D01*
X006527Y013949D01*
X006455Y013775D01*
X006455Y013585D01*
X006523Y013420D01*
X006337Y013420D01*
X006405Y013585D01*
X006405Y013775D01*
X006333Y013949D01*
X006199Y014083D01*
X006025Y014155D01*
X005835Y014155D01*
X005661Y014083D01*
X005527Y013949D01*
X005455Y013775D01*
X005455Y013585D01*
X005523Y013420D01*
X005337Y013420D01*
X005405Y013585D01*
X005405Y013775D01*
X005333Y013949D01*
X005199Y014083D01*
X005025Y014155D01*
X004835Y014155D01*
X004661Y014083D01*
X004527Y013949D01*
X004455Y013775D01*
X004455Y013585D01*
X004466Y013558D01*
X004394Y013558D01*
X004405Y013585D01*
X004405Y013775D01*
X004333Y013949D01*
X004199Y014083D01*
X004025Y014155D01*
X003835Y014155D01*
X003661Y014083D01*
X003527Y013949D01*
X003455Y013775D01*
X003455Y013585D01*
X003527Y013411D01*
X003661Y013277D01*
X003690Y013265D01*
X003690Y012382D01*
X003727Y012294D01*
X003794Y012227D01*
X003851Y012170D01*
X003279Y012170D01*
X003170Y012279D01*
X003170Y013265D01*
X003199Y013277D01*
X003333Y013411D01*
X003405Y013585D01*
X003405Y013775D01*
X003333Y013949D01*
X003199Y014083D01*
X003025Y014155D01*
X002835Y014155D01*
X002661Y014083D01*
X002527Y013949D01*
X002455Y013775D01*
X002455Y013585D01*
X002527Y013411D01*
X002661Y013277D01*
X002690Y013265D01*
X002690Y012132D01*
X002727Y012044D01*
X002794Y011977D01*
X003044Y011727D01*
X003132Y011690D01*
X007581Y011690D01*
X007690Y011581D01*
X007690Y007882D01*
X007727Y007794D01*
X007794Y007727D01*
X007940Y007580D01*
X007930Y007570D01*
X007904Y007596D01*
X007283Y007596D01*
X007177Y007491D01*
X007177Y007461D01*
X007171Y007486D01*
X007147Y007527D01*
X007113Y007560D01*
X007072Y007584D01*
X007027Y007596D01*
X006805Y007596D01*
X006805Y007218D01*
X006729Y007218D01*
X006729Y007596D01*
X006507Y007596D01*
X006461Y007584D01*
X006420Y007560D01*
X006420Y009228D01*
X006383Y009316D01*
X006133Y009566D01*
X006066Y009633D01*
X005978Y009670D01*
X005619Y009670D01*
X005379Y009910D01*
X004981Y009910D01*
X004700Y009629D01*
X004700Y009231D01*
X004981Y008950D01*
X005379Y008950D01*
X005619Y009190D01*
X005831Y009190D01*
X005940Y009081D01*
X005940Y008509D01*
X005816Y008633D01*
X005728Y008670D01*
X005619Y008670D01*
X005379Y008910D01*
X004981Y008910D01*
X004700Y008629D01*
X004700Y008231D01*
X004981Y007950D01*
X005379Y007950D01*
X005600Y008171D01*
X005690Y008081D01*
X005690Y005382D01*
X005727Y005294D01*
X005977Y005044D01*
X006044Y004977D01*
X006132Y004940D01*
X009044Y004940D01*
X010261Y002912D01*
X010220Y002871D01*
X010220Y002489D01*
X010289Y002420D01*
X009439Y002420D01*
X009399Y002423D01*
X009391Y002420D01*
X009382Y002420D01*
X009346Y002405D01*
X009309Y002393D01*
X009302Y002387D01*
X009294Y002383D01*
X009266Y002356D01*
X009237Y002330D01*
X009233Y002322D01*
X009227Y002316D01*
X009212Y002280D01*
X009058Y001974D01*
X008949Y002083D01*
X008775Y002155D01*
X008585Y002155D01*
X008411Y002083D01*
X008277Y001949D01*
X008205Y001775D01*
X008205Y001585D01*
X008277Y001411D01*
X008411Y001277D01*
X008585Y001205D01*
X008775Y001205D01*
X008949Y001277D01*
X009083Y001411D01*
X009095Y001440D01*
X009171Y001440D01*
X009211Y001437D01*
X009219Y001440D01*
X009228Y001440D01*
X009264Y001455D01*
X009301Y001467D01*
X009308Y001473D01*
X009316Y001477D01*
X009344Y001504D01*
X009373Y001530D01*
X009377Y001538D01*
X009383Y001544D01*
X009398Y001580D01*
X009578Y001940D01*
X010289Y001940D01*
X010220Y001871D01*
X010220Y001690D01*
X010670Y001690D01*
X010670Y001670D01*
X010220Y001670D01*
X010220Y001489D01*
X010489Y001220D01*
X010670Y001220D01*
X010670Y001670D01*
X010690Y001670D01*
X010690Y001690D01*
X011140Y001690D01*
X011140Y001871D01*
X011071Y001940D01*
X011081Y001940D01*
X011220Y001801D01*
X011220Y001489D01*
X011489Y001220D01*
X011871Y001220D01*
X012140Y001489D01*
X012140Y001871D01*
X011871Y002140D01*
X011559Y002140D01*
X011383Y002316D01*
X011316Y002383D01*
X011228Y002420D01*
X011071Y002420D01*
X011140Y002489D01*
X011140Y002871D01*
X010871Y003140D01*
X010684Y003140D01*
X010636Y003220D01*
X010871Y003220D01*
X011140Y003489D01*
X011140Y003871D01*
X010871Y004140D01*
X010694Y004140D01*
X010648Y004220D01*
X010871Y004220D01*
X011140Y004489D01*
X011140Y004871D01*
X010871Y005140D01*
X010489Y005140D01*
X010256Y004906D01*
X009896Y005536D01*
X009883Y005566D01*
X009872Y005577D01*
X009865Y005591D01*
X009839Y005610D01*
X009816Y005633D01*
X009802Y005639D01*
X009789Y005649D01*
X009758Y005658D01*
X009728Y005670D01*
X009712Y005670D01*
X009697Y005674D01*
X009665Y005670D01*
X006529Y005670D01*
X006420Y005779D01*
X006420Y005800D01*
X006461Y005776D01*
X006507Y005764D01*
X006729Y005764D01*
X006729Y006142D01*
X006805Y006142D01*
X006805Y005764D01*
X007027Y005764D01*
X007072Y005776D01*
X007113Y005800D01*
X007147Y005833D01*
X007171Y005874D01*
X007177Y005899D01*
X007177Y005869D01*
X007283Y005764D01*
X007904Y005764D01*
X007930Y005790D01*
X007995Y005724D01*
X008577Y005724D01*
X008680Y005827D01*
X008783Y005724D01*
X009365Y005724D01*
X009470Y005830D01*
X009470Y005940D01*
X010289Y005940D01*
X010220Y005871D01*
X010220Y005489D01*
X010489Y005220D01*
X010871Y005220D01*
X011140Y005489D01*
X011140Y005871D01*
X011071Y005940D01*
X011081Y005940D01*
X011220Y005801D01*
X011220Y005489D01*
X011489Y005220D01*
X011871Y005220D01*
X012140Y005489D01*
X012140Y005871D01*
X011871Y006140D01*
X011559Y006140D01*
X011383Y006316D01*
X011316Y006383D01*
X011228Y006420D01*
X011071Y006420D01*
X011140Y006489D01*
X011140Y006871D01*
X011071Y006940D01*
X011081Y006940D01*
X011220Y006801D01*
X011220Y006489D01*
X011489Y006220D01*
X011871Y006220D01*
X012140Y006489D01*
X012140Y006871D01*
X011871Y007140D01*
X011559Y007140D01*
X011383Y007316D01*
X011316Y007383D01*
X011228Y007420D01*
X011071Y007420D01*
X011140Y007489D01*
X011140Y007871D01*
X011071Y007940D01*
X011228Y007940D01*
X011316Y007977D01*
X011383Y008044D01*
X011559Y008220D01*
X011871Y008220D01*
X012140Y008489D01*
X012140Y008871D01*
X011871Y009140D01*
X011489Y009140D01*
X011220Y008871D01*
X011220Y008559D01*
X011081Y008420D01*
X011071Y008420D01*
X011140Y008489D01*
X011140Y008871D01*
X010871Y009140D01*
X010489Y009140D01*
X010220Y008871D01*
X010220Y008489D01*
X010289Y008420D01*
X008529Y008420D01*
X008420Y008529D01*
X008420Y011978D01*
X008383Y012066D01*
X008133Y012316D01*
X008066Y012383D01*
X007978Y012420D01*
X004279Y012420D01*
X004170Y012529D01*
X004170Y012802D01*
X004703Y012802D01*
X004808Y012907D01*
X004808Y012940D01*
X010289Y012940D01*
X010220Y012871D01*
X010220Y012489D01*
X010489Y012220D01*
X010871Y012220D01*
X011140Y012489D01*
X011140Y012871D01*
X011071Y012940D01*
X011081Y012940D01*
X011220Y012801D01*
X011220Y012489D01*
X011489Y012220D01*
X011871Y012220D01*
X012140Y012489D01*
X012140Y012871D01*
X011871Y013140D01*
X011559Y013140D01*
X011383Y013316D01*
X011316Y013383D01*
X011228Y013420D01*
X011070Y013420D01*
X011140Y013588D01*
X011140Y013771D01*
X011070Y013941D01*
X011113Y013836D02*
X011220Y013836D01*
X011220Y013871D02*
X011220Y013489D01*
X011489Y013220D01*
X011871Y013220D01*
X012140Y013489D01*
X012140Y013871D01*
X011871Y014140D01*
X011489Y014140D01*
X011220Y013871D01*
X011220Y013677D02*
X011140Y013677D01*
X011111Y013519D02*
X011220Y013519D01*
X011339Y013360D02*
X011349Y013360D01*
X011498Y013202D02*
X012320Y013202D01*
X012320Y013360D02*
X012011Y013360D01*
X012140Y013519D02*
X012320Y013519D01*
X012320Y013677D02*
X012140Y013677D01*
X012140Y013836D02*
X012320Y013836D01*
X012320Y013994D02*
X012017Y013994D01*
X012320Y014153D02*
X009031Y014153D01*
X008829Y014153D02*
X008031Y014153D01*
X008288Y013994D02*
X008572Y013994D01*
X008480Y013836D02*
X008380Y013836D01*
X008405Y013677D02*
X008455Y013677D01*
X008482Y013519D02*
X008378Y013519D01*
X007829Y014153D02*
X007031Y014153D01*
X006829Y014153D02*
X006031Y014153D01*
X005829Y014153D02*
X005031Y014153D01*
X004829Y014153D02*
X004031Y014153D01*
X003829Y014153D02*
X003031Y014153D01*
X002829Y014153D02*
X002031Y014153D01*
X002025Y014155D02*
X001835Y014155D01*
X001661Y014083D01*
X001527Y013949D01*
X001455Y013775D01*
X001455Y013585D01*
X001527Y013411D01*
X001661Y013277D01*
X001835Y013205D01*
X002025Y013205D01*
X002199Y013277D01*
X002333Y013411D01*
X002405Y013585D01*
X002405Y013775D01*
X002333Y013949D01*
X002199Y014083D01*
X002025Y014155D01*
X001829Y014153D02*
X001410Y014153D01*
X001410Y014196D02*
X012320Y014196D01*
X012320Y001160D01*
X001410Y001160D01*
X001410Y014196D01*
X001410Y013994D02*
X001572Y013994D01*
X001480Y013836D02*
X001410Y013836D01*
X001410Y013677D02*
X001455Y013677D01*
X001482Y013519D02*
X001410Y013519D01*
X001410Y013360D02*
X001578Y013360D01*
X001410Y013202D02*
X002690Y013202D01*
X002690Y013043D02*
X002239Y013043D01*
X002199Y013083D02*
X002025Y013155D01*
X001835Y013155D01*
X001661Y013083D01*
X001527Y012949D01*
X001455Y012775D01*
X001455Y012585D01*
X001527Y012411D01*
X001661Y012277D01*
X001835Y012205D01*
X002025Y012205D01*
X002199Y012277D01*
X002333Y012411D01*
X002405Y012585D01*
X002405Y012775D01*
X002333Y012949D01*
X002199Y013083D01*
X002282Y013360D02*
X002578Y013360D01*
X002482Y013519D02*
X002378Y013519D01*
X002405Y013677D02*
X002455Y013677D01*
X002480Y013836D02*
X002380Y013836D01*
X002288Y013994D02*
X002572Y013994D01*
X003288Y013994D02*
X003572Y013994D01*
X003480Y013836D02*
X003380Y013836D01*
X003405Y013677D02*
X003455Y013677D01*
X003482Y013519D02*
X003378Y013519D01*
X003282Y013360D02*
X003578Y013360D01*
X003690Y013202D02*
X003170Y013202D01*
X003170Y013043D02*
X003690Y013043D01*
X003690Y012885D02*
X003170Y012885D01*
X003170Y012726D02*
X003690Y012726D01*
X003690Y012568D02*
X003170Y012568D01*
X003170Y012409D02*
X003690Y012409D01*
X003770Y012251D02*
X003199Y012251D01*
X002837Y011934D02*
X002339Y011934D01*
X002333Y011949D02*
X002199Y012083D01*
X002025Y012155D01*
X001835Y012155D01*
X001661Y012083D01*
X001527Y011949D01*
X001455Y011775D01*
X001410Y011775D01*
X001455Y011775D02*
X001455Y011585D01*
X001527Y011411D01*
X001661Y011277D01*
X001835Y011205D01*
X002025Y011205D01*
X002190Y011273D01*
X002190Y011087D01*
X002025Y011155D01*
X001835Y011155D01*
X001661Y011083D01*
X001527Y010949D01*
X001455Y010775D01*
X001455Y010585D01*
X001527Y010411D01*
X001661Y010277D01*
X001835Y010205D01*
X002025Y010205D01*
X002190Y010273D01*
X002190Y006632D01*
X002227Y006544D01*
X002294Y006477D01*
X002544Y006227D01*
X002632Y006190D01*
X003741Y006190D01*
X003981Y005950D01*
X004379Y005950D01*
X004660Y006231D01*
X004660Y006629D01*
X004379Y006910D01*
X003981Y006910D01*
X003741Y006670D01*
X002779Y006670D01*
X002670Y006779D01*
X002670Y011478D01*
X002633Y011566D01*
X002391Y011808D01*
X002333Y011949D01*
X002424Y011775D02*
X002996Y011775D01*
X002707Y012092D02*
X002177Y012092D01*
X002135Y012251D02*
X002690Y012251D01*
X002690Y012409D02*
X002331Y012409D01*
X002398Y012568D02*
X002690Y012568D01*
X002690Y012726D02*
X002405Y012726D01*
X002360Y012885D02*
X002690Y012885D01*
X001725Y012251D02*
X001410Y012251D01*
X001410Y012409D02*
X001529Y012409D01*
X001462Y012568D02*
X001410Y012568D01*
X001410Y012726D02*
X001455Y012726D01*
X001410Y012885D02*
X001500Y012885D01*
X001410Y013043D02*
X001621Y013043D01*
X001683Y012092D02*
X001410Y012092D01*
X001410Y011934D02*
X001521Y011934D01*
X001455Y011617D02*
X001410Y011617D01*
X001410Y011458D02*
X001508Y011458D01*
X001410Y011300D02*
X001638Y011300D01*
X001801Y011141D02*
X001410Y011141D01*
X001410Y010983D02*
X001560Y010983D01*
X001475Y010824D02*
X001410Y010824D01*
X001410Y010666D02*
X001455Y010666D01*
X001487Y010507D02*
X001410Y010507D01*
X001410Y010349D02*
X001589Y010349D01*
X001410Y010190D02*
X002190Y010190D01*
X002190Y010032D02*
X001410Y010032D01*
X001410Y009873D02*
X002190Y009873D01*
X002190Y009715D02*
X001410Y009715D01*
X001410Y009556D02*
X002190Y009556D01*
X002190Y009398D02*
X001410Y009398D01*
X001410Y009239D02*
X002190Y009239D01*
X002190Y009081D02*
X001410Y009081D01*
X001410Y008922D02*
X002190Y008922D01*
X002190Y008764D02*
X001410Y008764D01*
X001410Y008605D02*
X002190Y008605D01*
X002190Y008447D02*
X001410Y008447D01*
X001410Y008288D02*
X002190Y008288D01*
X002190Y008130D02*
X001410Y008130D01*
X001410Y007971D02*
X002190Y007971D01*
X002190Y007813D02*
X001410Y007813D01*
X001410Y007654D02*
X002190Y007654D01*
X002190Y007496D02*
X001410Y007496D01*
X001410Y007337D02*
X002190Y007337D01*
X002190Y007179D02*
X001410Y007179D01*
X001410Y007020D02*
X002190Y007020D01*
X002190Y006862D02*
X001410Y006862D01*
X001410Y006703D02*
X002190Y006703D01*
X002226Y006545D02*
X001410Y006545D01*
X001410Y006386D02*
X002385Y006386D01*
X002543Y006228D02*
X001410Y006228D01*
X001410Y006069D02*
X003862Y006069D01*
X003774Y006703D02*
X002746Y006703D01*
X002670Y006862D02*
X003933Y006862D01*
X003981Y006950D02*
X004379Y006950D01*
X004660Y007231D01*
X004660Y007629D01*
X004379Y007910D01*
X003981Y007910D01*
X003700Y007629D01*
X003700Y007231D01*
X003981Y006950D01*
X003911Y007020D02*
X002670Y007020D01*
X002670Y007179D02*
X003753Y007179D01*
X003700Y007337D02*
X002670Y007337D01*
X002670Y007496D02*
X003700Y007496D01*
X003725Y007654D02*
X002670Y007654D01*
X002670Y007813D02*
X003884Y007813D01*
X003981Y007950D02*
X004379Y007950D01*
X004660Y008231D01*
X004660Y008629D01*
X004379Y008910D01*
X003981Y008910D01*
X003700Y008629D01*
X003700Y008231D01*
X003981Y007950D01*
X003960Y007971D02*
X002670Y007971D01*
X002670Y008130D02*
X003802Y008130D01*
X003700Y008288D02*
X002670Y008288D01*
X002670Y008447D02*
X003700Y008447D01*
X003700Y008605D02*
X002670Y008605D01*
X002670Y008764D02*
X003835Y008764D01*
X003981Y008950D02*
X004379Y008950D01*
X004660Y009231D01*
X004660Y009629D01*
X004379Y009910D01*
X003981Y009910D01*
X003700Y009629D01*
X003700Y009231D01*
X003981Y008950D01*
X003851Y009081D02*
X002670Y009081D01*
X002670Y009239D02*
X003700Y009239D01*
X003700Y009398D02*
X002670Y009398D01*
X002670Y009556D02*
X003700Y009556D01*
X003786Y009715D02*
X002670Y009715D01*
X002670Y009873D02*
X003944Y009873D01*
X004416Y009873D02*
X004944Y009873D01*
X004786Y009715D02*
X004574Y009715D01*
X004660Y009556D02*
X004700Y009556D01*
X004700Y009398D02*
X004660Y009398D01*
X004660Y009239D02*
X004700Y009239D01*
X004851Y009081D02*
X004509Y009081D01*
X004525Y008764D02*
X004835Y008764D01*
X004700Y008605D02*
X004660Y008605D01*
X004660Y008447D02*
X004700Y008447D01*
X004700Y008288D02*
X004660Y008288D01*
X004558Y008130D02*
X004802Y008130D01*
X004960Y007971D02*
X004400Y007971D01*
X004476Y007813D02*
X004884Y007813D01*
X004981Y007910D02*
X004700Y007629D01*
X004700Y007231D01*
X004981Y006950D01*
X005379Y006950D01*
X005660Y007231D01*
X005660Y007629D01*
X005379Y007910D01*
X004981Y007910D01*
X004725Y007654D02*
X004635Y007654D01*
X004660Y007496D02*
X004700Y007496D01*
X004700Y007337D02*
X004660Y007337D01*
X004607Y007179D02*
X004753Y007179D01*
X004911Y007020D02*
X004449Y007020D01*
X004427Y006862D02*
X004757Y006862D01*
X004769Y006874D02*
X004736Y006841D01*
X004712Y006799D01*
X004700Y006754D01*
X004700Y006450D01*
X005160Y006450D01*
X005160Y006910D01*
X004856Y006910D01*
X004811Y006898D01*
X004769Y006874D01*
X004700Y006703D02*
X004586Y006703D01*
X004660Y006545D02*
X004700Y006545D01*
X004700Y006410D02*
X004700Y006106D01*
X004712Y006061D01*
X004736Y006019D01*
X004769Y005986D01*
X004811Y005962D01*
X004856Y005950D01*
X005160Y005950D01*
X005160Y006410D01*
X005200Y006410D01*
X005200Y006450D01*
X005160Y006450D01*
X005160Y006410D01*
X004700Y006410D01*
X004700Y006386D02*
X004660Y006386D01*
X004656Y006228D02*
X004700Y006228D01*
X004710Y006069D02*
X004498Y006069D01*
X005160Y006069D02*
X005200Y006069D01*
X005200Y005950D02*
X005504Y005950D01*
X005549Y005962D01*
X005591Y005986D01*
X005624Y006019D01*
X005648Y006061D01*
X005660Y006106D01*
X005660Y006410D01*
X005200Y006410D01*
X005200Y005950D01*
X005200Y006228D02*
X005160Y006228D01*
X005160Y006386D02*
X005200Y006386D01*
X005200Y006450D02*
X005660Y006450D01*
X005660Y006754D01*
X005648Y006799D01*
X005624Y006841D01*
X005591Y006874D01*
X005549Y006898D01*
X005504Y006910D01*
X005200Y006910D01*
X005200Y006450D01*
X005200Y006545D02*
X005160Y006545D01*
X005160Y006703D02*
X005200Y006703D01*
X005200Y006862D02*
X005160Y006862D01*
X005449Y007020D02*
X005690Y007020D01*
X005690Y006862D02*
X005603Y006862D01*
X005660Y006703D02*
X005690Y006703D01*
X005690Y006545D02*
X005660Y006545D01*
X005660Y006386D02*
X005690Y006386D01*
X005690Y006228D02*
X005660Y006228D01*
X005650Y006069D02*
X005690Y006069D01*
X005690Y005911D02*
X001410Y005911D01*
X001410Y005752D02*
X005690Y005752D01*
X005690Y005594D02*
X002174Y005594D01*
X002199Y005583D02*
X002025Y005655D01*
X001835Y005655D01*
X001661Y005583D01*
X001527Y005449D01*
X001455Y005275D01*
X001455Y005085D01*
X001527Y004911D01*
X001661Y004777D01*
X001835Y004705D01*
X002025Y004705D01*
X002199Y004777D01*
X002333Y004911D01*
X002337Y004920D01*
X003572Y004920D01*
X003802Y004690D01*
X003802Y004407D01*
X003907Y004302D01*
X004453Y004302D01*
X004558Y004407D01*
X004558Y004953D01*
X004453Y005058D01*
X004170Y005058D01*
X003900Y005327D01*
X003827Y005400D01*
X003732Y005440D01*
X002337Y005440D01*
X002333Y005449D01*
X002199Y005583D01*
X001930Y005180D02*
X003680Y005180D01*
X004180Y004680D01*
X004476Y004326D02*
X009413Y004326D01*
X009318Y004484D02*
X004558Y004484D01*
X004558Y004643D02*
X009223Y004643D01*
X009128Y004801D02*
X004558Y004801D01*
X004551Y004960D02*
X006085Y004960D01*
X005903Y005118D02*
X004110Y005118D01*
X003951Y005277D02*
X005744Y005277D01*
X005690Y005435D02*
X003744Y005435D01*
X003691Y004801D02*
X002223Y004801D01*
X002055Y004643D02*
X003802Y004643D01*
X003802Y004484D02*
X002298Y004484D01*
X002333Y004449D02*
X002199Y004583D01*
X002025Y004655D01*
X001835Y004655D01*
X001661Y004583D01*
X001527Y004449D01*
X001455Y004275D01*
X001455Y004085D01*
X001527Y003911D01*
X001661Y003777D01*
X001835Y003705D01*
X002025Y003705D01*
X002199Y003777D01*
X002333Y003911D01*
X002405Y004085D01*
X002405Y004275D01*
X002333Y004449D01*
X002384Y004326D02*
X003884Y004326D01*
X002405Y004167D02*
X009508Y004167D01*
X009603Y004009D02*
X002373Y004009D01*
X002272Y003850D02*
X009698Y003850D01*
X009793Y003692D02*
X001410Y003692D01*
X001410Y003850D02*
X001588Y003850D01*
X001487Y004009D02*
X001410Y004009D01*
X001410Y004167D02*
X001455Y004167D01*
X001476Y004326D02*
X001410Y004326D01*
X001410Y004484D02*
X001562Y004484D01*
X001410Y004643D02*
X001805Y004643D01*
X001637Y004801D02*
X001410Y004801D01*
X001410Y004960D02*
X001507Y004960D01*
X001455Y005118D02*
X001410Y005118D01*
X001410Y005277D02*
X001456Y005277D01*
X001410Y005435D02*
X001521Y005435D01*
X001410Y005594D02*
X001686Y005594D01*
X001835Y003655D02*
X001661Y003583D01*
X001527Y003449D01*
X001455Y003275D01*
X001455Y003085D01*
X001527Y002911D01*
X001661Y002777D01*
X001835Y002705D01*
X002025Y002705D01*
X002199Y002777D01*
X002333Y002911D01*
X002405Y003085D01*
X002405Y003275D01*
X002333Y003449D01*
X002199Y003583D01*
X002025Y003655D01*
X001835Y003655D01*
X001611Y003533D02*
X001410Y003533D01*
X001410Y003375D02*
X001496Y003375D01*
X001455Y003216D02*
X001410Y003216D01*
X001410Y003058D02*
X001466Y003058D01*
X001410Y002899D02*
X001539Y002899D01*
X001410Y002741D02*
X001749Y002741D01*
X001410Y002582D02*
X008206Y002582D01*
X008205Y002585D02*
X008277Y002411D01*
X008411Y002277D01*
X008585Y002205D01*
X008775Y002205D01*
X008949Y002277D01*
X009083Y002411D01*
X009155Y002585D01*
X009155Y002775D01*
X009083Y002949D01*
X008949Y003083D01*
X008775Y003155D01*
X008585Y003155D01*
X008411Y003083D01*
X008277Y002949D01*
X008205Y002775D01*
X008205Y002585D01*
X008205Y002741D02*
X002111Y002741D01*
X002321Y002899D02*
X008256Y002899D01*
X008385Y003058D02*
X002394Y003058D01*
X002405Y003216D02*
X010079Y003216D01*
X010174Y003058D02*
X008975Y003058D01*
X009104Y002899D02*
X010248Y002899D01*
X010220Y002741D02*
X009155Y002741D01*
X009154Y002582D02*
X010220Y002582D01*
X010286Y002424D02*
X009088Y002424D01*
X009204Y002265D02*
X008920Y002265D01*
X008892Y002107D02*
X009125Y002107D01*
X009503Y001790D02*
X010220Y001790D01*
X010220Y001631D02*
X009424Y001631D01*
X009307Y001473D02*
X010237Y001473D01*
X010395Y001314D02*
X008986Y001314D01*
X008374Y001314D02*
X001410Y001314D01*
X001410Y001473D02*
X008252Y001473D01*
X008205Y001631D02*
X001410Y001631D01*
X001410Y001790D02*
X008211Y001790D01*
X008277Y001948D02*
X001410Y001948D01*
X001410Y002107D02*
X008468Y002107D01*
X008440Y002265D02*
X001410Y002265D01*
X001410Y002424D02*
X008272Y002424D01*
X009888Y003533D02*
X002249Y003533D01*
X002364Y003375D02*
X009983Y003375D01*
X010638Y003216D02*
X012320Y003216D01*
X012320Y003058D02*
X011953Y003058D01*
X011871Y003140D02*
X011489Y003140D01*
X011220Y002871D01*
X011220Y002489D01*
X011489Y002220D01*
X011871Y002220D01*
X012140Y002489D01*
X012140Y002871D01*
X011871Y003140D01*
X011871Y003220D02*
X012140Y003489D01*
X012140Y003871D01*
X011871Y004140D01*
X011489Y004140D01*
X011220Y003871D01*
X011220Y003489D01*
X011489Y003220D01*
X011871Y003220D01*
X012025Y003375D02*
X012320Y003375D01*
X012320Y003533D02*
X012140Y003533D01*
X012140Y003692D02*
X012320Y003692D01*
X012320Y003850D02*
X012140Y003850D01*
X012002Y004009D02*
X012320Y004009D01*
X012320Y004167D02*
X010678Y004167D01*
X010976Y004326D02*
X011384Y004326D01*
X011489Y004220D02*
X011220Y004489D01*
X011220Y004871D01*
X011489Y005140D01*
X011871Y005140D01*
X012140Y004871D01*
X012140Y004489D01*
X011871Y004220D01*
X011489Y004220D01*
X011358Y004009D02*
X011002Y004009D01*
X011140Y003850D02*
X011220Y003850D01*
X011220Y003692D02*
X011140Y003692D01*
X011140Y003533D02*
X011220Y003533D01*
X011335Y003375D02*
X011025Y003375D01*
X010953Y003058D02*
X011407Y003058D01*
X011248Y002899D02*
X011112Y002899D01*
X011140Y002741D02*
X011220Y002741D01*
X011220Y002582D02*
X011140Y002582D01*
X011074Y002424D02*
X011286Y002424D01*
X011434Y002265D02*
X011444Y002265D01*
X011916Y002265D02*
X012320Y002265D01*
X012320Y002107D02*
X011904Y002107D01*
X012063Y001948D02*
X012320Y001948D01*
X012320Y001790D02*
X012140Y001790D01*
X012140Y001631D02*
X012320Y001631D01*
X012320Y001473D02*
X012123Y001473D01*
X011965Y001314D02*
X012320Y001314D01*
X011395Y001314D02*
X010965Y001314D01*
X010871Y001220D02*
X011140Y001489D01*
X011140Y001670D01*
X010690Y001670D01*
X010690Y001220D01*
X010871Y001220D01*
X010690Y001314D02*
X010670Y001314D01*
X010670Y001473D02*
X010690Y001473D01*
X010690Y001631D02*
X010670Y001631D01*
X011140Y001631D02*
X011220Y001631D01*
X011220Y001790D02*
X011140Y001790D01*
X011123Y001473D02*
X011237Y001473D01*
X012074Y002424D02*
X012320Y002424D01*
X012320Y002582D02*
X012140Y002582D01*
X012140Y002741D02*
X012320Y002741D01*
X012320Y002899D02*
X012112Y002899D01*
X011976Y004326D02*
X012320Y004326D01*
X012320Y004484D02*
X012135Y004484D01*
X012140Y004643D02*
X012320Y004643D01*
X012320Y004801D02*
X012140Y004801D01*
X012051Y004960D02*
X012320Y004960D01*
X012320Y005118D02*
X011893Y005118D01*
X011927Y005277D02*
X012320Y005277D01*
X012320Y005435D02*
X012086Y005435D01*
X012140Y005594D02*
X012320Y005594D01*
X012320Y005752D02*
X012140Y005752D01*
X012100Y005911D02*
X012320Y005911D01*
X012320Y006069D02*
X011942Y006069D01*
X011878Y006228D02*
X012320Y006228D01*
X012320Y006386D02*
X012037Y006386D01*
X012140Y006545D02*
X012320Y006545D01*
X012320Y006703D02*
X012140Y006703D01*
X012140Y006862D02*
X012320Y006862D01*
X012320Y007020D02*
X011991Y007020D01*
X011871Y007220D02*
X012140Y007489D01*
X012140Y007871D01*
X011871Y008140D01*
X011489Y008140D01*
X011220Y007871D01*
X011220Y007489D01*
X011489Y007220D01*
X011871Y007220D01*
X011988Y007337D02*
X012320Y007337D01*
X012320Y007179D02*
X011521Y007179D01*
X011372Y007337D02*
X011362Y007337D01*
X011220Y007496D02*
X011140Y007496D01*
X011140Y007654D02*
X011220Y007654D01*
X011220Y007813D02*
X011140Y007813D01*
X011303Y007971D02*
X011320Y007971D01*
X011469Y008130D02*
X011479Y008130D01*
X011881Y008130D02*
X012320Y008130D01*
X012320Y008288D02*
X011939Y008288D01*
X012097Y008447D02*
X012320Y008447D01*
X012320Y008605D02*
X012140Y008605D01*
X012140Y008764D02*
X012320Y008764D01*
X012320Y008922D02*
X012089Y008922D01*
X011930Y009081D02*
X012320Y009081D01*
X012320Y009239D02*
X011890Y009239D01*
X011871Y009220D02*
X012140Y009489D01*
X012140Y009871D01*
X011871Y010140D01*
X011489Y010140D01*
X011220Y009871D01*
X011220Y009489D01*
X011489Y009220D01*
X011871Y009220D01*
X012048Y009398D02*
X012320Y009398D01*
X012320Y009556D02*
X012140Y009556D01*
X012140Y009715D02*
X012320Y009715D01*
X012320Y009873D02*
X012138Y009873D01*
X011979Y010032D02*
X012320Y010032D01*
X012320Y010190D02*
X008420Y010190D01*
X008420Y010032D02*
X010381Y010032D01*
X010489Y010140D02*
X010220Y009871D01*
X010220Y009489D01*
X010489Y009220D01*
X010871Y009220D01*
X011140Y009489D01*
X011140Y009871D01*
X010871Y010140D01*
X010489Y010140D01*
X010489Y010220D02*
X010871Y010220D01*
X011140Y010489D01*
X011140Y010871D01*
X010871Y011140D01*
X010489Y011140D01*
X010220Y010871D01*
X010220Y010489D01*
X010489Y010220D01*
X010361Y010349D02*
X008420Y010349D01*
X008420Y010507D02*
X010220Y010507D01*
X010220Y010666D02*
X008420Y010666D01*
X008420Y010824D02*
X010220Y010824D01*
X010332Y010983D02*
X008420Y010983D01*
X008420Y011141D02*
X012320Y011141D01*
X012320Y010983D02*
X012028Y010983D01*
X012140Y010871D02*
X011871Y011140D01*
X011489Y011140D01*
X011220Y010871D01*
X011220Y010489D01*
X011489Y010220D01*
X011871Y010220D01*
X012140Y010489D01*
X012140Y010871D01*
X012140Y010824D02*
X012320Y010824D01*
X012320Y010666D02*
X012140Y010666D01*
X012140Y010507D02*
X012320Y010507D01*
X012320Y010349D02*
X011999Y010349D01*
X011361Y010349D02*
X010999Y010349D01*
X011140Y010507D02*
X011220Y010507D01*
X011220Y010666D02*
X011140Y010666D01*
X011140Y010824D02*
X011220Y010824D01*
X011332Y010983D02*
X011028Y010983D01*
X010871Y011220D02*
X011140Y011489D01*
X011140Y011871D01*
X010871Y012140D01*
X010489Y012140D01*
X010220Y011871D01*
X010220Y011489D01*
X010489Y011220D01*
X010871Y011220D01*
X010950Y011300D02*
X011410Y011300D01*
X011489Y011220D02*
X011220Y011489D01*
X011220Y011871D01*
X011489Y012140D01*
X011871Y012140D01*
X012140Y011871D01*
X012140Y011489D01*
X011871Y011220D01*
X011489Y011220D01*
X011251Y011458D02*
X011109Y011458D01*
X011140Y011617D02*
X011220Y011617D01*
X011220Y011775D02*
X011140Y011775D01*
X011077Y011934D02*
X011283Y011934D01*
X011441Y012092D02*
X010919Y012092D01*
X010901Y012251D02*
X011459Y012251D01*
X011300Y012409D02*
X011060Y012409D01*
X011140Y012568D02*
X011220Y012568D01*
X011220Y012726D02*
X011140Y012726D01*
X011126Y012885D02*
X011136Y012885D01*
X010459Y012251D02*
X008199Y012251D01*
X008357Y012092D02*
X010441Y012092D01*
X010283Y011934D02*
X008420Y011934D01*
X008420Y011775D02*
X010220Y011775D01*
X010220Y011617D02*
X008420Y011617D01*
X008420Y011458D02*
X010251Y011458D01*
X010410Y011300D02*
X008420Y011300D01*
X007690Y011300D02*
X002670Y011300D01*
X002670Y011458D02*
X007690Y011458D01*
X007654Y011617D02*
X002583Y011617D01*
X002670Y011141D02*
X007690Y011141D01*
X007690Y010983D02*
X002670Y010983D01*
X002670Y010824D02*
X007690Y010824D01*
X007690Y010666D02*
X002670Y010666D01*
X002670Y010507D02*
X007690Y010507D01*
X007690Y010349D02*
X002670Y010349D01*
X002670Y010190D02*
X007690Y010190D01*
X007690Y010032D02*
X002670Y010032D01*
X002670Y008922D02*
X005940Y008922D01*
X005940Y008764D02*
X005525Y008764D01*
X005509Y009081D02*
X005940Y009081D01*
X005940Y008605D02*
X005844Y008605D01*
X005641Y008130D02*
X005558Y008130D01*
X005690Y007971D02*
X005400Y007971D01*
X005476Y007813D02*
X005690Y007813D01*
X005690Y007654D02*
X005635Y007654D01*
X005660Y007496D02*
X005690Y007496D01*
X005690Y007337D02*
X005660Y007337D01*
X005690Y007179D02*
X005607Y007179D01*
X006420Y006800D02*
X006420Y006560D01*
X006461Y006584D01*
X006507Y006596D01*
X006729Y006596D01*
X006729Y006218D01*
X006805Y006218D01*
X006805Y006596D01*
X007027Y006596D01*
X007072Y006584D01*
X007113Y006560D01*
X007147Y006527D01*
X007171Y006486D01*
X007177Y006461D01*
X007177Y006491D01*
X007283Y006596D01*
X007904Y006596D01*
X007930Y006570D01*
X007995Y006636D01*
X008577Y006636D01*
X008680Y006533D01*
X008783Y006636D01*
X009365Y006636D01*
X009470Y006530D01*
X009470Y006420D01*
X010289Y006420D01*
X010220Y006489D01*
X010220Y006871D01*
X010289Y006940D01*
X009470Y006940D01*
X009470Y006830D01*
X009365Y006724D01*
X008783Y006724D01*
X008680Y006827D01*
X008577Y006724D01*
X007995Y006724D01*
X007930Y006790D01*
X007904Y006764D01*
X007283Y006764D01*
X007177Y006869D01*
X007177Y006899D01*
X007171Y006874D01*
X007147Y006833D01*
X007113Y006800D01*
X007072Y006776D01*
X007027Y006764D01*
X006805Y006764D01*
X006805Y007142D01*
X006729Y007142D01*
X006729Y006764D01*
X006507Y006764D01*
X006461Y006776D01*
X006420Y006800D01*
X006420Y006703D02*
X010220Y006703D01*
X010220Y006545D02*
X009456Y006545D01*
X009470Y006862D02*
X010220Y006862D01*
X011140Y006862D02*
X011159Y006862D01*
X011140Y006703D02*
X011220Y006703D01*
X011220Y006545D02*
X011140Y006545D01*
X011310Y006386D02*
X011323Y006386D01*
X011472Y006228D02*
X011482Y006228D01*
X011110Y005911D02*
X011100Y005911D01*
X011140Y005752D02*
X011220Y005752D01*
X011220Y005594D02*
X011140Y005594D01*
X011086Y005435D02*
X011274Y005435D01*
X011433Y005277D02*
X010927Y005277D01*
X010893Y005118D02*
X011467Y005118D01*
X011309Y004960D02*
X011051Y004960D01*
X011140Y004801D02*
X011220Y004801D01*
X011220Y004643D02*
X011140Y004643D01*
X011135Y004484D02*
X011225Y004484D01*
X010467Y005118D02*
X010135Y005118D01*
X010225Y004960D02*
X010309Y004960D01*
X010433Y005277D02*
X010044Y005277D01*
X009954Y005435D02*
X010274Y005435D01*
X010220Y005594D02*
X009861Y005594D01*
X010220Y005752D02*
X009392Y005752D01*
X009470Y005911D02*
X010260Y005911D01*
X008755Y005752D02*
X008605Y005752D01*
X007968Y005752D02*
X006447Y005752D01*
X006729Y005911D02*
X006805Y005911D01*
X006805Y006069D02*
X006729Y006069D01*
X006729Y006228D02*
X006805Y006228D01*
X006805Y006386D02*
X006729Y006386D01*
X006729Y006545D02*
X006805Y006545D01*
X006805Y006862D02*
X006729Y006862D01*
X006729Y007020D02*
X006805Y007020D01*
X006805Y007337D02*
X006729Y007337D01*
X006729Y007496D02*
X006805Y007496D01*
X007165Y007496D02*
X007182Y007496D01*
X007719Y007813D02*
X006420Y007813D01*
X006420Y007971D02*
X007690Y007971D01*
X007690Y008130D02*
X006420Y008130D01*
X006420Y008288D02*
X007690Y008288D01*
X007690Y008447D02*
X006420Y008447D01*
X006420Y008605D02*
X007690Y008605D01*
X007690Y008764D02*
X006420Y008764D01*
X006420Y008922D02*
X007690Y008922D01*
X007690Y009081D02*
X006420Y009081D01*
X006415Y009239D02*
X007690Y009239D01*
X007690Y009398D02*
X006302Y009398D01*
X006143Y009556D02*
X007690Y009556D01*
X007690Y009715D02*
X005574Y009715D01*
X005416Y009873D02*
X007690Y009873D01*
X008420Y009873D02*
X010222Y009873D01*
X010220Y009715D02*
X008420Y009715D01*
X008420Y009556D02*
X010220Y009556D01*
X010312Y009398D02*
X008420Y009398D01*
X008420Y009239D02*
X010470Y009239D01*
X010430Y009081D02*
X008420Y009081D01*
X008420Y008922D02*
X010271Y008922D01*
X010220Y008764D02*
X008420Y008764D01*
X008420Y008605D02*
X010220Y008605D01*
X010263Y008447D02*
X008503Y008447D01*
X007867Y007654D02*
X006420Y007654D01*
X007163Y006862D02*
X007185Y006862D01*
X007231Y006545D02*
X007129Y006545D01*
X008668Y006545D02*
X008692Y006545D01*
X010930Y009081D02*
X011430Y009081D01*
X011470Y009239D02*
X010890Y009239D01*
X011048Y009398D02*
X011312Y009398D01*
X011220Y009556D02*
X011140Y009556D01*
X011140Y009715D02*
X011220Y009715D01*
X011222Y009873D02*
X011138Y009873D01*
X010979Y010032D02*
X011381Y010032D01*
X011271Y008922D02*
X011089Y008922D01*
X011140Y008764D02*
X011220Y008764D01*
X011220Y008605D02*
X011140Y008605D01*
X011107Y008447D02*
X011097Y008447D01*
X012040Y007971D02*
X012320Y007971D01*
X012320Y007813D02*
X012140Y007813D01*
X012140Y007654D02*
X012320Y007654D01*
X012320Y007496D02*
X012140Y007496D01*
X011950Y011300D02*
X012320Y011300D01*
X012320Y011458D02*
X012109Y011458D01*
X012140Y011617D02*
X012320Y011617D01*
X012320Y011775D02*
X012140Y011775D01*
X012077Y011934D02*
X012320Y011934D01*
X012320Y012092D02*
X011919Y012092D01*
X011901Y012251D02*
X012320Y012251D01*
X012320Y012409D02*
X012060Y012409D01*
X012140Y012568D02*
X012320Y012568D01*
X012320Y012726D02*
X012140Y012726D01*
X012126Y012885D02*
X012320Y012885D01*
X012320Y013043D02*
X011968Y013043D01*
X010234Y012885D02*
X004785Y012885D01*
X004170Y012726D02*
X010220Y012726D01*
X010220Y012568D02*
X004170Y012568D01*
X004405Y013677D02*
X004455Y013677D01*
X004480Y013836D02*
X004380Y013836D01*
X004288Y013994D02*
X004572Y013994D01*
X005288Y013994D02*
X005572Y013994D01*
X005480Y013836D02*
X005380Y013836D01*
X005405Y013677D02*
X005455Y013677D01*
X005482Y013519D02*
X005378Y013519D01*
X006378Y013519D02*
X006482Y013519D01*
X006455Y013677D02*
X006405Y013677D01*
X006380Y013836D02*
X006480Y013836D01*
X006572Y013994D02*
X006288Y013994D01*
X007288Y013994D02*
X007572Y013994D01*
X007480Y013836D02*
X007380Y013836D01*
X007405Y013677D02*
X007455Y013677D01*
X007482Y013519D02*
X007378Y013519D01*
X008004Y012409D02*
X010300Y012409D01*
X010249Y013519D02*
X009378Y013519D01*
X009405Y013677D02*
X010220Y013677D01*
X010247Y013836D02*
X009380Y013836D01*
X009288Y013994D02*
X010343Y013994D01*
X002190Y011141D02*
X002059Y011141D01*
D18*
X001930Y010680D03*
X001930Y009680D03*
X001930Y008680D03*
X001930Y011680D03*
X001930Y012680D03*
X001930Y013680D03*
X002930Y013680D03*
X003930Y013680D03*
X004930Y013680D03*
X005930Y013680D03*
X006930Y013680D03*
X007930Y013680D03*
X008930Y013680D03*
X005180Y010930D03*
X001930Y005180D03*
X001930Y004180D03*
X001930Y003180D03*
X005680Y002430D03*
X008680Y002680D03*
X008680Y001680D03*
D19*
X009180Y001680D01*
X009430Y002180D01*
X011180Y002180D01*
X011680Y001680D01*
X010680Y002680D02*
X009180Y005180D01*
X006180Y005180D01*
X005930Y005430D01*
X005930Y008180D01*
X005680Y008430D01*
X005180Y008430D01*
X005180Y009430D02*
X005930Y009430D01*
X006180Y009180D01*
X006180Y005680D01*
X006430Y005430D01*
X009680Y005430D01*
X010680Y003680D01*
X011680Y005680D02*
X011180Y006180D01*
X009074Y006180D01*
X008286Y006180D02*
X007593Y006180D01*
X007593Y007180D02*
X008286Y007180D01*
X008180Y007680D02*
X007930Y007930D01*
X007930Y011680D01*
X007680Y011930D01*
X003180Y011930D01*
X002930Y012180D01*
X002930Y013680D01*
X003930Y013680D02*
X003930Y012430D01*
X004180Y012180D01*
X007930Y012180D01*
X008180Y011930D01*
X008180Y008430D01*
X008430Y008180D01*
X011180Y008180D01*
X011680Y008680D01*
X010680Y007680D02*
X008180Y007680D01*
X009074Y007180D02*
X011180Y007180D01*
X011680Y006680D01*
X011680Y012680D02*
X011180Y013180D01*
X004430Y013180D01*
X002430Y011430D02*
X002180Y011680D01*
X001930Y011680D01*
X002430Y011430D02*
X002430Y010430D01*
X002180Y010680D01*
X001930Y010680D01*
X002430Y010430D02*
X002430Y006680D01*
X002680Y006430D01*
X004180Y006430D01*
D20*
X004180Y004680D03*
X004430Y013180D03*
M02*
