G75*
%MOIN*%
%OFA0B0*%
%FSLAX24Y24*%
%IPPOS*%
%LPD*%
%AMOC8*
5,1,8,0,0,1.08239X$1,22.5*
%
%ADD10R,0.0600X0.0600*%
%ADD11OC8,0.0600*%
%ADD12C,0.0560*%
%ADD13OC8,0.0560*%
%ADD14C,0.0160*%
%ADD15C,0.0591*%
%ADD16C,0.0120*%
%ADD17R,0.0396X0.0396*%
D10*
X005180Y006430D03*
D11*
X005180Y007430D03*
X005180Y008430D03*
X005180Y009430D03*
X004180Y009430D03*
X004180Y008430D03*
X004180Y007430D03*
X004180Y006430D03*
D12*
X010680Y013680D03*
D13*
X010680Y012680D03*
X010680Y011680D03*
X010680Y010680D03*
X010680Y009680D03*
X010680Y008680D03*
X010680Y007680D03*
X010680Y006680D03*
X010680Y005680D03*
X010680Y004680D03*
X010680Y003680D03*
X010680Y002680D03*
X010680Y001680D03*
X011680Y001680D03*
X011680Y002680D03*
X011680Y003680D03*
X011680Y004680D03*
X011680Y005680D03*
X011680Y006680D03*
X011680Y007680D03*
X011680Y008680D03*
X011680Y009680D03*
X011680Y010680D03*
X011680Y011680D03*
X011680Y012680D03*
X011680Y013680D03*
D14*
X001410Y014196D02*
X001410Y001160D01*
X012320Y001160D01*
X012320Y014196D01*
X001410Y014196D01*
X001410Y014153D02*
X001829Y014153D01*
X001835Y014155D02*
X001661Y014083D01*
X001527Y013949D01*
X001455Y013775D01*
X001455Y013585D01*
X001527Y013411D01*
X001661Y013277D01*
X001802Y013219D01*
X001841Y013180D01*
X001802Y013141D01*
X001661Y013083D01*
X001527Y012949D01*
X001455Y012775D01*
X001455Y012585D01*
X001527Y012411D01*
X001661Y012277D01*
X001835Y012205D01*
X002025Y012205D01*
X002199Y012277D01*
X002333Y012411D01*
X002405Y012585D01*
X002405Y012775D01*
X002337Y012940D01*
X004052Y012940D01*
X004052Y012907D01*
X004157Y012802D01*
X004690Y012802D01*
X004690Y012632D01*
X004727Y012544D01*
X004794Y012477D01*
X005044Y012227D01*
X005132Y012190D01*
X008081Y012190D01*
X008190Y012081D01*
X008190Y009382D01*
X008227Y009294D01*
X008294Y009227D01*
X008544Y008977D01*
X008632Y008940D01*
X010289Y008940D01*
X010220Y008871D01*
X010220Y008635D01*
X009600Y008170D01*
X005599Y008170D01*
X005660Y008231D01*
X005660Y008629D01*
X005379Y008910D01*
X004981Y008910D01*
X004700Y008629D01*
X004700Y008231D01*
X004761Y008170D01*
X004632Y008170D01*
X004575Y008146D01*
X004660Y008231D01*
X004660Y008629D01*
X004379Y008910D01*
X003981Y008910D01*
X003741Y008670D01*
X003632Y008670D01*
X003544Y008633D01*
X003420Y008509D01*
X003420Y009081D01*
X003529Y009190D01*
X003741Y009190D01*
X003981Y008950D01*
X004379Y008950D01*
X004660Y009231D01*
X004660Y009629D01*
X004379Y009910D01*
X003981Y009910D01*
X003741Y009670D01*
X003382Y009670D01*
X003294Y009633D01*
X003044Y009383D01*
X002977Y009316D01*
X002940Y009228D01*
X002940Y004382D01*
X002977Y004294D01*
X003227Y004044D01*
X003294Y003977D01*
X003382Y003940D01*
X010289Y003940D01*
X010269Y003920D01*
X003279Y003920D01*
X002883Y004316D01*
X002816Y004383D01*
X002728Y004420D01*
X002345Y004420D01*
X002333Y004449D01*
X002199Y004583D01*
X002025Y004655D01*
X001835Y004655D01*
X001661Y004583D01*
X001527Y004449D01*
X001455Y004275D01*
X001455Y004085D01*
X001527Y003911D01*
X001661Y003777D01*
X001835Y003705D01*
X002025Y003705D01*
X002199Y003777D01*
X002333Y003911D01*
X002345Y003940D01*
X002581Y003940D01*
X003044Y003477D01*
X003132Y003440D01*
X010269Y003440D01*
X010489Y003220D01*
X010871Y003220D01*
X011140Y003489D01*
X011140Y003871D01*
X011071Y003940D01*
X011081Y003940D01*
X011220Y003801D01*
X011220Y003489D01*
X011489Y003220D01*
X011871Y003220D01*
X012140Y003489D01*
X012140Y003871D01*
X011871Y004140D01*
X011559Y004140D01*
X011316Y004383D01*
X011228Y004420D01*
X011071Y004420D01*
X011140Y004489D01*
X011140Y004871D01*
X010871Y005140D01*
X010489Y005140D01*
X010269Y004920D01*
X004558Y004920D01*
X004558Y004953D01*
X004453Y005058D01*
X003907Y005058D01*
X003802Y004953D01*
X003802Y004920D01*
X003779Y004920D01*
X003670Y005029D01*
X003670Y008081D01*
X003760Y008171D01*
X003981Y007950D01*
X004361Y007950D01*
X004321Y007910D01*
X003981Y007910D01*
X003700Y007629D01*
X003700Y007231D01*
X003981Y006950D01*
X004379Y006950D01*
X004660Y007231D01*
X004660Y007571D01*
X004700Y007611D01*
X004700Y007231D01*
X004981Y006950D01*
X005379Y006950D01*
X005396Y006968D01*
X005473Y006910D01*
X005200Y006910D01*
X005200Y006450D01*
X005160Y006450D01*
X005160Y006910D01*
X004856Y006910D01*
X004811Y006898D01*
X004769Y006874D01*
X004736Y006841D01*
X004712Y006799D01*
X004700Y006754D01*
X004700Y006450D01*
X005160Y006450D01*
X005160Y006410D01*
X004700Y006410D01*
X004700Y006106D01*
X004711Y006067D01*
X004625Y006196D01*
X004660Y006231D01*
X004660Y006629D01*
X004379Y006910D01*
X003981Y006910D01*
X003700Y006629D01*
X003700Y006231D01*
X003981Y005950D01*
X004212Y005950D01*
X004467Y005566D01*
X004477Y005544D01*
X004493Y005527D01*
X004507Y005507D01*
X004527Y005494D01*
X004544Y005477D01*
X004566Y005467D01*
X004586Y005454D01*
X004610Y005449D01*
X004632Y005440D01*
X004656Y005440D01*
X004680Y005435D01*
X004704Y005440D01*
X010269Y005440D01*
X010489Y005220D01*
X010871Y005220D01*
X011140Y005489D01*
X011140Y005871D01*
X010871Y006140D01*
X010489Y006140D01*
X010269Y005920D01*
X004808Y005920D01*
X004754Y006001D01*
X004769Y005986D01*
X004811Y005962D01*
X004856Y005950D01*
X005160Y005950D01*
X005160Y006410D01*
X005200Y006410D01*
X005200Y006450D01*
X005660Y006450D01*
X005660Y006754D01*
X005655Y006774D01*
X006022Y006498D01*
X006044Y006477D01*
X006060Y006470D01*
X006074Y006459D01*
X006104Y006452D01*
X006132Y006440D01*
X006150Y006440D01*
X006167Y006436D01*
X006197Y006440D01*
X010269Y006440D01*
X010489Y006220D01*
X010871Y006220D01*
X011140Y006489D01*
X011140Y006871D01*
X010871Y007140D01*
X010489Y007140D01*
X010269Y006920D01*
X006260Y006920D01*
X005660Y007370D01*
X005660Y007629D01*
X005599Y007690D01*
X009663Y007690D01*
X009693Y007686D01*
X009710Y007690D01*
X009728Y007690D01*
X009756Y007702D01*
X009786Y007709D01*
X009800Y007720D01*
X009816Y007727D01*
X009838Y007748D01*
X010480Y008230D01*
X010489Y008220D01*
X010871Y008220D01*
X011140Y008489D01*
X011140Y008871D01*
X011071Y008940D01*
X011228Y008940D01*
X011316Y008977D01*
X011383Y009044D01*
X011559Y009220D01*
X011871Y009220D01*
X012140Y009489D01*
X012140Y009871D01*
X011871Y010140D01*
X011489Y010140D01*
X011220Y009871D01*
X011220Y009559D01*
X011081Y009420D01*
X011071Y009420D01*
X011140Y009489D01*
X011140Y009871D01*
X011071Y009940D01*
X011228Y009940D01*
X011316Y009977D01*
X011383Y010044D01*
X011559Y010220D01*
X011871Y010220D01*
X012140Y010489D01*
X012140Y010871D01*
X011871Y011140D01*
X011489Y011140D01*
X011220Y010871D01*
X011220Y010559D01*
X011081Y010420D01*
X011071Y010420D01*
X011140Y010489D01*
X011140Y010871D01*
X010871Y011140D01*
X010489Y011140D01*
X010269Y010920D01*
X009279Y010920D01*
X009170Y011029D01*
X009170Y011601D01*
X009294Y011477D01*
X009382Y011440D01*
X010269Y011440D01*
X010489Y011220D01*
X010871Y011220D01*
X011140Y011489D01*
X011140Y011871D01*
X010871Y012140D01*
X010489Y012140D01*
X010269Y011920D01*
X009529Y011920D01*
X009420Y012029D01*
X009420Y012851D01*
X009727Y012544D01*
X009794Y012477D01*
X009882Y012440D01*
X010269Y012440D01*
X010489Y012220D01*
X010871Y012220D01*
X011140Y012489D01*
X011140Y012871D01*
X010871Y013140D01*
X010489Y013140D01*
X010269Y012920D01*
X010029Y012920D01*
X009393Y013556D01*
X009405Y013585D01*
X009405Y013775D01*
X009333Y013949D01*
X009199Y014083D01*
X009025Y014155D01*
X008835Y014155D01*
X008661Y014083D01*
X008527Y013949D01*
X008455Y013775D01*
X008455Y013585D01*
X008523Y013420D01*
X008337Y013420D01*
X008405Y013585D01*
X008405Y013775D01*
X008333Y013949D01*
X008199Y014083D01*
X008025Y014155D01*
X007835Y014155D01*
X007661Y014083D01*
X007527Y013949D01*
X007455Y013775D01*
X007455Y013585D01*
X007527Y013411D01*
X007661Y013277D01*
X007802Y013219D01*
X007851Y013170D01*
X007279Y013170D01*
X007180Y013269D01*
X007199Y013277D01*
X007333Y013411D01*
X007405Y013585D01*
X007405Y013775D01*
X007333Y013949D01*
X007199Y014083D01*
X007025Y014155D01*
X006835Y014155D01*
X006661Y014083D01*
X006527Y013949D01*
X006455Y013775D01*
X006455Y013585D01*
X006527Y013411D01*
X006661Y013277D01*
X006690Y013265D01*
X006690Y013132D01*
X006727Y013044D01*
X006794Y012977D01*
X006851Y012920D01*
X006279Y012920D01*
X006170Y013029D01*
X006170Y013265D01*
X006199Y013277D01*
X006333Y013411D01*
X006405Y013585D01*
X006405Y013775D01*
X006333Y013949D01*
X006199Y014083D01*
X006025Y014155D01*
X005835Y014155D01*
X005661Y014083D01*
X005527Y013949D01*
X005455Y013775D01*
X005455Y013585D01*
X005527Y013411D01*
X005661Y013277D01*
X005690Y013265D01*
X005690Y012882D01*
X005727Y012794D01*
X005794Y012727D01*
X005851Y012670D01*
X005279Y012670D01*
X005170Y012779D01*
X005170Y013265D01*
X005199Y013277D01*
X005333Y013411D01*
X005405Y013585D01*
X005405Y013775D01*
X005333Y013949D01*
X005199Y014083D01*
X005025Y014155D01*
X004835Y014155D01*
X004661Y014083D01*
X004527Y013949D01*
X004455Y013775D01*
X004455Y013585D01*
X004466Y013558D01*
X004394Y013558D01*
X004405Y013585D01*
X004405Y013775D01*
X004333Y013949D01*
X004199Y014083D01*
X004025Y014155D01*
X003835Y014155D01*
X003661Y014083D01*
X003527Y013949D01*
X003455Y013775D01*
X003455Y013585D01*
X003523Y013420D01*
X003337Y013420D01*
X003405Y013585D01*
X003405Y013775D01*
X003333Y013949D01*
X003199Y014083D01*
X003025Y014155D01*
X002835Y014155D01*
X002661Y014083D01*
X002527Y013949D01*
X002455Y013775D01*
X002455Y013585D01*
X002523Y013420D01*
X002337Y013420D01*
X002405Y013585D01*
X002405Y013775D01*
X002333Y013949D01*
X002199Y014083D01*
X002025Y014155D01*
X001835Y014155D01*
X002031Y014153D02*
X002829Y014153D01*
X003031Y014153D02*
X003829Y014153D01*
X004031Y014153D02*
X004829Y014153D01*
X005031Y014153D02*
X005829Y014153D01*
X006031Y014153D02*
X006829Y014153D01*
X007031Y014153D02*
X007829Y014153D01*
X008031Y014153D02*
X008829Y014153D01*
X009031Y014153D02*
X012320Y014153D01*
X012320Y013994D02*
X012017Y013994D01*
X012140Y013871D02*
X011871Y014140D01*
X011489Y014140D01*
X011220Y013871D01*
X011220Y013489D01*
X011489Y013220D01*
X011871Y013220D01*
X012140Y013489D01*
X012140Y013871D01*
X012140Y013836D02*
X012320Y013836D01*
X012320Y013677D02*
X012140Y013677D01*
X012140Y013519D02*
X012320Y013519D01*
X012320Y013360D02*
X012011Y013360D01*
X011871Y013140D02*
X011489Y013140D01*
X011220Y012871D01*
X011220Y012489D01*
X011489Y012220D01*
X011871Y012220D01*
X012140Y012489D01*
X012140Y012871D01*
X011871Y013140D01*
X011968Y013043D02*
X012320Y013043D01*
X012320Y012885D02*
X012126Y012885D01*
X012140Y012726D02*
X012320Y012726D01*
X012320Y012568D02*
X012140Y012568D01*
X012060Y012409D02*
X012320Y012409D01*
X012320Y012251D02*
X011901Y012251D01*
X011871Y012140D02*
X011489Y012140D01*
X011220Y011871D01*
X011220Y011489D01*
X011489Y011220D01*
X011871Y011220D01*
X012140Y011489D01*
X012140Y011871D01*
X011871Y012140D01*
X011919Y012092D02*
X012320Y012092D01*
X012320Y011934D02*
X012077Y011934D01*
X012140Y011775D02*
X012320Y011775D01*
X012320Y011617D02*
X012140Y011617D01*
X012109Y011458D02*
X012320Y011458D01*
X012320Y011300D02*
X011950Y011300D01*
X012028Y010983D02*
X012320Y010983D01*
X012320Y011141D02*
X009170Y011141D01*
X009170Y011300D02*
X010410Y011300D01*
X010332Y010983D02*
X009217Y010983D01*
X009170Y011458D02*
X009339Y011458D01*
X009516Y011934D02*
X010283Y011934D01*
X010441Y012092D02*
X009420Y012092D01*
X009420Y012251D02*
X010459Y012251D01*
X010300Y012409D02*
X009420Y012409D01*
X009420Y012568D02*
X009703Y012568D01*
X009727Y012544D02*
X009727Y012544D01*
X009545Y012726D02*
X009420Y012726D01*
X009748Y013202D02*
X012320Y013202D01*
X011459Y012251D02*
X010901Y012251D01*
X010919Y012092D02*
X011441Y012092D01*
X011283Y011934D02*
X011077Y011934D01*
X011140Y011775D02*
X011220Y011775D01*
X011220Y011617D02*
X011140Y011617D01*
X011109Y011458D02*
X011251Y011458D01*
X011410Y011300D02*
X010950Y011300D01*
X011028Y010983D02*
X011332Y010983D01*
X011220Y010824D02*
X011140Y010824D01*
X011140Y010666D02*
X011220Y010666D01*
X011168Y010507D02*
X011140Y010507D01*
X011529Y010190D02*
X012320Y010190D01*
X012320Y010032D02*
X011979Y010032D01*
X012138Y009873D02*
X012320Y009873D01*
X012320Y009715D02*
X012140Y009715D01*
X012140Y009556D02*
X012320Y009556D01*
X012320Y009398D02*
X012048Y009398D01*
X011890Y009239D02*
X012320Y009239D01*
X012320Y009081D02*
X011930Y009081D01*
X011871Y009140D02*
X011489Y009140D01*
X011220Y008871D01*
X011220Y008489D01*
X011489Y008220D01*
X011871Y008220D01*
X012140Y008489D01*
X012140Y008871D01*
X011871Y009140D01*
X012089Y008922D02*
X012320Y008922D01*
X012320Y008764D02*
X012140Y008764D01*
X012140Y008605D02*
X012320Y008605D01*
X012320Y008447D02*
X012097Y008447D01*
X011939Y008288D02*
X012320Y008288D01*
X012320Y008130D02*
X011881Y008130D01*
X011871Y008140D02*
X011489Y008140D01*
X011220Y007871D01*
X011220Y007489D01*
X011489Y007220D01*
X011871Y007220D01*
X012140Y007489D01*
X012140Y007871D01*
X011871Y008140D01*
X012040Y007971D02*
X012320Y007971D01*
X012320Y007813D02*
X012140Y007813D01*
X012140Y007654D02*
X012320Y007654D01*
X012320Y007496D02*
X012140Y007496D01*
X011988Y007337D02*
X012320Y007337D01*
X012320Y007179D02*
X005915Y007179D01*
X005704Y007337D02*
X010372Y007337D01*
X010489Y007220D02*
X010220Y007489D01*
X010220Y007871D01*
X010489Y008140D01*
X010871Y008140D01*
X011140Y007871D01*
X011140Y007489D01*
X010871Y007220D01*
X010489Y007220D01*
X010369Y007020D02*
X006127Y007020D01*
X005749Y006703D02*
X005660Y006703D01*
X005660Y006545D02*
X005961Y006545D01*
X005660Y006410D02*
X005200Y006410D01*
X005200Y005950D01*
X005504Y005950D01*
X005549Y005962D01*
X005591Y005986D01*
X005624Y006019D01*
X005648Y006061D01*
X005660Y006106D01*
X005660Y006410D01*
X005660Y006386D02*
X010323Y006386D01*
X010482Y006228D02*
X005660Y006228D01*
X005650Y006069D02*
X010418Y006069D01*
X010878Y006228D02*
X011482Y006228D01*
X011489Y006220D02*
X011871Y006220D01*
X012140Y006489D01*
X012140Y006871D01*
X011871Y007140D01*
X011489Y007140D01*
X011220Y006871D01*
X011220Y006489D01*
X011489Y006220D01*
X011489Y006140D02*
X011220Y005871D01*
X011220Y005489D01*
X011489Y005220D01*
X011871Y005220D01*
X012140Y005489D01*
X012140Y005871D01*
X011871Y006140D01*
X011489Y006140D01*
X011418Y006069D02*
X010942Y006069D01*
X011100Y005911D02*
X011260Y005911D01*
X011220Y005752D02*
X011140Y005752D01*
X011140Y005594D02*
X011220Y005594D01*
X011274Y005435D02*
X011086Y005435D01*
X010927Y005277D02*
X011433Y005277D01*
X011489Y005140D02*
X011220Y004871D01*
X011220Y004489D01*
X011489Y004220D01*
X011871Y004220D01*
X012140Y004489D01*
X012140Y004871D01*
X011871Y005140D01*
X011489Y005140D01*
X011467Y005118D02*
X010893Y005118D01*
X011051Y004960D02*
X011309Y004960D01*
X011220Y004801D02*
X011140Y004801D01*
X011140Y004643D02*
X011220Y004643D01*
X011225Y004484D02*
X011135Y004484D01*
X011374Y004326D02*
X011384Y004326D01*
X011532Y004167D02*
X012320Y004167D01*
X012320Y004009D02*
X012002Y004009D01*
X012140Y003850D02*
X012320Y003850D01*
X012320Y003692D02*
X012140Y003692D01*
X012140Y003533D02*
X012320Y003533D01*
X012320Y003375D02*
X012025Y003375D01*
X011871Y003140D02*
X011489Y003140D01*
X011220Y002871D01*
X011220Y002559D01*
X011081Y002420D01*
X011071Y002420D01*
X011140Y002489D01*
X011140Y002871D01*
X010871Y003140D01*
X010489Y003140D01*
X010463Y003113D01*
X010083Y003367D01*
X010066Y003383D01*
X010044Y003393D01*
X010023Y003406D01*
X010000Y003411D01*
X009978Y003420D01*
X009954Y003420D01*
X009930Y003425D01*
X009906Y003420D01*
X002345Y003420D01*
X002333Y003449D01*
X002199Y003583D01*
X002025Y003655D01*
X001835Y003655D01*
X001661Y003583D01*
X001527Y003449D01*
X001455Y003275D01*
X001455Y003085D01*
X001527Y002911D01*
X001661Y002777D01*
X001835Y002705D01*
X002025Y002705D01*
X002199Y002777D01*
X002333Y002911D01*
X002345Y002940D01*
X008273Y002940D01*
X008205Y002775D01*
X008205Y002585D01*
X008277Y002411D01*
X008411Y002277D01*
X008585Y002205D01*
X008775Y002205D01*
X008949Y002277D01*
X009058Y002386D01*
X009212Y002080D01*
X009227Y002044D01*
X009233Y002038D01*
X009237Y002030D01*
X009266Y002004D01*
X009294Y001977D01*
X009302Y001973D01*
X009309Y001967D01*
X009346Y001955D01*
X009382Y001940D01*
X009391Y001940D01*
X009399Y001937D01*
X009439Y001940D01*
X010289Y001940D01*
X010220Y001871D01*
X010220Y001690D01*
X010670Y001690D01*
X010670Y001670D01*
X010690Y001670D01*
X010690Y001690D01*
X011140Y001690D01*
X011140Y001871D01*
X011071Y001940D01*
X011228Y001940D01*
X011316Y001977D01*
X011383Y002044D01*
X011559Y002220D01*
X011871Y002220D01*
X012140Y002489D01*
X012140Y002871D01*
X011871Y003140D01*
X011953Y003058D02*
X012320Y003058D01*
X012320Y003216D02*
X010309Y003216D01*
X010335Y003375D02*
X010075Y003375D01*
X010953Y003058D02*
X011407Y003058D01*
X011248Y002899D02*
X011112Y002899D01*
X011140Y002741D02*
X011220Y002741D01*
X011220Y002582D02*
X011140Y002582D01*
X011084Y002424D02*
X011074Y002424D01*
X011446Y002107D02*
X011456Y002107D01*
X011489Y002140D02*
X011220Y001871D01*
X011220Y001489D01*
X011489Y001220D01*
X011871Y001220D01*
X012140Y001489D01*
X012140Y001871D01*
X011871Y002140D01*
X011489Y002140D01*
X011297Y001948D02*
X011247Y001948D01*
X011220Y001790D02*
X011140Y001790D01*
X011140Y001670D02*
X010690Y001670D01*
X010690Y001220D01*
X010871Y001220D01*
X011140Y001489D01*
X011140Y001670D01*
X011140Y001631D02*
X011220Y001631D01*
X011237Y001473D02*
X011123Y001473D01*
X010965Y001314D02*
X011395Y001314D01*
X011965Y001314D02*
X012320Y001314D01*
X012320Y001473D02*
X012123Y001473D01*
X012140Y001631D02*
X012320Y001631D01*
X012320Y001790D02*
X012140Y001790D01*
X012063Y001948D02*
X012320Y001948D01*
X012320Y002107D02*
X011904Y002107D01*
X011916Y002265D02*
X012320Y002265D01*
X012320Y002424D02*
X012074Y002424D01*
X012140Y002582D02*
X012320Y002582D01*
X012320Y002741D02*
X012140Y002741D01*
X012112Y002899D02*
X012320Y002899D01*
X011335Y003375D02*
X011025Y003375D01*
X011140Y003533D02*
X011220Y003533D01*
X011220Y003692D02*
X011140Y003692D01*
X011140Y003850D02*
X011171Y003850D01*
X011976Y004326D02*
X012320Y004326D01*
X012320Y004484D02*
X012135Y004484D01*
X012140Y004643D02*
X012320Y004643D01*
X012320Y004801D02*
X012140Y004801D01*
X012051Y004960D02*
X012320Y004960D01*
X012320Y005118D02*
X011893Y005118D01*
X011927Y005277D02*
X012320Y005277D01*
X012320Y005435D02*
X012086Y005435D01*
X012140Y005594D02*
X012320Y005594D01*
X012320Y005752D02*
X012140Y005752D01*
X012100Y005911D02*
X012320Y005911D01*
X012320Y006069D02*
X011942Y006069D01*
X011878Y006228D02*
X012320Y006228D01*
X012320Y006386D02*
X012037Y006386D01*
X012140Y006545D02*
X012320Y006545D01*
X012320Y006703D02*
X012140Y006703D01*
X012140Y006862D02*
X012320Y006862D01*
X012320Y007020D02*
X011991Y007020D01*
X011369Y007020D02*
X010991Y007020D01*
X011140Y006862D02*
X011220Y006862D01*
X011220Y006703D02*
X011140Y006703D01*
X011140Y006545D02*
X011220Y006545D01*
X011323Y006386D02*
X011037Y006386D01*
X010988Y007337D02*
X011372Y007337D01*
X011220Y007496D02*
X011140Y007496D01*
X011140Y007654D02*
X011220Y007654D01*
X011220Y007813D02*
X011140Y007813D01*
X011040Y007971D02*
X011320Y007971D01*
X011479Y008130D02*
X010881Y008130D01*
X010939Y008288D02*
X011421Y008288D01*
X011263Y008447D02*
X011097Y008447D01*
X011140Y008605D02*
X011220Y008605D01*
X011220Y008764D02*
X011140Y008764D01*
X011089Y008922D02*
X011271Y008922D01*
X011420Y009081D02*
X011430Y009081D01*
X011217Y009556D02*
X011140Y009556D01*
X011140Y009715D02*
X011220Y009715D01*
X011222Y009873D02*
X011138Y009873D01*
X011371Y010032D02*
X011381Y010032D01*
X011999Y010349D02*
X012320Y010349D01*
X012320Y010507D02*
X012140Y010507D01*
X012140Y010666D02*
X012320Y010666D01*
X012320Y010824D02*
X012140Y010824D01*
X011300Y012409D02*
X011060Y012409D01*
X011140Y012568D02*
X011220Y012568D01*
X011220Y012726D02*
X011140Y012726D01*
X011126Y012885D02*
X011234Y012885D01*
X011392Y013043D02*
X010968Y013043D01*
X010941Y013290D02*
X010771Y013220D01*
X010588Y013220D01*
X010419Y013290D01*
X010290Y013419D01*
X010220Y013588D01*
X010220Y013771D01*
X010290Y013941D01*
X010419Y014070D01*
X010588Y014140D01*
X010771Y014140D01*
X010941Y014070D01*
X011070Y013941D01*
X011140Y013771D01*
X011140Y013588D01*
X011070Y013419D01*
X010941Y013290D01*
X011011Y013360D02*
X011349Y013360D01*
X011220Y013519D02*
X011111Y013519D01*
X011140Y013677D02*
X011220Y013677D01*
X011220Y013836D02*
X011113Y013836D01*
X011017Y013994D02*
X011343Y013994D01*
X010349Y013360D02*
X009589Y013360D01*
X009431Y013519D02*
X010249Y013519D01*
X010220Y013677D02*
X009405Y013677D01*
X009380Y013836D02*
X010247Y013836D01*
X010343Y013994D02*
X009288Y013994D01*
X008572Y013994D02*
X008288Y013994D01*
X008380Y013836D02*
X008480Y013836D01*
X008455Y013677D02*
X008405Y013677D01*
X008378Y013519D02*
X008482Y013519D01*
X007819Y013202D02*
X007248Y013202D01*
X007282Y013360D02*
X007578Y013360D01*
X007482Y013519D02*
X007378Y013519D01*
X007405Y013677D02*
X007455Y013677D01*
X007480Y013836D02*
X007380Y013836D01*
X007288Y013994D02*
X007572Y013994D01*
X006690Y013202D02*
X006170Y013202D01*
X006170Y013043D02*
X006728Y013043D01*
X006578Y013360D02*
X006282Y013360D01*
X006378Y013519D02*
X006482Y013519D01*
X006455Y013677D02*
X006405Y013677D01*
X006380Y013836D02*
X006480Y013836D01*
X006572Y013994D02*
X006288Y013994D01*
X005572Y013994D02*
X005288Y013994D01*
X005380Y013836D02*
X005480Y013836D01*
X005455Y013677D02*
X005405Y013677D01*
X005378Y013519D02*
X005482Y013519D01*
X005578Y013360D02*
X005282Y013360D01*
X005170Y013202D02*
X005690Y013202D01*
X005690Y013043D02*
X005170Y013043D01*
X005170Y012885D02*
X005690Y012885D01*
X005795Y012726D02*
X005223Y012726D01*
X004862Y012409D02*
X002331Y012409D01*
X002398Y012568D02*
X004717Y012568D01*
X004690Y012726D02*
X002405Y012726D01*
X002360Y012885D02*
X004075Y012885D01*
X003482Y013519D02*
X003378Y013519D01*
X003405Y013677D02*
X003455Y013677D01*
X003480Y013836D02*
X003380Y013836D01*
X003288Y013994D02*
X003572Y013994D01*
X004288Y013994D02*
X004572Y013994D01*
X004480Y013836D02*
X004380Y013836D01*
X004405Y013677D02*
X004455Y013677D01*
X005020Y012251D02*
X002135Y012251D01*
X002025Y012155D02*
X002199Y012083D01*
X002333Y011949D01*
X002405Y011775D01*
X008190Y011775D01*
X008190Y011617D02*
X002405Y011617D01*
X002405Y011585D02*
X002333Y011411D01*
X002199Y011277D01*
X002025Y011205D01*
X001835Y011205D01*
X001661Y011277D01*
X001527Y011411D01*
X001455Y011585D01*
X001455Y011775D01*
X001410Y011775D01*
X001455Y011775D02*
X001527Y011949D01*
X001661Y012083D01*
X001835Y012155D01*
X002025Y012155D01*
X002177Y012092D02*
X008179Y012092D01*
X008190Y011934D02*
X002339Y011934D01*
X002405Y011775D02*
X002405Y011585D01*
X002352Y011458D02*
X008190Y011458D01*
X008190Y011300D02*
X002222Y011300D01*
X002199Y011083D02*
X002025Y011155D01*
X001835Y011155D01*
X001661Y011083D01*
X001527Y010949D01*
X001455Y010775D01*
X001455Y010585D01*
X001527Y010411D01*
X001661Y010277D01*
X001835Y010205D01*
X002025Y010205D01*
X002199Y010277D01*
X002333Y010411D01*
X002405Y010585D01*
X002405Y010775D01*
X002333Y010949D01*
X002199Y011083D01*
X002300Y010983D02*
X008190Y010983D01*
X008190Y011141D02*
X002059Y011141D01*
X001801Y011141D02*
X001410Y011141D01*
X001410Y010983D02*
X001560Y010983D01*
X001475Y010824D02*
X001410Y010824D01*
X001410Y010666D02*
X001455Y010666D01*
X001487Y010507D02*
X001410Y010507D01*
X001410Y010349D02*
X001589Y010349D01*
X001410Y010190D02*
X008190Y010190D01*
X008190Y010032D02*
X001410Y010032D01*
X001410Y009873D02*
X003944Y009873D01*
X003786Y009715D02*
X001410Y009715D01*
X001410Y009556D02*
X003217Y009556D01*
X003058Y009398D02*
X001410Y009398D01*
X001410Y009239D02*
X002945Y009239D01*
X002940Y009081D02*
X001410Y009081D01*
X001410Y008922D02*
X002940Y008922D01*
X002940Y008764D02*
X001410Y008764D01*
X001410Y008605D02*
X002940Y008605D01*
X002940Y008447D02*
X001410Y008447D01*
X001410Y008288D02*
X002940Y008288D01*
X002940Y008130D02*
X001410Y008130D01*
X001410Y007971D02*
X002940Y007971D01*
X002940Y007813D02*
X001410Y007813D01*
X001410Y007654D02*
X002940Y007654D01*
X002940Y007496D02*
X001410Y007496D01*
X001410Y007337D02*
X002940Y007337D01*
X002940Y007179D02*
X001410Y007179D01*
X001410Y007020D02*
X002940Y007020D01*
X002940Y006862D02*
X001410Y006862D01*
X001410Y006703D02*
X002940Y006703D01*
X002940Y006545D02*
X001410Y006545D01*
X001410Y006386D02*
X002940Y006386D01*
X002940Y006228D02*
X001410Y006228D01*
X001410Y006069D02*
X002940Y006069D01*
X002940Y005911D02*
X001410Y005911D01*
X001410Y005752D02*
X002940Y005752D01*
X002940Y005594D02*
X002174Y005594D01*
X002199Y005583D02*
X002025Y005655D01*
X001835Y005655D01*
X001661Y005583D01*
X001527Y005449D01*
X001455Y005275D01*
X001455Y005085D01*
X001527Y004911D01*
X001661Y004777D01*
X001835Y004705D01*
X002025Y004705D01*
X002199Y004777D01*
X002333Y004911D01*
X002405Y005085D01*
X002405Y005275D01*
X002333Y005449D01*
X002199Y005583D01*
X002339Y005435D02*
X002940Y005435D01*
X002940Y005277D02*
X002404Y005277D01*
X002405Y005118D02*
X002940Y005118D01*
X002940Y004960D02*
X002353Y004960D01*
X002223Y004801D02*
X002940Y004801D01*
X002940Y004643D02*
X002055Y004643D01*
X002298Y004484D02*
X002940Y004484D01*
X002964Y004326D02*
X002874Y004326D01*
X003032Y004167D02*
X003104Y004167D01*
X003191Y004009D02*
X003262Y004009D01*
X002829Y003692D02*
X001410Y003692D01*
X001410Y003850D02*
X001588Y003850D01*
X001487Y004009D02*
X001410Y004009D01*
X001410Y004167D02*
X001455Y004167D01*
X001476Y004326D02*
X001410Y004326D01*
X001410Y004484D02*
X001562Y004484D01*
X001410Y004643D02*
X001805Y004643D01*
X001637Y004801D02*
X001410Y004801D01*
X001410Y004960D02*
X001507Y004960D01*
X001455Y005118D02*
X001410Y005118D01*
X001410Y005277D02*
X001456Y005277D01*
X001410Y005435D02*
X001521Y005435D01*
X001410Y005594D02*
X001686Y005594D01*
X002272Y003850D02*
X002671Y003850D01*
X002988Y003533D02*
X002249Y003533D01*
X002321Y002899D02*
X008256Y002899D01*
X008205Y002741D02*
X002111Y002741D01*
X001749Y002741D02*
X001410Y002741D01*
X001410Y002899D02*
X001539Y002899D01*
X001466Y003058D02*
X001410Y003058D01*
X001410Y003216D02*
X001455Y003216D01*
X001496Y003375D02*
X001410Y003375D01*
X001410Y003533D02*
X001611Y003533D01*
X001410Y002582D02*
X008206Y002582D01*
X008272Y002424D02*
X001410Y002424D01*
X001410Y002265D02*
X008440Y002265D01*
X008468Y002107D02*
X001410Y002107D01*
X001410Y001948D02*
X008277Y001948D01*
X008277Y001949D02*
X008205Y001775D01*
X008205Y001585D01*
X008277Y001411D01*
X008411Y001277D01*
X008585Y001205D01*
X008775Y001205D01*
X008949Y001277D01*
X009083Y001411D01*
X009155Y001585D01*
X009155Y001775D01*
X009083Y001949D01*
X008949Y002083D01*
X008775Y002155D01*
X008585Y002155D01*
X008411Y002083D01*
X008277Y001949D01*
X008211Y001790D02*
X001410Y001790D01*
X001410Y001631D02*
X008205Y001631D01*
X008252Y001473D02*
X001410Y001473D01*
X001410Y001314D02*
X008374Y001314D01*
X008986Y001314D02*
X010395Y001314D01*
X010489Y001220D02*
X010220Y001489D01*
X010220Y001670D01*
X010670Y001670D01*
X010670Y001220D01*
X010489Y001220D01*
X010670Y001314D02*
X010690Y001314D01*
X010690Y001473D02*
X010670Y001473D01*
X010670Y001631D02*
X010690Y001631D01*
X010220Y001631D02*
X009155Y001631D01*
X009149Y001790D02*
X010220Y001790D01*
X010237Y001473D02*
X009108Y001473D01*
X009083Y001948D02*
X009363Y001948D01*
X009198Y002107D02*
X008892Y002107D01*
X008920Y002265D02*
X009119Y002265D01*
X010309Y004960D02*
X004551Y004960D01*
X004449Y005594D02*
X003670Y005594D01*
X003670Y005752D02*
X004344Y005752D01*
X004238Y005911D02*
X003670Y005911D01*
X003670Y006069D02*
X003862Y006069D01*
X003704Y006228D02*
X003670Y006228D01*
X003670Y006386D02*
X003700Y006386D01*
X003700Y006545D02*
X003670Y006545D01*
X003670Y006703D02*
X003774Y006703D01*
X003670Y006862D02*
X003933Y006862D01*
X003911Y007020D02*
X003670Y007020D01*
X003670Y007179D02*
X003753Y007179D01*
X003700Y007337D02*
X003670Y007337D01*
X003670Y007496D02*
X003700Y007496D01*
X003725Y007654D02*
X003670Y007654D01*
X003670Y007813D02*
X003884Y007813D01*
X003960Y007971D02*
X003670Y007971D01*
X003719Y008130D02*
X003802Y008130D01*
X003516Y008605D02*
X003420Y008605D01*
X003420Y008764D02*
X003835Y008764D01*
X003851Y009081D02*
X003420Y009081D01*
X003420Y008922D02*
X010271Y008922D01*
X010220Y008764D02*
X005525Y008764D01*
X005660Y008605D02*
X010180Y008605D01*
X009969Y008447D02*
X005660Y008447D01*
X005660Y008288D02*
X009757Y008288D01*
X010135Y007971D02*
X010320Y007971D01*
X010346Y008130D02*
X010479Y008130D01*
X010220Y007813D02*
X009923Y007813D01*
X010220Y007654D02*
X005635Y007654D01*
X005660Y007496D02*
X010220Y007496D01*
X010274Y005435D02*
X003670Y005435D01*
X003670Y005277D02*
X010433Y005277D01*
X010467Y005118D02*
X003670Y005118D01*
X003740Y004960D02*
X003809Y004960D01*
X004709Y006069D02*
X004710Y006069D01*
X004700Y006228D02*
X004656Y006228D01*
X004660Y006386D02*
X004700Y006386D01*
X004700Y006545D02*
X004660Y006545D01*
X004700Y006703D02*
X004586Y006703D01*
X004427Y006862D02*
X004757Y006862D01*
X004911Y007020D02*
X004449Y007020D01*
X004607Y007179D02*
X004753Y007179D01*
X004700Y007337D02*
X004660Y007337D01*
X004660Y007496D02*
X004700Y007496D01*
X005160Y006862D02*
X005200Y006862D01*
X005200Y006703D02*
X005160Y006703D01*
X005160Y006545D02*
X005200Y006545D01*
X005200Y006386D02*
X005160Y006386D01*
X005160Y006228D02*
X005200Y006228D01*
X005200Y006069D02*
X005160Y006069D01*
X004700Y008288D02*
X004660Y008288D01*
X004660Y008447D02*
X004700Y008447D01*
X004700Y008605D02*
X004660Y008605D01*
X004525Y008764D02*
X004835Y008764D01*
X004981Y008950D02*
X005379Y008950D01*
X005660Y009231D01*
X005660Y009629D01*
X005379Y009910D01*
X004981Y009910D01*
X004700Y009629D01*
X004700Y009231D01*
X004981Y008950D01*
X004851Y009081D02*
X004509Y009081D01*
X004660Y009239D02*
X004700Y009239D01*
X004700Y009398D02*
X004660Y009398D01*
X004660Y009556D02*
X004700Y009556D01*
X004786Y009715D02*
X004574Y009715D01*
X004416Y009873D02*
X004944Y009873D01*
X005416Y009873D02*
X008190Y009873D01*
X008190Y009715D02*
X005574Y009715D01*
X005660Y009556D02*
X008190Y009556D01*
X008190Y009398D02*
X005660Y009398D01*
X005660Y009239D02*
X008282Y009239D01*
X008440Y009081D02*
X005509Y009081D01*
X008190Y010349D02*
X002271Y010349D01*
X002373Y010507D02*
X008190Y010507D01*
X008190Y010666D02*
X002405Y010666D01*
X002385Y010824D02*
X008190Y010824D01*
X009906Y013043D02*
X010392Y013043D01*
X002572Y013994D02*
X002288Y013994D01*
X002380Y013836D02*
X002480Y013836D01*
X002455Y013677D02*
X002405Y013677D01*
X002378Y013519D02*
X002482Y013519D01*
X001819Y013202D02*
X001410Y013202D01*
X001410Y013360D02*
X001578Y013360D01*
X001482Y013519D02*
X001410Y013519D01*
X001410Y013677D02*
X001455Y013677D01*
X001480Y013836D02*
X001410Y013836D01*
X001410Y013994D02*
X001572Y013994D01*
X001621Y013043D02*
X001410Y013043D01*
X001410Y012885D02*
X001500Y012885D01*
X001455Y012726D02*
X001410Y012726D01*
X001410Y012568D02*
X001462Y012568D01*
X001410Y012409D02*
X001529Y012409D01*
X001410Y012251D02*
X001725Y012251D01*
X001683Y012092D02*
X001410Y012092D01*
X001410Y011934D02*
X001521Y011934D01*
X001455Y011617D02*
X001410Y011617D01*
X001410Y011458D02*
X001508Y011458D01*
X001410Y011300D02*
X001638Y011300D01*
D15*
X001930Y011680D03*
X001930Y012680D03*
X001930Y013680D03*
X002930Y013680D03*
X003930Y013680D03*
X004930Y013680D03*
X005930Y013680D03*
X006930Y013680D03*
X007930Y013680D03*
X008930Y013680D03*
X005180Y010930D03*
X001930Y010680D03*
X001930Y009680D03*
X001930Y008680D03*
X001930Y005180D03*
X001930Y004180D03*
X001930Y003180D03*
X005680Y002430D03*
X008680Y002680D03*
X008680Y001680D03*
D16*
X009430Y002180D02*
X009180Y002680D01*
X008680Y002680D01*
X009430Y002180D02*
X011180Y002180D01*
X011680Y002680D01*
X011680Y003680D02*
X011180Y004180D01*
X003430Y004180D01*
X003180Y004430D01*
X003180Y009180D01*
X003430Y009430D01*
X004180Y009430D01*
X004180Y008430D02*
X003680Y008430D01*
X003430Y008180D01*
X003430Y004930D01*
X003680Y004680D01*
X004180Y004680D01*
X010680Y004680D01*
X010680Y005680D02*
X004680Y005680D01*
X004180Y006430D01*
X004180Y007430D02*
X004680Y007930D01*
X009680Y007930D01*
X010680Y008680D01*
X011180Y009180D02*
X008680Y009180D01*
X008430Y009430D01*
X008430Y012180D01*
X008180Y012430D01*
X005180Y012430D01*
X004930Y012680D01*
X004930Y013680D01*
X004430Y013180D02*
X002180Y013180D01*
X001930Y012930D01*
X001930Y012680D01*
X002180Y013180D02*
X001930Y013430D01*
X001930Y013680D01*
X005930Y013680D02*
X005930Y012930D01*
X006180Y012680D01*
X008430Y012680D01*
X008680Y012430D01*
X008680Y010430D01*
X008930Y010180D01*
X011180Y010180D01*
X011680Y010680D01*
X011680Y009680D02*
X011180Y009180D01*
X010680Y010680D02*
X009180Y010680D01*
X008930Y010930D01*
X008930Y012680D01*
X008680Y012930D01*
X007180Y012930D01*
X006930Y013180D01*
X006930Y013680D01*
X007930Y013680D02*
X007930Y013430D01*
X008180Y013180D01*
X008930Y013180D01*
X009180Y012930D01*
X009180Y011930D01*
X009430Y011680D01*
X010680Y011680D01*
X010680Y012680D02*
X009930Y012680D01*
X008930Y013680D01*
X005180Y007430D02*
X006180Y006680D01*
X010680Y006680D01*
X010680Y003680D02*
X003180Y003680D01*
X002680Y004180D01*
X001930Y004180D01*
X001930Y003180D02*
X009930Y003180D01*
X010680Y002680D01*
D17*
X004180Y004680D03*
X004430Y013180D03*
M02*
